<?xml version="1.0" encoding="UTF-8"?>
<svg id="Layer_1" data-name="Layer 1" xmlns="http://www.w3.org/2000/svg" viewBox="0 0 286.44 46.52">
  <defs>
    <style>
      .cls-1 {
        fill: #ffde17;
        stroke: #231f20;
        stroke-miterlimit: 10;
      }
    </style>
  </defs>
  <polygon class="cls-1" points="36.87 45.59 23.15 38.06 9.17 45.1 12.08 29.72 1.07 18.6 16.6 16.62 23.77 2.71 30.45 16.87 45.9 19.39 34.5 30.12 36.87 45.59"/>
  <polygon class="cls-1" points="96.74 45.19 83.01 37.67 69.03 44.71 71.95 29.33 60.93 18.21 76.46 16.23 83.63 2.32 90.31 16.47 105.76 19 94.36 29.72 96.74 45.19"/>
  <polygon class="cls-1" points="156.6 44.8 142.88 37.27 128.89 44.31 131.81 28.93 120.8 17.81 136.32 15.83 143.5 1.92 150.18 16.08 165.63 18.6 154.23 29.33 156.6 44.8"/>
  <polygon class="cls-1" points="216.47 44.4 202.74 36.88 188.76 43.92 191.68 28.54 180.66 17.42 196.19 15.44 203.36 1.52 210.04 15.68 225.49 18.2 214.09 28.93 216.47 44.4"/>
  <polygon class="cls-1" points="276.33 44.01 262.6 36.48 248.62 43.52 251.54 28.14 240.53 17.02 256.05 15.04 263.23 1.13 269.91 15.29 285.36 17.81 273.96 28.54 276.33 44.01"/>
</svg>