<?xml version="1.0" encoding="UTF-8"?>
<svg id="Layer_1" data-name="Layer 1" xmlns="http://www.w3.org/2000/svg" viewBox="0 0 187.91 59.42">
  <defs>
    <style>
      .cls-1 {
        fill: #bbddac;
        stroke-width: 0px;
      }
    </style>
  </defs>
  <path class="cls-1" d="m184.75,50.48c-14.07,4.87-30.21,6.18-43.58-1.49-4.89-2.8-8.77-6.69-13.56-9.65-5.53-3.42-12.22-5.18-18.72-4.98-5.56.18-10.48,2.18-15.64,4-5.45,1.92-10.62,2.46-16.33,1.02s-9.59-4.51-13.71-8.16c-4.9-4.35-10.02-8.19-16.08-10.79-11.52-4.94-24.06-5.69-36.38-3.98-2.13.3-4.24.67-6.35,1.11-1.32.27-2.09,1.84-1.75,3.08.38,1.37,1.75,2.02,3.08,1.75,12.46-2.56,25.55-2.75,37.55,1.84,1.4.54,1.9.75,3.4,1.47,1.66.8,3.28,1.69,4.84,2.67,2.5,1.58,4.79,3.43,7.02,5.38,4.27,3.76,8.42,7.4,13.82,9.44,5.94,2.25,12.58,2.68,18.73,1.08,4.91-1.28,9.46-3.68,14.48-4.58,5.73-1.03,12.39.11,17.66,2.9,4.89,2.58,8.64,6.37,13.26,9.39,13.22,8.65,29.92,9.03,44.75,4.86,1.63-.46,3.25-.98,4.86-1.53,1.28-.44,2.12-1.71,1.75-3.08-.34-1.24-1.79-2.19-3.08-1.75h0Z"/>
  <path class="cls-1" d="m.89,23.1c6.22,7.11,12.45,14.21,18.67,21.32.89,1.02,2.63.91,3.54,0,1.01-1.01.89-2.52,0-3.54-6.22-7.11-12.45-14.21-18.67-21.32-.89-1.02-2.63-.91-3.54,0C-.12,20.57,0,22.08.89,23.1h0Z"/>
  <path class="cls-1" d="m3.75,20.08c9.09-5.14,18.18-10.28,27.27-15.41,2.8-1.58.28-5.9-2.52-4.32C19.4,5.48,10.31,10.62,1.22,15.76c-2.8,1.58-.28,5.9,2.52,4.32h0Z"/>
</svg>