<?xml version="1.0" encoding="UTF-8"?>
<svg id="Layer_1" data-name="Layer 1" xmlns="http://www.w3.org/2000/svg" viewBox="0 0 88.62 91.97">
  <defs>
    <style>
      .cls-1, .cls-2 {
        stroke-width: 0px;
      }

      .cls-2 {
        fill: #fff;
      }
    </style>
  </defs>
  <path class="cls-1" d="m0,79.28V0h88.62v91.97H0c0-1.56,0-3.11,0-4.67.32.03.63.08.95.08.77-.01,1.54-.07,2.32-.07.73,0,1.46.06,2.19.08.65.02,1.07-.4,1.07-1.06,0-.35-.13-.74-.01-1.03.2-.53.08-1.04.09-1.55.01-.38-.31-.61-.7-.59-.31.02-.62.03-.92,0-.13,0-.26-.09-.36-.16-.39-.27-.43-.66-.4-1.1.05-.65.07-1.3.1-1.95.03-.5.02-1,.09-1.49.04-.27.15-.58.54-.59.45-.01.91-.03,1.36-.04.38,0,.76-.03,1.14-.01.6.02,1.21.09,1.81.1.54,0,1.08-.06,1.62-.09.09,0,.2.05.28.1.39.25.45.6.34,1.03-.09.38.18,1.21.68,1.26.29.03.59.12.87.09.43-.05.57.18.58.52.02.49-.02.98-.02,1.47,0,.8.04,1.6.04,2.4,0,.56-.32.86-.88.85-.78-.02-1.57-.09-2.35-.08-.49,0-1.04-.15-1.41.44-.19.31-.32.56-.16.88.17.33.4.62.83.62.57,0,1.14.01,1.71-.01,1.27-.05,2.54-.11,3.81-.18.36-.02.6-.18.63-.59.03-.42.05-.85.16-1.26.04-.16.28-.29.45-.4.07-.04.2.02.3,0,.31-.02.62-.03.91-.1.42-.09.61-.45.61-.88,0-.37.07-.74.16-1.1.14-.54.61-.31.96-.37.06-.01.12-.02.17-.03.79-.12,1,.08,1.09.88.06.58.08,1.23.8,1.45.26.08.55.1.82.1.37,0,.59.18.67.51.08.32.1.66.13,1,.04.39.21.69.6.76,1.05.2,1.48-.11,1.65-1.16.03-.2.02-.41.04-.61,0-.09.02-.23.08-.27.3-.2.56-.55,1-.26.11.07.29.05.43.05.48,0,.67.19.71.67.03.32.06.65.14.96.09.34.3.61.7.61,1.02,0,2.03.04,3.05.02.82-.02,1.63-.06,2.45-.15.5-.06.69-.4.69-.89,0-.33.05-.67.16-.99.05-.14.26-.32.41-.33.38-.03.77.02,1.16.05.62.06.64.09.7.69.02.19.08.39.05.57-.09.52.23.74.62.92.65.29,1.54-.19,1.56-.89.03-.83,0-1.66-.05-2.49-.03-.57-.47-.86-1.05-.77-.71.12-1.17-.28-1.15-1.01,0-.16.08-.33.04-.48-.06-.28-.11-.71-.29-.78-.37-.15-.82-.16-1.24-.14-.58.03-.99-.37-.89-.95.04-.21.06-.43.06-.64,0-1.13.15-1.28,1.27-1.24.16,0,.33,0,.48.03.34.06.55.24.56.62,0,.23.07.47.06.7-.06.71.44.95,1.08.95.62,0,1.24.02,1.87.01,1.1-.01,2.19-.03,3.29-.07.57-.02.84-.44.81-1-.03-.59,0-1.19.09-1.77.1-.6-.46-1.35-1.08-1.34-.11,0-.22-.04-.33-.08-.56-.2-.84-.04-.91.54-.05.39-.06.79-.15,1.18-.04.18-.16.39-.31.48-.55.34-1.14.21-1.69,0-.54-.21-.42-.75-.43-1.18-.02-.66-.29-.94-.95-.91-.89.04-1.24-.31-1.19-1.2.05-.96-.1-1.14-1.05-1.28-.06,0-.12-.02-.17-.03-.93-.04-1.14.18-1.16,1.11,0,.43-.09.86-.15,1.4-.49,0-.97,0-1.44,0-.58,0-.68.09-.75.67-.02.2-.08.42-.04.61.24,1.05.05,2.07-.13,3.09-.05.32-.24.43-.52.42-.22,0-.45-.01-.65-.09-.39-.15-.68.05-.8.34-.16.38-.26.82-.25,1.23.01.63-.05.76-.69.78-1.02.02-2.04.04-3.07.07-.77.02-1.14-.43-1.06-1.19.11-.99.17-1.98.22-2.97.02-.44-.32-.76-.75-.73-.31.02-.61.04-.92.09-.38.07-.65.24-.62.7.02.32-.01.64-.05.96-.06.49-.4.77-.85.82-.52.06-1.05.02-1.58,0-.61-.02-1.21-.09-1.82-.08-.32,0-.45-.12-.46-.38-.04-.54-.08-1.08-.07-1.62,0-.57.51-1,1.08-.94.43.04.86.14,1.29.13.61,0,1.22-.03,1.83-.12.42-.06.62-.54.56-1.14-.04-.45-.3-.6-.71-.58-.23.01-.47.01-.7.03-.49.03-.93-.41-.9-.89.03-.57.07-1.13.07-1.7-.01-1.22-.15-2.43,0-3.66.09-.73.09-1.49.02-2.23-.11-1.07-.09-1.15-1.16-1.14-.15,0-.29,0-.44.02-.38.04-.59-.12-.58-.52.03-1.23.03-2.47.1-3.7.05-.83.4-.99,1.02-.88.49.09.87-.15,1.15-.55.23-.33.09-.68-.08-.95-.09-.14-.38-.2-.59-.23-.29-.04-.59,0-.88-.03-.3-.02-.48-.18-.49-.51-.01-.29-.06-.58-.1-.87-.1-.86-.33-1.04-1.2-.98-.66.04-1.03-.27-1.07-.94-.02-.31.01-.62,0-.92-.02-.4,0-.86.39-.98.46-.14.97-.07,1.47-.08.05,0,.1.1.15.15.37.36.31.83.32,1.28.02.7.4,1,1.26.99.62,0,1.04-.43,1.03-1.05-.03-1.26-.07-2.51-.09-3.77,0-.16.03-.32.09-.47.13-.33.04-.58-.2-.83-.34-.35-.75-.25-1.15-.23-.63.03-.87-.2-.85-.82.03-1.19.06-2.37.08-3.56.02-1.37.08-2.74,0-4.11-.06-1.07-.19-.94-1.07-.77-.55.11-1.09-.19-1.1-.7-.02-.92-.03-1.85.03-2.77.06-.86-.18-1.22-1.05-1.21-.93.01-1.86.05-2.79.14-.45.05-.61-.19-.66-.51-.07-.37-.05-.76-.05-1.14,0-1.12.04-2.25.03-3.37,0-.72-.06-1.43.28-2.09.07-.13.22-.29.36-.32.33-.07.67-.11,1-.09.44.02.61-.22.69-.57.05-.21.07-.44.07-.65.02-.63.34-1.01.89-.97.31.02.62.01.92.02.43,0,.74.43.62.85-.05.19-.09.4-.09.6,0,.79.06,1.58.05,2.37,0,.37-.11.74-.19,1.11-.07.31-.3.39-.57.34-.15-.03-.31-.17-.45-.16-.29.04-.66.06-.82.25-.16.18-.18.56-.14.84.04.27.16.55.57.53.36-.02.73.05,1.07.14.14.04.32.22.36.36.08.35.06.73.13,1.09.03.18.14.37.27.51.36.39.79.24,1.18.07.24-.1.54-.26.63-.47.14-.32.15-.7.16-1.06.02-.47.13-.6.6-.58.28.01.56.05.83.05.5,0,.75-.24.81-.74.03-.25,0-.5.05-.74.13-.75.31-1.03,1.02-.9.24.04.5.02.75.02.76-.01,1.52-.03,2.28-.04.7-.01,1.41,0,2.11-.04.31-.02.56-.19.59-.54.02-.25.02-.49.02-.74,0-.66-.03-1.32.03-1.97.03-.38-.14-.54-.43-.64-.17-.06-.38-.06-.57-.06-.95,0-1.91-.02-2.86-.01-.38,0-.57-.2-.61-.55-.04-.33-.05-.67-.08-1.01-.02-.32.03-.7-.52-.51-.07.03-.18-.07-.27-.11-.44-.19-1.12,0-1.2.37-.07.33-.09.67-.1,1-.03.82-.03,1.63-.06,2.45,0,.12-.07.25-.15.35-.46.57-1.02.67-1.76.35-.29-.13-.44-.33-.45-.64-.02-.41-.07-.82-.06-1.23.02-.57.12-1.15.12-1.72,0-.26-.1-.68-.27-.75-.74-.3-1.54-.2-2.33-.16-.49.03-.99.04-1.48.01-.13,0-.33-.19-.35-.32-.05-.33-.06-.68-.02-1.01.05-.46-.18-.69-.56-.81-.33-.1-.68-.21-1.01-.16-.26.04-.66.28-.69.48-.13.79-.12,1.6-.18,2.41-.05.56-.1,1.13-.22,1.67-.07.32-.26.48-.65.24-.5-.31-1.19-.18-1.19.68,0,.18.03.35.03.53.02.45-.38.95-.78.98-.52.03-1.03.05-1.55.06-.53.01-1.05,0-1.58.02-.68.03-1.05-.32-1.05-1.01,0-.28-.04-.55-.03-.83.01-.45.35-1.15.96-1.2.35-.03.69-.1,1.04-.14.41-.05.48-.37.48-.68,0-.32-.12-.64-.48-.7-.32-.06-.66-.08-.97,0-.41.1-.6-.07-.68-.4-.08-.34-.11-.69-.12-1.04,0-.39-.12-.66-.56-.68-.09,0-.17-.03-.26-.05-.74-.24-1.18.09-1.15.86.04.91-.43,1.4-1.31,1.38-.09,0-.17.02-.26.02-.55,0-.78.19-.79.69,0,.42.33.74.79.78.24.02.49.08.73.12.27.05.47.18.48.48.03.52.06,1.05.05,1.57-.01.59-.07,1.18-.11,1.77-.03.39-.04.79-.12,1.17-.02.12-.22.26-.36.29-.27.06-.55.05-.83.06-.65.03-.86.39-.54.96.17.3.46.41.82.37.59-.06.85.13.94.72.04.26,0,.52,0,.79,0,.57.19.78.75.79,1.05,0,2.09,0,3.14,0,.67,0,.81.21.69.9-.05.3-.06.65.04.93.15.42.55.48.97.53,1,.13,1.28.24,1.25,1.27-.02.64-.04,1.28-.06,1.92-.02.42.03.86-.07,1.26-.15.61-.49.74-1.37.66-.49-.04-.98.44-.94.93.03.47.55.84,1.17.83.85-.02,1.69-.05,2.54-.08.44-.01.66.17.69.62.02.23,0,.47,0,.7,0,.31.11.57.39.74.31.19,1.51.13,1.77-.12.08-.08.13-.2.16-.3.21-1.01.23-2.02.04-3.04-.02-.11-.17-.26-.28-.28-.4-.06-.81-.11-1.21-.09-.57.02-.78-.15-.78-.71,0-.25-.02-.5-.06-.74-.1-.61.32-1.27.93-1.4.21-.04.44-.05.65-.02.77.09.93.27.96,1.04.05,1.21.15,1.29,1.39,1.17.51-.05.79.18.8.69.01.7.01,1.4.01,2.1,0,.62.02,1.24-.02,1.86-.01.19-.2.46-.37.51-.38.12-.8.15-1.2.19-.37.04-.71.31-.72.64-.03,1.01-.07,2.01-.08,3.02,0,.71-.03.75-.77.82-.17.02-.35.07-.52.09-.85.1-1.07-.08-1.12-.92-.01-.2-.05-.41-.07-.61-.03-.5-.13-.62-.63-.64-.61-.02-1.23-.01-1.85,0-.72.02-1.43.07-2.15.1-.36.01-.73.03-1.08-.03-.29-.05-.54-.11-.76.14-.26.29-.3.61-.19.98.1.32.31.43.62.45.22.01.44.05.65.08.68.1.77.25.83.91.04.41,0,.94.52,1.11.41.13.85.19,1.28.2.77,0,1.55-.04,2.32-.08.61-.03,1.22-.09,1.83-.15.4-.04.94.22.94.55,0,.77-.05,1.54-.15,2.31-.04.35-.34.5-.71.38-.17-.05-.35-.14-.51-.12-.67.12-1.34.08-2.01.05-.74-.03-1.13.27-1.17,1.02-.03.53.11.68.63.66.15,0,.29,0,.44,0,.95.09,1.06.42,1.03,1.13-.05.91-.08,1.83-.08,2.75,0,.33.03.69.44.83.55.18,1.01.06,1.32-.27.39-.41.38-.94.5-1.43.14-.57.23-.65.8-.65.2,0,.41-.04.61-.05.33-.02.87.33.89.62.05.71.08,1.43.09,2.14.01.58-.04,1.17-.02,1.76.01.47-.12.69-.6.72-.44.03-.88-.02-1.32.02-.8.08-1.59.19-2.39,0-.31-.07-.42-.19-.42-.49,0-.38-.04-.76-.05-1.14-.03-.53-.13-.64-.65-.67-.15,0-.29-.01-.44,0-.95,0-1.13-.18-1.12-1.15,0-.13.01-.26.02-.4.04-.49-.05-.64-.52-.65-1.12-.02-2.24,0-3.36,0-.12,0-.28.1-.35.21-.34.51-.23,1.16.31,1.45.27.14.63.12.95.12.42,0,.58.21.59.6.02,1.05.04,2.1.05,3.15,0,.62.36.92.98.84.75-.1,1.2.3,1.22,1.06.01.34.03.67.05,1.01.03.41-.39.87-.8.87-.33,0-.67,0-1,.04-.39.03-.65.45-.63.95.02.44.3.71.71.72.35.01.71.01,1.05.08.17.03.43.21.43.33.04.67.05,1.34-.02,2-.02.2-.3.48-.51.53-.45.1-.92.07-1.39.09-.03,0-.1-.04-.1-.07-.1-.44-.3-.88-.28-1.31.03-.65-.21-.97-.88-.96-.68.01-1.36,0-2.04-.06-.8-.06-1.44.16-1.52.68-.1.57-.13,1.15-.15,1.73-.02.53.04,1.05.04,1.58,0,.54-.5.96-1.04.91-.85-.08-.94-.03-1.25.73Zm60.34-31.77c-.42-.03-.95-.06-1.47-.12-.29-.03-.5-.2-.53-.5-.04-.36-.08-.73-.08-1.09.01-1.08.06-2.15.07-3.23,0-1.81-.01-3.62-.02-5.43,0-.47,0-.93,0-1.4,0-.28.02-.56-.02-.83-.05-.35-.03-.81-.24-1.02-.23-.22-.7-.27-1.06-.29-.84-.03-.93-.09-.98-.95,0-.15-.05-.29-.06-.43-.12-.89.12-1.38.75-1.53.23-.05.46-.08.69-.1.41-.04.7-.33.73-.76.02-.3-.27-.63-.66-.65-.93-.04-1.87-.06-2.81-.03-.57.02-.69.19-.75.75-.04.33-.03.68-.16.97-.25.55-.82.55-1.33.56-.59.01-1.19-.08-1.78-.06-1.05.02-2.1.1-3.16.14-.37.01-.71-.15-.75-.53-.06-.56-.03-1.13-.03-1.7,0-.29.11-.6.05-.87-.1-.43-.24-.87-.48-1.23-.1-.15-.5-.11-.77-.14-.16-.02-.33,0-.48-.03-.1-.02-.26-.08-.28-.16-.12-.4-.26-.81-.28-1.22-.02-.43-.13-.69-.55-.78-.37-.08-.75-.19-1.13-.19-1.4,0-2.81.04-4.21.1-.59.03-.96.69-.74,1.25.04.11.16.25.27.27.37.07.75.13,1.12.13.7,0,1.4-.07,2.1-.07.55,0,.79.2.83.75.07.83.07,1.66.09,2.49.03.79.17,1.31.97,1.34.24,0,.5.03.72.11.17.06.38.19.44.34.11.31.16.65.19.99.05.56.35.81.91.72.95-.15,1.23.04,1.44.95.14.63.62.91,1.42.84.55-.05.64-.18.66-.97,0-.06,0-.12,0-.18.04-.49.21-.63.7-.63,1.02.01,2.04.02,3.06.03.35,0,.59.15.8.45.35.5.3,1,.18,1.55-.14.62-.16.67-.8.72-.43.03-.69.24-.88.61-.25.49-.14.98-.08,1.48.04.34.08.68.03,1.02-.07.48.28.92.75.89.66-.05.81-.21.8-.88,0-.19-.03-.38-.02-.57,0-.33.16-.58.48-.65.34-.07.7-.11,1.05-.11.38,0,.76.13.88.53.11.38.16.79.18,1.18.04.95-.33,1.29-1.26,1.23-.71-.05-.99.16-1.08.84-.04.29-.02.58-.02.87,0,.63.09,1.27,0,1.88-.1.71.06.75-.78.94-.67.15-1.13.82-1.12,1.54.02,1.68.03,3.36,0,5.05,0,.56-.34.85-.89.89-.25.02-.5.03-.75,0-.88-.09-1.12.46-1.21,1.09-.11.79-.55,1.06-1.34.83-.08-.02-.17-.04-.26-.04-.54-.01-.81-.23-.89-.74-.14-.95-.47-1.19-1.41-1.05-.26.04-.52.12-.77.13-.8,0-1.6-.02-2.4-.03-.48,0-.96-.02-1.44.01-.32.02-.62.11-.6.54.02.37.27.6.68.59.21,0,.42-.08.61-.03.26.07.67.17.73.36.26.79.26,1.61-.12,2.39-.21.43-.44.5-.9.36-.14-.04-.29-.05-.43-.05-1.24.03-2.48.07-3.71.09-.27,0-.55-.11-.82-.1-.61,0-1.13.7-.88,1.17.22.4.57.65,1.02.65.95,0,1.9-.04,2.85-.09.46-.02.64.1.69.57.03.33.06.67.09,1.01.04.37.21.64.61.7.36.05.72.1,1.08.11.31,0,.46.16.47.45.02.57.03,1.14.04,1.71.01.53-.3.84-.83.85-.21,0-.41-.03-.62-.02-.43.01-.73.29-.76.67-.05.61.15.93.65,1.02.24.04.5.02.74.06.15.03.31.11.42.21.39.34.28.84.35,1.27.07.46.38.73.83.72.83-.02,1.65-.04,2.48-.08.25-.01.51-.05.73-.14.43-.18.62-.51.58-1.01-.08-.86.13-1.06,1-1.1.26-.01.53-.03.78-.1.38-.11.58-.5.51-.91-.09-.52-.25-.7-.74-.68-.92.03-1.85.04-2.76.14-.71.08-1.05-.35-1.05-.95,0-.89-.03-1.78-.03-2.67,0-.8.01-1.59.03-2.39,0-.41,0-.82.07-1.22.06-.37.29-.64.72-.63.39,0,.79-.01,1.18,0,.7.02,1.39.03,2.09.07.32.02.56.17.59.53.03.28.05.55.07.83.03.63.33.92.94.93.65,0,1.3.06,1.95.05,1.08,0,2.16-.04,3.24-.07.41-.01.73-.44.73-.93,0-.37-.42-.87-.76-.87-.67-.01-1.33-.02-2-.03-.37,0-.73.03-1.1.01-.37-.01-.78-.46-.77-.82.01-.46.05-.93.05-1.39,0-.36.19-.52.51-.53,1.14-.04,2.28-.07,3.42-.08.14,0,.3.08.43.16.44.25.33.71.39,1.1.09.62.31.91.83.95.9.07,1.37-.15,1.42-.8.06-.8,0-1.61-.08-2.4-.02-.22-.29-.55-.49-.59-.52-.1-1.07-.07-1.6-.09-.6-.02-1.2,0-1.8-.06-.49-.05-.77-.35-.81-.83-.05-.53-.07-1.07-.06-1.61,0-.62.07-1.24.09-1.86.02-.47.28-.91.6-.98,1.17-.27,1.9.27,1.97,1.44.03.41.23.69.63.72,1.07.08,2.15.12,3.22.15.35.01.58.2.62.56.03.32.06.64.11.96.08.48.42.74.92.72,1.13-.04,1.14-.03,1.26,1.09,0,.03,0,.06,0,.09.11,1.06.45,1.28,1.28,1.19.1-.01.2-.03.3-.04.37-.04.64.08.73.47.06.26.13.52.13.78.02.44.28.71.6.91.19.11.45.09.68.13.58.1.98-.28.95-.87-.03-.7-.06-1.4-.04-2.1.02-.85-.2-1.09-1.03-1.03-.13.01-.27,0-.4.02-.43.07-.64-.18-.71-.54-.08-.4-.11-.81-.11-1.22,0-.69.06-1.38.07-2.07,0-.23-.06-.46-.07-.69-.01-.43-.02-.87-.01-1.3,0-.36-.03-.73.03-1.09.06-.38.29-.66.73-.69.29-.02.58-.06.87-.1.34-.04.64-.4.65-.78,0-.3-.37-.86-.63-.87-.39-.03-.79-.02-1.18-.02-.73-.01-1.46,0-2.19-.05-.18-.01-.4-.23-.5-.41-.11-.19-.17-.46-.13-.68.08-.53-.19-.81-.58-1.07-.54-.36-1.54.06-1.56.7-.03.74-.03,1.49,0,2.24.04.66.44.98,1.09.99.16,0,.34,0,.47.07.19.11.46.27.49.44.09.5.07,1.02.09,1.53.02.51-.34.89-.84.92-.54.03-1.08.07-1.73.12Zm2.51,17.19s.03,0,.05,0c-.01-.13-.02-.26-.04-.39-.06-.58.41-1.17,1.1-1.08.63.09,1.28.04,1.93.05.29,0,.58,0,.87.03.76.09.85.25.84,1.03,0,.88,0,1.75.06,2.63.02.23.19.53.38.63.32.17.71.18,1.06.28.82.24,1.62.05,2.43-.04.47-.05.82-.56.68-1-.08-.24-.3-.52-.53-.62-.3-.13-.67-.14-1.01-.14-.45,0-.66-.24-.72-.62-.05-.33,0-.67-.04-1-.07-.44.15-.75.4-1.07.23-.3.53-.17.83-.17.91,0,1.81-.05,2.72-.1.38-.02.63-.22.67-.63.03-.33.08-.67.09-1,0-.39.25-.7.65-.71.23,0,.47.02.7,0,.71-.05,1.01.22,1.04.95.04.96.07,1.92.12,2.88.04.81-.49,1.34-1.29,1.36-.28,0-.62.09-.84.26-.3.23-.51.65-.26.97.25.32.67.65,1.04.69.84.08,1.69,0,2.54-.06.64-.04,1.06-.51,1.05-1.08-.03-1.52-.05-3.04-.06-4.56,0-.26,0-.53.05-.79.13-.56.5-.82,1.05-.71.93.18,1.33-.43,1.34-1.23,0-.85-.04-1.69-.06-2.54-.02-.68.22-.95.88-1,.29-.02.61,0,.87-.11.25-.11.55-.35.61-.59.11-.44-.35-1.11-1.01-1.03-.71.09-1.42.11-2.14.12-1.24.03-1.49-.19-1.63-1.39-.11-.93-.41-1.15-1.35-1.01-.01,0-.03,0-.04,0-.56-.03-1.13-.05-1.69-.1-.78-.06-1.17.01-1.44.68-.08.2-.07.46-.04.68.07.63-.29,1.05-.91,1.06-.23,0-.47.01-.7.07-.32.08-.59.21-.61.63-.01.35-.08.69-.16,1.03-.03.14-.14.29-.26.37-.63.44-1.35.27-2.04.28-.65,0-1.31,0-1.96.03-.08,0-.18.1-.23.17-.31.42-.2,1.01.2,1.34.55.46,1.19.31,1.81.29.56-.02,1.11-.1,1.66-.11.32,0,.7.03.74.46.06.68.07,1.37.1,2.06.01.28-.12.44-.41.45-.36.02-.73.07-1.09.06-.79-.01-1.57.19-2.36-.04-.51-.15-.76-.39-.83-.94-.04-.32-.12-.63-.22-.93-.06-.17-.19-.43-.31-.44-.4-.05-.82-.08-1.21,0-.44.1-.65.71-.57,1.37.09.66-.27,1.1-.92,1.08-.91-.02-1.81.11-2.73-.05-.79-.14-1.63-.03-2.44,0-.26.01-.62.07-.76.24-.45.57-.02,1.41.71,1.5.22.02.44.04.66.07.34.05.77.45.78.79,0,.52-.02,1.05-.08,1.56-.03.27-.22.46-.55.45-.37,0-.73.03-1.1.04-.26.01-.45.1-.48.4-.04.39-.13.77-.17,1.16-.05.47-.37.82-.84.86-.22.02-.44,0-.66,0-1.33.03-2.66.06-3.99.09-.52.01-1.05.01-1.57,0-.39,0-.78-.07-1.16-.04-.64.05-1,.46-1.04,1.09-.09,1.26-.32,1.4-1.36,1.23-.35-.05-.96.33-1.04.61-.08.27.18.94.48,1.06.36.14.75.25,1.13.28.43.04.87-.09,1.3-.04,1.02.12,2.03-.28,3.04.02.06.02.14-.02.21-.04.47-.19.76-.77.78-1.28.01-.35.13-.72.31-1.01.07-.11.45-.02.69-.03.13,0,.26-.04.39-.03.37.03.7.14.78.56.07.35.14.72.14,1.08.01.93,0,1.86-.03,2.79,0,.16-.11.33-.2.46-.29.41-.7.46-1.17.42-.2-.01-.46.08-.6.22-.41.41-.31,1.21.19,1.5.23.13.54.15.82.15.83,0,1.66-.02,2.49-.08.58-.04.85-.41.84-.96-.01-.45.01-.91.03-1.36.02-.61.08-1.23.07-1.84,0-.4.27-.75.66-.74,1.05.03,2.1.03,3.15.06.34,0,.58-.15.67-.46.08-.29.13-.6.09-.9-.06-.57.3-.92.85-.94.42-.02.83-.2,1.24-.33.07-.02.13-.16.13-.25.03-.68.05-1.36.05-2.03,0-.31-.01-.62-.08-.92-.08-.32-.2-.66-.62-.69-.33-.02-.67-.06-1-.03-.28.03-.38-.11-.41-.33-.07-.37-.11-.75-.16-1.12Zm-4.62-55.69c-.9-.31-1.74-.44-2.61-.32-.47.06-.96.07-1.44.06-.62,0-1.24-.07-1.86-.07-.65,0-1.31.09-1.96.07-.62-.02-.85.13-.93.76-.05.36-.07.73-.14,1.09-.1.55-.44.73-.96.54-.13-.04-.28-.06-.41-.03-.57.11-.95-.12-1.05-.69-.05-.29-.04-.58-.05-.87,0-.35-.33-.7-.64-.69-.94.04-1.87.08-2.81.12-.52.02-.77.22-.93.7-.14.42.17.59.42.76.18.12.42.16.64.18.23.02.47-.02.7-.05.33-.04.45.12.44.44-.01.29-.01.58-.02.88,0,.62.04,1.24-.03,1.86-.1.85.35,1.36,1.17,1.26.26-.03.53,0,.79.03.25.03.4.18.4.44.02.92.09,1.84.04,2.76-.02.45.09.87.4,1.02.37.19.87.13,1.31.17.05,0,.13-.08.15-.15.1-.3.25-.61.26-.91.02-.83-.02-1.66-.03-2.5,0-.49,0-.99.02-1.48.02-.39.04-.79.11-1.17.1-.53,1.09-.86,1.69-.63.43.16.63.42.61.89-.02.39,0,.79,0,1.18-.02,1.26-.03,2.52-.06,3.78,0,.43.14.75.55.91.37.14,1.29-.08,1.48-.31.35-.44.17-.95.2-1.43.05-.76-.03-1.52-.03-2.28,0-.49.09-.98.07-1.47-.04-.91.14-1.13,1.02-1.27,1.06-.16,1.45.58,1.45,1.37,0,.83,0,1.66.01,2.5,0,.34.17.59.49.64.34.05.7.04,1.03-.02.32-.06.57-.25.57-.66,0-.35.08-.7.15-1.05.03-.13.09-.29.19-.37.39-.35,1.36-.35,1.75,0,.08.07.16.18.17.28.05.55.1,1.11.11,1.66,0,.15-.07.41-.18.45-.3.11-.63.19-.94.17-.58-.04-1.12.27-1.16.75-.04.55.46,1.07,1.04,1.06,1.21-.02,2.42-.04,3.63-.07,1.17-.03,2.33-.06,3.5-.09.42,0,.8-.44.79-.85-.01-.55-.06-1.12.05-1.65.09-.44.08-.8-.18-1.15-.1-.13-.22-.33-.34-.34-.36-.02-.73.04-1.09.09-.1.01-.25.1-.27.18-.09.35-.19.7-.21,1.05-.03.63-.24.93-.85,1.01-.26.03-.54-.02-.8.02-.35.06-.58-.11-.62-.4-.08-.65-.1-1.3-.13-1.95,0-.08.12-.21.21-.24.39-.11.78-.2,1.18-.26.41-.06.79-.32.81-.61.05-.75-.05-1-.57-1.03-.96-.07-1.93-.08-2.89-.07-.81,0-1.63.09-2.44.07-.68-.02-.85-.26-.87-.94-.03-1.05-.07-2.09-.11-3.1Zm12.56,61.64c-.57,0-.8.19-.83.78-.04.88-.04,1.77-.06,2.66,0,.47.01.93,0,1.4-.02.59-.1,1.18-.09,1.78.02,1.07.1,2.13.12,3.2.01.65-.06,1.3-.06,1.95,0,.64.04,1.29.07,1.93.02.58.04,1.16.08,1.74.04.57.61,1.03,1.18,1.03,1.48-.01,2.96,0,4.43-.01.9,0,1.81-.01,2.71,0,.39,0,.77.06,1.16.06,1.01,0,2.01-.04,3.02-.06.63,0,1.26.01,1.9,0,.47,0,.94-.09,1.4-.03.66.09,1.07-.53,1.06-1.1-.02-1.11-.08-2.22-.09-3.33,0-.76.07-1.52.05-2.28-.03-1.49-.12-2.98-.15-4.47-.02-1.31.03-2.63.02-3.94,0-.81-.23-1.45-1.33-1.31-.38.05-.76,0-1.14,0-1.29.02-2.57.06-3.86.05-1.02,0-2.03-.07-3.04-.09-.77-.01-1.55.02-2.32.03-.42,0-.85,0-1.27,0-.99,0-1.97,0-2.96,0Zm7.55-46.49c-1.16-.03-1.5.29-1.51,1.44,0,.47.05.93.06,1.4.03.92.43,1.25,1.35,1.12.47-.07.8.18.84.66.02.19-.05.41.03.57.18.35.36.78.66.95.34.19.82.13,1.24.16.36.02.53.19.55.55.01.31.04.61.06.92.05,1-.47,1.58-1.34,1.53-.71-.05-1.42-.09-2.12-.13-.94-.05-1.47.54-1.33,1.47.06.42-.14.77-.55.79-.93.04-1.86.06-2.8.03-.42-.01-1.02.24-1.16.62-.16.4,0,.8.46,1.07.17.1.39.16.58.16.95,0,1.9-.03,2.85-.07.4-.02.69.21.68.55,0,.22,0,.45.06.66.25,1.09.26,1.07,1.33,1.06.34,0,.57-.09.66-.42.06-.22.15-.45.16-.67.05-.97.06-1.94.11-2.91.02-.46.42-.73.85-.63.19.05.39.07.59.06.49-.02.86.16.9.51.06.54.09,1.08.11,1.62.03.6-.01,1.2.07,1.79.12.82-.36,1.33-1.18,1.26-.39-.04-.68.06-.99.23-.36.19-.41.54-.3.83.08.23.36.53.58.57,1.08.17,2.18.14,3.26,0,.53-.07.78.13.86.66.02.12.03.23.06.35.09.32.19.63.28.94.14.46.56.34.87.43.54.16,1.11-.21,1.16-.78.05-.57.05-1.14.07-1.71,0-.34.02-.68,0-1.01-.03-.64-.11-1.28-.13-1.93-.02-.78-.34-1.07-1.1-.9-.66.15-1.33-.16-1.31-1.02.02-.79-.06-1.58-.05-2.37,0-.56-.14-1.16.29-1.63.13-.14.33-.27.51-.32.22-.05.47-.04.7,0,.41.07.72-.1.85-.45.1-.25.14-.63.02-.83-.16-.25-.48-.44-.87-.37-.27.05-.56.05-.83.03-.35-.03-.6-.21-.62-.61-.02-.45-.08-.9-.08-1.36,0-.8,0-1.61.05-2.41.02-.27.21-.54.35-.79.04-.07.2-.09.31-.1.36-.04.73-.07,1.09-.11.45-.05.69-.3.67-.77-.03-.83-.07-1.67-.1-2.5-.01-.3-.17-.47-.45-.59-.96-.39-1.89.25-1.82,1.27.01.17.02.36-.02.52-.09.34-.29.57-.67.58-.61.01-1.22.04-1.83.04-1,0-2,0-3,0Zm-8.69-8.75s.07,0,.1,0c.01.22.03.44.04.66.03.7.2.91.89.94.84.04,1.68.06,2.52.05.88,0,1.75-.07,2.63-.1,1.27-.03,2.54-.06,3.8-.08.29,0,.59.03.88.02,1.55-.05,3.1-.12,4.64-.18.57-.02.85-.27.91-.84.02-.16.01-.32.01-.48-.02-.73-.06-1.46-.07-2.19,0-.74.04-1.49.05-2.23,0-1,0-2.01,0-3.01,0-.29.02-.58.01-.88-.03-1.01-.08-2.01-.09-3.02,0-.61.06-1.23.06-1.84,0-.63-.16-.86-.78-.88-1.38-.06-2.77-.05-4.16-.05-.86,0-1.72.03-2.58.04-.26,0-.53-.02-.79,0-1.49.05-2.98.11-4.47.15-.82.02-1.65,0-2.47.01-.59,0-.99.37-1.01.88-.02.5-.03,1.01-.04,1.51-.03,1.35-.06,2.7-.07,4.06-.01,1.37-.01,2.74-.01,4.1,0,1.12,0,2.25,0,3.37Zm-53.16,2.44c.77-.07.98-.29.96-1.05-.01-.57-.01-1.14,0-1.71.02-.52.1-1.04.1-1.56,0-.54-.12-1.09-.06-1.62.16-1.37-.19-2.74.09-4.12.14-.72.08-1.47.1-2.21.01-.77.01-1.54.01-2.31,0-.4-.17-.69-.61-.71-1.07-.04-2.14-.09-3.22-.07-1.37.03-2.74.14-4.11.18-1.26.04-2.53.02-3.79.04-1.14.02-2.28.05-3.42.09-.54.02-.78.25-.8.82-.04.88-.06,1.75-.06,2.63,0,1.05.04,2.1.03,3.15-.01.92-.07,1.85-.11,2.77-.02.46-.08.92-.09,1.38,0,.55.03,1.11.02,1.66,0,.46.02.94-.07,1.39-.16.79.12,1.22.94,1.28.25.02.5-.03.74-.03.65.02,1.31.09,1.96.08,1.11-.01,2.22-.1,3.33-.11,1.29-.01,2.57.02,3.86.03,1.4,0,2.8,0,4.2,0Zm12.91,45.65c.15,0,.3.02.44,0,.4-.06.58.1.57.5-.01.32.04.65,0,.96-.06.41.1.67.46.78.27.08.57.07.86.07.33,0,.72-.05.78.36.11.72.15,1.45.18,2.18.01.49-.08.98-.09,1.47,0,.51.38.82.88.79.46-.03.96-.1,1.39.01.49.13.92.06,1.37-.07.11-.03.23-.05.34-.07.41-.05.64-.29.69-.71.04-.37.07-.75.14-1.12.11-.55.47-.72,1.01-.52.4.15.7.02.94-.33.27-.4.16-.8-.09-1.09-.23-.28-.54-.59-1.01-.43-.32.11-.63.04-.82-.25-.12-.2-.22-.44-.24-.67-.09-.84-.31-1.12-1.13-1.27-.16-.03-.35.02-.48-.05-.21-.11-.47-.26-.55-.46-.16-.45-.23-.93-.33-1.4-.06-.31-.21-.51-.56-.51-.86.01-1.73,0-2.59.05-.81.05-1.26-.33-1.26-1.16,0-1.05-.16-1.21-1.19-1.2-.94.01-1.07-.11-1.11-1.04-.01-.26-.03-.53-.09-.78-.13-.56-.58-.46-.99-.46-1.08-.02-1.27.17-1.19,1.27,0,.04.01.09.02.13.05.53-.22.85-.74.88-.2.01-.41-.03-.61-.04-.57-.03-.95.22-.93.63.01.28.07.55.11.83.05.35.31.51.61.51,1.04-.02,2.08-.08,3.11-.11.13,0,.28.05.4.11.36.2.26.54.24.86-.06,1.04.28,1.43,1.22,1.36.07,0,.15,0,.22,0Zm-2.65,7.6s0,0,0-.01c-.22,0-.45-.03-.66.01-.15.03-.38.16-.39.27-.1.81-.17,1.62-.21,2.43-.02.49.04.99.03,1.48-.02.49-.16.99-.11,1.46.04.32.26.77.52.88.41.18.93.3,1.38-.07.3-.25.43-.5.41-.93-.04-1.01.04-2.03.07-3.04,0-.12.04-.23.06-.35.07-.29.25-.4.55-.37.26.02.52,0,.78-.04.51-.07.91.24.96.76.03.33.08.67.18.99.14.42.41.71.91.75.91.06,1.16-.58,1.21-1.41.04-.67-.04-1.34-.04-2.01,0-.6-.22-.81-.82-.73-.79.1-1.35-.39-1.35-1.17,0-.51,0-1.02,0-1.54,0-.17-.02-.35-.02-.52,0-.39.03-.78,0-1.16-.03-.31-.27-.49-.58-.49-.62,0-1.24-.03-1.85.04-1.05.11-2.1.15-3.15.01-.83-.11-1.07.07-1.33.87-.17.51.08,1,.6,1.02,1.07.06,2.13.07,3.2.06.48,0,.73.15.75.63.02.32.04.64.06.96.08.89-.18,1.18-1.06,1.22-.03,0-.06,0-.09,0Zm6.51-56.4s-.04,0-.06,0c0,.93.01,1.86,0,2.79,0,.34-.24.53-.57.57-.36.04-.73.02-1.09.06-.13.01-.29.09-.37.19-.27.32-.26.72-.04,1.02.2.28.53.43.93.37.25-.04.52-.01.78,0,.5,0,1,.04,1.5.02.27,0,.53-.14.8-.13.56,0,1.13.1,1.69.1.65,0,.86.16.88.82,0,.16,0,.32,0,.48.03.54.51.95,1.04.91.13-.01.26-.02.39-.03.62-.05.92-.44.79-1.06-.15-.79.23-1.22,1.02-1.17.09,0,.18.02.26.03.65.08.98-.17,1.03-.77.06-.64-.1-.8-.8-.85-.04,0-.09,0-.13-.01-1.17-.15-1.23-.22-1.21-1.4,0-.48-.24-.78-.7-.86-.19-.03-.38-.06-.56-.09-.8-.13-1.1.22-1.02,1.05.08.88-.19,1.32-1.12,1.34-.2,0-.41,0-.62-.02-.37-.02-.56-.21-.58-.58-.02-.52-.04-1.05-.06-1.57-.01-.55.29-.82.85-.77.22.02.44.04.66.03.39-.02.84-.53.81-.9-.03-.44-.38-.77-.85-.78-.23,0-.47.05-.7.02-.18-.02-.38-.1-.5-.22-.36-.35-.21-.83-.25-1.25-.04-.47-.35-.79-.82-.79-.15,0-.29.01-.44.02-.57.05-.79.24-.82.81-.06.87-.1,1.75-.14,2.62Zm30.63,18.26s0,0,0-.01c.15,0,.29.01.44,0,.38-.04.94-.51.94-.82,0-.48-.06-.96-.03-1.44.04-.68.12-1.35.21-2.03.01-.11.16-.26.27-.29.31-.08.63-.13.95-.16.64-.07.91-.35.9-.99-.01-.68-.04-1.37-.07-2.05-.01-.37-.14-.66-.57-.7-.31-.03-.62-.06-.94-.1-.13-.02-.31-.03-.36-.11-.25-.4-.57-.79-.46-1.32.1-.43-.32-.86-.76-.81-.13.02-.26.03-.39.02-.44,0-.96.49-.96.93,0,1.08.15,2.16-.13,3.23-.08.32-.24.44-.53.46-.16,0-.32,0-.48-.01-.8-.07-1.24.38-1.2,1.18.04.83.04,1.66.06,2.49,0,.48.04.96,0,1.44-.07.79.46,1.09,1.15,1.09.66,0,1.31,0,1.97,0ZM29.95,6.24c.81.05,1.14-.25,1.14-1.05,0-.67,0-1.35.01-2.02,0-.69-.2-.94-.9-.93-1.08.02-2.16.1-3.24.13-.33.01-.66-.08-.99-.07-1.77.06-3.55.17-5.32.17-.37,0-.55.12-.62.35-.08.23-.04.54.04.78.19.56.74.51,1.18.53.64.03,1.29-.09,1.93-.06,1.17.04,1.22.23,1.25,1.13.03,1.13.22,1.27,1.35,1.12.03,0,.06,0,.09-.02.39-.11.63.06.64.44.01.97.03,1.95-.04,2.92-.05.63.27,1.14.9,1.16.22,0,.44-.04.65-.05.4-.03.59-.35.61-.64.08-.85.12-1.71.08-2.57-.05-1.05.21-1.37,1.25-1.31Zm18.83,72.73c.01.22.03.4.03.57,0,.75-.38,1.08-1.12,1-.17-.02-.36-.07-.52-.02-.2.06-.44.16-.54.31-.31.49.06,1.28.64,1.43.7.18,1.41.1,2.12.06,1.45-.08,1.76.1,1.81,1.55.02.6-.01,1.2-.03,1.79-.02.61.26.99.81,1.28.82.42,1.46-.25,1.48-.84.03-.92-.04-1.84-.1-2.75-.02-.28.03-.43.24-.64.39-.37.79-.48,1.32-.4.45.06.66-.29.81-.66.14-.35.09-.7-.23-.9-.31-.19-.63-.36-1.07-.26-.64.14-1.01-.23-.96-.89.01-.19.03-.38.02-.57-.02-.51-.39-.87-.9-.9-.15,0-.29,0-.44,0-.74,0-.92-.19-.96-.93-.01-.32-.03-.65-.15-.94-.21-.53-.65-.54-1.16-.48-.56.06-.96.39-.99.95-.04.77-.07,1.53-.11,2.25ZM30.77,22.09s.05,0,.07,0c0-.09-.01-.18,0-.26.16-1.05-.71-1.52-1.69-1.48-.7.03-1.4.02-2.1.08-.49.04-.61-.24-.68-.61-.03-.14-.02-.29-.02-.44.03-.82.05-1.64.09-2.46.03-.67-.06-.86-.7-1.02-.28-.07-.59-.07-.87-.03-.45.07-.71.52-.69.98.02.44-.01.88-.02,1.31,0,.33-.08.67-.03.99.16,1.01-.41,1.55-1.43,1.31-.18-.04-.51.02-.57.14-.14.27-.22.61-.21.92,0,.17.22.45.38.49.49.13,1.01.24,1.52.22,1.33-.03,2.65-.14,3.98-.21.37-.02.68.24.72.6.02.14.06.29.06.43,0,.55.15,1.09-.08,1.64-.2.49.1,1.54.51,1.71.31.13.7.12,1.05.1.57-.02.69-.17.7-.73,0-1.23,0-2.47,0-3.7Zm-.05,9.16s.05.01.07.02c.05.46.07.94.18,1.39.06.22.25.49.45.58.69.32,1.66-.16,1.54-1-.03-.19,0-.38,0-.57.02-.28.15-.47.45-.51.38-.05.75-.11,1.13-.14.55-.05.81-.33.8-.87-.01-.7-.03-1.4-.03-2.1,0-.55.03-1.1.04-1.65,0-.51-.01-1.02,0-1.53,0-.36.19-.56.57-.58.39-.02.79-.05,1.18-.09.4-.04.6-.32.65-.67.05-.33.15-.66-.25-.93-.33-.22-.63-.13-.96-.13-.88,0-1.75,0-2.63,0-.44,0-.72.34-.74.77-.03.78.1,1.55,0,2.34-.13.92.01,1.89.04,2.83.02.6-.26.91-.86.92-.23,0-.47,0-.7.02-.31.01-.58.1-.65.46-.1.48-.19.96-.28,1.43Zm14.13,11.16c.22-.29.38-.44.46-.63.09-.22.22-.53.13-.69-.1-.18-.41-.25-.65-.33-.15-.05-.32-.01-.48-.03-.46-.07-.91-.17-1.37-.21-.34-.03-.74.33-.71.59.09.61.4,1.11.93,1.44.16.1.39.08.58.12,0-.18.01-.36.03-.53,0-.04.03-.07.05-.11.38.16.39.18.3.5-.02.06-.03.15,0,.21.31.66.14,1.37.19,2.06.02.26-.22.35-.43.24-.24-.13-.45-.32-.71-.51-.08.09-.14.24-.24.28-.3.1-.63.24-.93.21-.29-.03-.32-.35-.31-.64,0-.18-.14-.36-.2-.55-.11-.31-.21-.62-.31-.93-.04-.13-.08-.27-.12-.4-.22-.65-.98-.42-1.35-.83-.02-.02-.11.01-.16.04-.38.26-.43.79-.15,1.16.1.13.21.3.22.46.07.84.14,1.69.13,2.53,0,.43.19.61.53.66.37.05.74.08,1.04-.29.13-.16.44-.19.68-.22.17-.02.35.06.52.09.08.02.17.01.24.05.15.07.31.25.44.22.16-.03.31-.2.44-.34.08-.09.12-.22.21-.37.18.12.31.27.47.29.33.04.77.14.99-.02.22-.16.28-.61.31-.94.05-.52.01-1.05.01-1.62.38.06.58.13.58.44,0,.1.04.2.09.29.27.46.35.95.24,1.48-.03.16-.04.32-.04.48-.01.39.17.59.56.64.4.05.62-.12.68-.5.04-.22.09-.44.07-.65-.04-.69-.11-1.37-.14-2.06-.01-.23.08-.46.08-.69.01-.65.09-1.32-.02-1.95-.11-.65-.87-.91-1.41-.55-.16.11-.25.34-.36.52-.37.63-.3.79.37,1.1.26.12.6.34.66.58.09.35-.35.38-.6.51-.04.02-.08.04-.12.06-.3.15-.51.06-.63-.25-.12-.31-.23-.62-.8-.4Zm-18.7-3.58s-.05,0-.07,0c0,.12,0,.23,0,.35,0,.72.26,1.01.98,1.06.15.01.29,0,.44,0,.61,0,1.23,0,1.84,0,.25,0,.59.09.75-.04.27-.23.5-.57.6-.9.05-.16-.19-.53-.38-.61-.33-.14-.73-.16-1.1-.17-.58-.01-.91-.28-.91-.89,0-.78.02-1.57.1-2.34.09-.91-.22-1.31-1.12-1.29-.98.02-1.96.08-2.94.1-.61,0-1.22-.01-1.82-.05-.5-.03-.92.3-.91.77.02.64.47,1.05,1.12,1.04.83-.02,1.66-.03,2.5-.03.64,0,.93.32.93.97,0,.68,0,1.36,0,2.04Zm60.45,13.31l-.13-.02c0-.61,0-1.23,0-1.84,0-.61-.01-1.22-.06-1.83-.02-.29-.07-.62-.22-.86-.19-.3-.5-.43-.93-.42-.79.03-1.22.36-1.26,1.15-.01.22.03.45-.04.66-.06.18-.22.45-.36.47-.59.08-1.19.09-1.78.09-.53,0-1.07-.09-1.6-.07-.42.02-.76.49-.76.93,0,.54.15.71.73.8.46.07.92.14,1.38.15.52.01,1.05-.05,1.58-.07.58-.02.76.11.87.69.03.17,0,.36.04.52.04.19.11.37.21.54.32.54.89.39,1.38.45.3.04.57-.06.68-.36.12-.31.19-.64.29-.96Zm-30.09,13.54s0-.05,0-.07c.34,0,.67.01,1.01,0,.41-.02.77-.43.78-.86,0-.54-.26-.88-.73-.9-1-.03-2.01-.06-3.01-.06-.59,0-1.07-.44-1.07-1.03,0-1.01-.32-1.34-1.35-1.33-.77,0-1.55.04-2.32.09-.65.04-1,.82-.66,1.38.26.43.6.59,1.1.51.65-.1.86.1.87.75,0,.31-.01.64.1.91.09.23.33.5.55.54.45.09.93.06,1.39.05.57-.01,1.14-.08,1.71-.08.55,0,1.1.08,1.64.12Zm10.88-55.29c0-.34-.01-.61,0-.87.05-.75-.24-1.07-.99-1.07-1.12,0-1.13-.02-1.2-1.13-.02-.26-.16-.57-.34-.75-.17-.17-.46-.23-.72-.3-.72-.2-1.14.11-1.17.86,0,.13,0,.26.02.39.06.78-.23,1.1-.99,1.11-.26,0-.53,0-.79.01-.32.01-.47.2-.49.5-.06.67.28,1.1.98,1.11.81.02,1.63-.02,2.45-.04.76-.01,1.22.1,1.14,1.01-.06.78.37,1.21,1.14,1.21.54,0,1.07-.45,1.05-.99-.02-.38-.05-.76-.07-1.06Zm-25.01-3.86h.06c-.06-.57-.1-1.14-.21-1.69-.06-.3-.28-.45-.63-.38-.27.05-.55.03-.83.03-.41-.01-.88-.61-.82-1.01.04-.26.1-.52.06-.77-.02-.16-.17-.4-.31-.44-.38-.1-.79-.15-1.18-.16-.39-.01-.53.2-.5.59.02.35.05.7.03,1.06-.02.5-.45.94-.82.9-.27-.03-.55-.06-.82-.05-.47,0-.78.28-.77.65.02.51.43.93.88.91.72-.03,1.43-.07,2.15-.08.38,0,.76.04,1.13.11.11.02.26.19.28.31.06.31.07.64.1.96.04.45.29.7.74.76.07,0,.14.03.21.06.79.27,1.31-.12,1.26-.95-.02-.26,0-.53,0-.79Zm25.18,73.06s.01,0,.02,0c0-.13,0-.26,0-.4-.06-.99-1.08-1.57-1.95-1.1-.06.03-.12.1-.13.16-.05.41-.11.82-.13,1.23-.04.62-.4.95-1.02.92-.25-.01-.5.01-.74.03-.41.03-.67.29-.68.67-.04.96-.03,1.93-.01,2.89,0,.14.15.3.27.41.31.29.7.29,1.1.3.53.01.77-.09.96-.57.08-.2.1-.42.13-.64.05-.39.04-.84.45-1.03.26-.13.58-.16.87-.18.42-.03.88-.41.88-.8,0-.63,0-1.27,0-1.9Zm16.94-16.49v-.03c.35,0,.71-.02,1.06,0,.45.03.8-.16.84-.59.1-.92.13-1.84.15-2.77.01-.73-.04-1.45-.05-2.18,0-.28-.29-.94-.5-.98-.26-.05-.52-.09-.78-.11-.46-.05-.83.15-.99.56-.11.28-.11.61-.11.92,0,.77.05,1.55.06,2.32.01.63-.31.96-.92.97-.25,0-.5.04-.74.06-.51.03-.75.3-.76.86,0,.27.46.78.75.81.66.05,1.32.1,1.99.14Zm-28.69,21.68s.02,0,.03,0c.03.38.07.76.08,1.14.02.75.42,1.15,1.19,1.14.54,0,1.08-.02,1.61-.03.39,0,.8-.09,1.18-.02.78.14,1.54.24,2.3-.12.24-.11.58-.04.57-.45,0-.29,0-.58-.07-.85-.04-.14-.23-.32-.37-.33-.45-.04-.9-.02-1.35-.02-.7,0-1.4.04-2.1.04-.29,0-.49-.18-.54-.48-.09-.47-.2-.94-.28-1.41-.07-.47-.19-.59-.65-.57-.29,0-.58,0-.87.02-.32.03-.55.15-.58.53-.03.48-.1.95-.15,1.42ZM29.58,17.54c.22,0,.32,0,.43,0,.72-.01.88-.13.97-.85.04-.36.01-.73.01-1.1,0-.96-.08-1.93,0-2.88.07-.99-.31-1.45-1.29-1.35-.06,0-.12,0-.18,0-.5.01-.76.28-.8.79-.02.3-.06.61-.12.9-.13.6-.39.75-.98.57-.76-.23-1.08.03-1.01.83.05.63.39.91,1.01.85.8-.09,1.21.33,1.12,1.13-.1.88.09,1.1.85,1.11Zm-4.84,34.85c-.77-.06-1.1.14-1.17.72-.08.64.56,1.16,1.33,1.11.67-.04,1.34-.07,2.01-.08.7,0,1.1-.37,1.13-1.08.01-.22.05-.44.1-.65.18-.65.2-.63.87-.64.5,0,1.05.07,1.3-.61.18-.49-.03-1.07-.55-1.14-.39-.05-.79-.04-1.18-.03-.66.01-1.32.13-1.96.05-.44-.06-.58.08-.66.41-.06.25-.08.52-.07.78.04.83-.36,1.22-1.17,1.15Zm30.94-32.4s0,0,0,0c-.29,0-.59,0-.88,0-.39.01-.94.51-.94.84,0,.49.26.77.8.83.23.03.46.02.69,0,.42-.02.7.15.71.53.04.89,0,1.78.07,2.67.03.35.16.76.38,1.01.35.39.93.36,1.3.11.27-.18.42-.66.46-1.03.08-.62.05-1.26.05-1.89,0-.77-.01-1.55-.05-2.32-.03-.52-.26-.73-.78-.76-.61-.03-1.22,0-1.83,0ZM2.97,41.34c-.19,0-.33.03-.48.02-.15-.01-.29-.06-.43-.08-.42-.06-.84.16-.89.53-.1.75-.16,1.5-.19,2.25,0,.21.11.44.21.65.23.49.71.43,1.14.46.55.04.66.13.74.66.04.25.07.49.11.74.08.53.58.91,1.16.89.46-.02.9-.46.91-.96.02-.63.06-1.26.01-1.89-.03-.34.14-.83-.33-.99-.27-.1-.59-.09-.88-.06-.8.06-1.17-.31-1.09-1.1.04-.36,0-.72,0-1.11Zm3.29,29.4c.17-.14.46-.3.63-.54.11-.15.13-.47.04-.63-.16-.27-.37-.58-.78-.54-.45.04-.89.13-1.34.12-.65-.02-1.31-.09-1.96-.17-.15-.02-.37-.11-.4-.21-.12-.47-.27-.96-.22-1.42.04-.37.02-.52-.35-.57-.11-.01-.22-.07-.33-.1-.63-.18-1.21.27-1.24.91-.02.57-.09,1.13-.19,1.69-.15.82.18,1.34,1.01,1.4.83.06,1.66.05,2.49.06.83,0,1.67,0,2.64,0Zm54.44,7.69s-.05.02-.08.02c.1.37.14.78.33,1.1.22.38.79.5,1.14.35.55-.23.85-.68.83-1.24-.04-1.04.26-1.29,1.28-1.12.01,0,.03,0,.04.01.48.09.98-.2,1.15-.65.18-.46-.31-1.19-.78-1.2-.97-.01-1.94-.03-2.91-.08-.73-.04-.98.15-.99.87-.01.64,0,1.28,0,1.92Zm13.85-33.15c.05.91.19,1.09,1.04,1.33.92.25,1.43-.19,1.33-1.13-.08-.73.31-1.15,1.03-1.1.07,0,.15.02.22,0,.3-.11.7-.15.86-.37.36-.49-.04-1.3-.65-1.39-.45-.07-.91-.06-1.37-.08-.36-.02-.72,0-1.08-.04-.59-.07-1.27.41-1.29.96-.02.61-.05,1.21-.08,1.82Zm.48-12.42s0,.03,0,.04c.38-.02.76-.02,1.14-.07.39-.04.62-.36.61-.77,0-.51.01-1.02,0-1.52-.02-.46-.06-.93-.13-1.39-.01-.11-.13-.24-.23-.29-1.32-.55-2.08.03-1.89,1.45,0,.01,0,.03,0,.04.06.46-.1.64-.57.66-.32.02-.68-.03-.95.1-.28.14-.56.42-.68.71-.14.33.02.74.37.89.35.15.76.19,1.15.21.39.02.78-.04,1.17-.07Zm-5.74,14.43c-1.49-.02-1.72.2-1.72,1.53,0,.52,0,1.05.02,1.57.02.56.58,1.14,1.08,1.12.9-.03,1.23-.31,1.25-1.08,0-.13-.05-.26-.07-.39-.05-.44.23-.91.57-.96.3-.04.61-.07.92-.08.59-.03.78-.25.73-.87-.04-.51-.39-.79-.89-.74-.2.02-.41.03-.61.01-.48-.03-.96-.09-1.29-.12Zm-40.32-.2c1.36.08,1.56-.12,1.55-1.25,0-.42-.02-.86.06-1.27.19-1.02-.05-1.38-1.07-1.48-.83-.08-1.2.29-1.08,1.11.11.75-.52,1.48-1.2,1.29-.14-.04-.29-.03-.44-.02-.47.02-.81.49-.68.95.19.67.52.85,1.29.76.59-.06,1.19-.08,1.57-.1ZM60.78,3.82s-.05,0-.07,0c.05.36.07.73.17,1.07.1.36.26.77.71.79.4.02.86.04,1.09-.39.15-.29.22-.63.28-.95.14-.75.13-.76.89-.87.22-.03.44-.03.66-.04.46-.02.82-.45.79-.96-.03-.61-.37-.92-.91-.88-.77.05-1.54.09-2.32.09-1.01,0-1.49.53-1.34,1.52.03.2.03.41.04.61Zm-28.08,2.89s0,.07,0,.1c-.34,0-.67-.02-1.01,0-.32.03-.54.19-.55.56,0,.88-.01,1.75-.03,2.63,0,.35.14.65.45.71.39.08.81.04,1.22.03.38-.01.59-.19.54-.61-.03-.29,0-.59-.04-.88-.04-.46.09-.65.54-.73.38-.07.75-.15,1.13-.22.39-.07.61-.31.58-.69-.05-.59-.35-.9-.83-.91-.67-.01-1.34,0-2.02,0Zm-8.43,1.3c0-.76-.19-.89-.94-.96-.89-.07-1.79.34-2.66-.12-.01,0-.03,0-.04,0-.2.17-.49.31-.59.53-.14.32-.26.7.04,1.03.05.05.12.1.19.11.37.06.75.14,1.12.15.35,0,.51.16.55.49.04.35.08.7.1,1.05.02.34.2.61.5.64.44.05.89,0,1.34-.04.05,0,.12-.12.14-.2.06-.22.13-.45.14-.68.05-.67.07-1.34.11-2.01Zm-3.33,3.51c-.95-.15-1.14.25-1.12,1.14.02.67,0,1.35-.02,2.02-.01.48-.09.96-.07,1.44.04,1.18.43,1.67,1.62,1.33.11-.03.26-.14.27-.23.07-.38.13-.77.14-1.15.04-.93.06-1.86.08-2.8,0-.44,0-.88-.02-1.31-.02-.32-.18-.52-.55-.45-.1.02-.2,0-.34,0Zm12.27,30.99c.29-.04.54-.1.78-.09.37,0,.54-.19.59-.5.17-.93.27-1.88.09-2.82-.04-.23-.39-.48-.65-.56-.28-.09-.62,0-.73.39-.09.32-.21.64-.23.96-.04.55-.4.92-.95.94-.32,0-.64.06-.95.13-.35.08-.56.47-.49.86.05.3.49.7.76.7.61,0,1.22,0,1.79,0Zm-9.86,20.47c.04-.82-.29-1.15-1.1-1.15-.2,0-.41,0-.61.01-.5.01-.66.2-.66.7,0,.59-.02,1.17-.02,1.76,0,.31,0,.61.03.92.03.37.26.59.62.63.27.03.55-.02.82-.04.61-.03.87-.22.91-.83.04-.67.01-1.34.01-2.01Zm37.39-5.87s.02,0,.03,0c0,.03,0,.06,0,.09-.11.55.16.96.58,1.22.37.23.79.22,1.16-.05.42-.32.42-.76.36-1.23-.04-.26.01-.52.01-.78,0-.37.07-.76-.01-1.12-.07-.29-.24-.64-.48-.78-.67-.42-1.64.05-1.65.95,0,.57,0,1.14,0,1.71Zm-20.46,15.71s0,.02,0,.04c.18,0,.35.01.53,0,.14-.01.28-.07.43-.1.34-.08.48-.3.47-.63-.03-.76-.13-.95-.55-1.04-.38-.08-.75-.15-1.16-.1-.66.08-1.35.03-2.02.01-.37,0-.64.12-.75.47-.27.85.31,1.53,1.18,1.46.62-.05,1.25-.06,1.88-.09Zm39.66-51.48s0,0,0,.01c.28-.02.57,0,.83-.08.21-.07.45-.25.53-.44.35-.88.08-1.27-.85-1.28-.03,0-.06,0-.09,0-.9,0-1.8-.01-2.7,0-.46,0-.93.48-.88.86.07.54.78,1.06,1.34,1.02.61-.05,1.22-.06,1.84-.09Zm-28.53,2.6c.03.36.11.83.12,1.31.01.44.22.81.6.85.43.05.89-.11,1.33-.21.07-.02.13-.24.13-.37,0-.74,0-1.49-.02-2.23,0-.21-.01-.45-.11-.62-.24-.45-.68-.53-1.4-.36-.47.11-.65.4-.63.85,0,.22-.02.44-.03.78Zm29.62,20.94s0-.05,0-.07c-.35.04-.7.08-1.04.11-.56.05-.78.29-.75.85.02.38.47.77.88.77.18,0,.35,0,.53,0,.88,0,1.76.03,2.64,0,.45-.02.7-.44.63-.88-.08-.47-.43-.74-1.02-.76-.62-.01-1.24,0-1.86,0Zm-45.81,9.33c.55-.04,1.02-.06,1.48-.12.44-.06.71-.46.66-.89-.05-.46-.37-.38-.69-.39-.86-.04-1.72-.12-2.5-.55-.4-.22-1.05-.16-1.29.22-.17.27-.21.69-.15,1.03.04.22.32.52.53.56.67.11,1.36.12,1.96.16Zm5.13-43.05c-.79.05-1.34.03-1.87.15-.25.06-.52.34-.62.59-.13.32.21.78.53.85.16.03.34-.03.51-.03.84.02,1.68.09,2.52.03.3-.02.66-.26.86-.51.23-.28-.23-1.05-.61-1.07-.52-.03-1.05,0-1.32,0Zm-22.88,11.03c1.25.14,1.41.09,1.85-.6.31-.49.14-.89-.45-.98-.17-.03-.35,0-.53,0-.73-.01-1.45-.05-2.17-.02-.28.01-.65.13-.79.33-.21.31-.33.73-.08,1.12.05.08.19.15.29.16.63.01,1.26,0,1.89,0ZM50.51,4.31c-.49-.1-.82.14-1.08.54-.24.38-.03.93.42.96.88.05,1.76.05,2.64.05.2,0,.39-.12.59-.15.48-.07.73-.3.72-.71,0-.38-.31-.68-.76-.68-.84-.01-1.68,0-2.52,0ZM10.39,20.77c-.49.03-1.03.04-1.57.12-.18.03-.4.2-.48.36-.25.49.07.96.71,1.01.61.05,1.23.01,1.84.02.24,0,.48.05.72.07.48.04.93-.33.99-.81.05-.48-.17-.73-.76-.77-.46-.03-.93,0-1.45,0Zm21.95,26.96s0,0,0,0c-.15,0-.3-.02-.44,0-.3.06-.62.08-.87.23-.38.23-.37.67-.18.98.14.23.48.44.75.48.57.07,1.17-.03,1.74.02.57.05.93-.26,1.19-.65.12-.17.03-.54-.07-.77-.06-.14-.33-.26-.51-.27-.54-.04-1.08-.01-1.62-.01Zm28.19-10.91c.12.21.22.45.37.63.45.53,1.05.32,1.58.23.19-.03.36-.39.46-.64.07-.16,0-.37-.02-.56-.05-.41-.31-.61-.69-.67-.19-.03-.38-.02-.57-.03-.77-.03-1.03.22-1.13,1.03ZM7.33,58.3c0-.65-.15-.85-.75-.99-.74-.17-1.22-.02-1.44.48-.08.18-.18.41-.15.59.12.59.81.93,1.51.79.62-.13.83-.35.83-.87Zm35.36,26.96c-.48-.09-.8.11-.99.54-.17.4.03.68.29.98.28.31.59.41,1,.41.58,0,.97-.24,1.03-.75.07-.55-.25-1.02-.78-1.12-.19-.03-.38-.04-.57-.06Zm16.86-2.97c.48,0,.92-.37.95-.77.04-.64-.24-1.07-.78-1.1-.39-.03-.8-.01-1.17.09-.14.04-.19.38-.3.58-.21.38,0,.95.43,1.07.29.08.6.1.87.14Zm6.82-44.68c.25-.25.79.19,1.04-.48.37-.98.15-1.42-.87-1.36-.3.02-.62.03-.9.14-.31.12-.52.4-.43.77.12.51.62.92,1.16.92Zm-18.43,23.38s.03.04.04.06c.28-.12.7-.16.81-.36.24-.46.13-.99-.13-1.45-.04-.07-.16-.14-.25-.14-.24-.01-.49.02-.73.02-.47,0-.87.26-.96.65-.14.58,0,.9.54,1.12.2.08.45.07.68.1Zm22.99-18.42c-.72,0-1.04.32-1.08,1.01-.02.47.53.91,1.07.91.77,0,1.19-.38,1.19-1.07,0-.57-.4-.85-1.19-.85Zm.3-2.73c.43.04.82-.13,1.02-.58.16-.35.12-.77-.2-.95-.34-.2-.77-.25-1.17-.3-.18-.02-.43.07-.55.2-.33.35-.4.8-.19,1.22.2.41.63.42,1.09.42ZM1.52,52.23c.78,0,1.12-.21,1.35-.87.18-.5,0-.82-.53-.89-.3-.04-.61-.07-.91-.1-.4-.04-.67.19-.69.59,0,.14.01.29,0,.44-.04.54.23.82.78.83ZM43.09,3.87l.06-.08c.29-.02.58-.09.87-.06.43.04.52-.3.6-.56.07-.25.08-.61-.05-.8-.38-.55-1.52-.53-1.96-.01-.31.37-.12.76,0,1.12.06.17.32.27.49.4Zm-14.6,74.37s-.01-.07-.02-.1c-.16.06-.35.07-.46.18-.34.32-.26,1.03.08,1.34.49.45,1.05.38,1.55.14.26-.12.56-.58.51-.8-.07-.3-.44-.59-.75-.74-.25-.12-.6-.02-.9-.02Zm42.77-54.05c-.27.04-.55.06-.82.13-.42.1-.72.68-.55,1.02.25.49,1.46.82,1.93.52.04-.02.06-.06.09-.09.37-.31.37-.68.21-1.11-.16-.44-.51-.43-.86-.47Zm-25.78,50.96c.56,0,1-.41,1.01-.94,0-.63-.5-.97-1.45-.99-.34,0-.71.55-.71,1.09,0,.59.34.84,1.15.85Zm-19.47-31.07c0-.66-.19-.86-.86-.84-.17,0-.36-.04-.52.02-.28.1-.61.18-.8.39-.21.23-.04.91.14,1.1.36.38.79.17,1.2.17.71,0,.84-.14.85-.84Zm45.09-10.72s-.04.07-.05.11c-.09,0-.18.01-.26,0-.47-.06-.75.2-.89.59-.14.38.05.74.38.89.34.15.74.18,1.12.19.52.02.96-.49.9-1-.01-.11-.09-.27-.18-.31-.33-.17-.68-.31-1.02-.46Zm-49.19,25.47c.31-.03.63.02.86-.09.27-.13.57-.36.69-.62.15-.31-.01-.67-.36-.79-.33-.12-.69-.15-1.04-.2-.49-.07-.93.27-.95.72-.03.62.29,1,.79.99Zm49.21-37.35c.66.02.98-.26,1.04-.82.06-.47-.16-.74-.73-.85-.23-.04-.46-.07-.69-.09-.4-.03-.82.27-.87.59-.08.54.2,1,.68,1.09.23.04.46.05.58.07Zm-47.4,27.19c-.03.38.15.68.49.84.17.08.4,0,.58.06.41.13.77-.06.91-.34.16-.32.11-.75.13-1.13,0-.06-.13-.14-.21-.18-.14-.06-.3-.09-.45-.14-.59-.2-1.57.25-1.45.9ZM43.39,15.56c-.25.06-.56.05-.72.2-.34.3-.34.74-.2,1.15.12.36.42.47.77.44.29-.02.59-.04.87-.11.49-.12.66-.74.37-1.16-.27-.39-.63-.49-1.08-.51Zm-1.01,5.39c-.02.78.26,1.03,1.04.93.12-.02.23-.04.35-.03.61.05.86-.43.8-.89-.06-.48-.5-.81-1-.75-.13.02-.26.03-.39.03-.65-.02-.78.09-.8.72ZM3.8,66.04c.41.04.73-.2.81-.52.08-.34-.05-.74-.09-1.11,0,0-.02-.02-.04-.02-.47-.07-.93-.14-1.4-.2-.05,0-.1.06-.15.08-.32.11-.32.41-.39.67-.14.48.15.96.64,1.05.2.03.41.04.61.06ZM71.02,30.58c.22-.02.48,0,.7-.08.19-.07.43-.24.46-.4.09-.41.04-.89-.36-1.08-.36-.18-.83-.27-1.23-.21-.39.06-.62.7-.52,1.13.09.43.39.64.94.64ZM54.92,3.61c.68.02,1.09-.28,1.1-.79.01-.59-.38-1.05-.91-1.06-.8,0-1.17.3-1.18.98-.01.68.17.84.99.86ZM9.07,81.49c-.04-.06-.1-.3-.23-.35-.35-.14-.73-.22-1.1-.29-.45-.08-.65.25-.81.58-.16.32-.16.63.1.93.36.41.8.16,1.2.16.43,0,.84-.48.85-1.03Zm59.71-39.46c.2,0,.35.01.49,0,.51-.05.83-.79.53-1.21-.32-.44-1.19-.65-1.67-.39-.61.33-.67.83-.28,1.28.28.32.6.38.94.32ZM59.46,6.22c-.49.02-.86.33-1,.84-.13.49.1.81.6.88.13.02.25.07.37.11.39.13,1.02-.19,1.13-.6.13-.5.13-.97-.51-1.08-.2-.03-.39-.1-.59-.14Zm9.13,17.56c.75.02,1.21-.51,1.1-1.25-.06-.36-.2-.55-.6-.51-.15.02-.31-.07-.47-.09-.12-.02-.27-.06-.37-.02-.5.19-.72.57-.63,1.06.1.53.43.8.98.81Zm4.96,18.23c.38.02.87-.09.97-.56.07-.3-.19-.69-.34-1.02-.04-.09-.23-.16-.36-.17-.3,0-.61.04-.91.07-.45.04-.73.51-.58.93.15.4.7.77,1.22.74Zm-50.69,5.16c.6,0,.83-.29.81-.89-.02-.51-.31-.78-.8-.75-.22.01-.44,0-.66,0-.68,0-.97.51-.61,1.1.31.49.74.73,1.25.53Zm1-7.77c-.14-.25-.22-.43-.34-.59-.32-.42-.79-.19-1.19-.23-.37-.03-.56.19-.67.52-.13.41-.01.81.27,1.05.43.36.98.17,1.42,0,.23-.09.34-.48.51-.74Zm26.62-19.45c-.3.1-.63.13-.88.3-.37.25-.37.71-.24,1.07.15.4.61.47.97.43.33-.03.8-.15.95-.39.42-.66.02-1.43-.8-1.42Zm-.4,6.85c-.43,0-.92.41-.92.77,0,.61.47,1.07,1.09,1.07.56,0,1.1-.55,1.09-1.12,0-.45-.48-.72-1.26-.72Zm-13.59,6.48c.11,0,.21-.02.31-.03.42-.04.68-.29.75-.68.08-.4-.13-.74-.48-.84-.37-.11-.8-.1-1.19-.05-.46.06-.6.49-.53.83.05.26.35.5.58.68.13.1.37.06.55.09Zm34.73,18.68c-.19.02-.39,0-.56.06-.22.07-.54.16-.59.31-.12.37-.11.82.26,1.08.23.16.56.25.84.26.66.02.96-.33.96-1.02,0-.57-.12-.65-.91-.68Zm-50.76-13.83c.58,0,.93-.32.93-.86,0-.51-.47-.98-.99-.97-.69,0-1.12.4-1.1,1.02.01.53.42.81,1.16.81Zm52.93-11.7s-.03.06-.04.1c-.09,0-.18,0-.26,0-.61.02-.93.47-.74,1.05.17.53,1.07.86,1.59.58.52-.27.73-.94.36-1.34-.21-.22-.6-.27-.9-.39Zm-28.3,58.21c.19,0,.28,0,.37,0,.44-.02.92-.59.89-1.04-.04-.5-.46-.78-1.02-.7-.2.03-.41.05-.61.09-.49.11-.76.59-.52.98.22.35.46.74.89.66Zm23.68-53.53c-.5-.04-1.04.42-1.09.89-.04.42.21.67.76.78.08.02.17.05.25.08.39.15.8.02,1-.31.19-.3.1-.95-.19-1.14-.23-.15-.51-.22-.72-.3Zm-11.48-25.39q.8.01.93-.27c.32-.71-.06-1.26-.85-1.24-.14,0-.29-.01-.42-.05-.42-.12-.58.18-.74.45-.15.26-.12.52.12.75.3.3.6.51.97.36Zm-25.82,53.1c.19-.05.45-.09.69-.19.38-.16.49-.84.28-1.19-.3-.5-.73-.32-1.13-.29-.56.05-.87.47-.83,1.07.02.26.55.6.99.6ZM48.39,6.49s-.03.05-.05.08c-.16.02-.32.04-.48.06-.47.04-.89.49-.79.91.06.23.24.46.43.63.07.06.3-.05.46-.08.07-.01.15-.01.21.02.34.17.66.02.82-.22.16-.24.3-.66.19-.88-.12-.24-.52-.35-.8-.52Zm-14.38,27.44c-.63.04-.99.35-.96.85.03.46.54.89,1.04.87.42-.02,1.08-.71,1.05-1.08-.04-.45-.44-.68-1.13-.64Zm38.3-10.98c0,.62.22.82.89.82.67,0,1.12-.36,1.11-.89,0-.5-.4-.78-1.15-.78-.56,0-.86.3-.86.85ZM4.29,40.5c.36.07.69-.11.95-.42.2-.23.25-.47.1-.77-.14-.28-.34-.3-.62-.25-.17.03-.37-.04-.54-.1-.4-.14-.73.01-.87.42-.23.71.09,1.1.98,1.12Zm43.77-14.27c.15,0,.29,0,.44,0,.39,0,.51-.32.55-.58.04-.23-.03-.58-.19-.73-.36-.35-1.32-.26-1.67.11-.07.08-.12.2-.13.31-.08.57.28.88,1.01.9Zm-9.26,4.84c.26-.1.6-.18.86-.37.15-.11.23-.42.2-.63-.05-.42-.75-.85-1.17-.79-.59.09-.77.34-.73,1.02.03.45.35.77.84.77ZM1.3,63.61c.12-.02.32-.06.53-.07.4,0,.58-.24.64-.59.07-.39-.12-.66-.49-.77-.4-.12-.79-.18-1.18.13-.32.25-.34.52-.24.84.1.31.31.49.74.46Zm.83-25.36c.12,0,.23,0,.35-.03.5-.09.75-.5.47-.91-.18-.26-.48-.48-.78-.59-.4-.15-.92.12-1,.4-.18.63.29,1.17.96,1.12Zm38.11,1.83s-.19.09-.22.18c-.03.12,0,.31.08.39.16.15.37.27.58.34.06.02.29-.25.27-.29-.16-.25-.2-.64-.71-.63Z"/>
  <path class="cls-2" d="m0,79.28c.3-.76.39-.81,1.25-.73.54.05,1.04-.37,1.04-.91,0-.53-.05-1.05-.04-1.58.02-.58.05-1.16.15-1.73.09-.51.73-.74,1.52-.68.68.05,1.36.07,2.04.06.67-.01.91.3.88.96-.02.43.17.88.28,1.31,0,.03.07.07.1.07.46-.02.94,0,1.39-.09.21-.05.49-.33.51-.53.07-.66.06-1.34.02-2,0-.12-.27-.3-.43-.33-.34-.07-.7-.07-1.05-.08-.41-.01-.69-.29-.71-.72-.03-.49.24-.91.63-.95.33-.03.67-.03,1-.04.41,0,.83-.46.8-.87-.02-.34-.04-.67-.05-1.01-.03-.76-.48-1.16-1.22-1.06-.62.08-.97-.22-.98-.84-.01-1.05-.04-2.1-.05-3.15,0-.38-.16-.6-.59-.6-.32,0-.68.02-.95-.12-.54-.28-.65-.93-.31-1.45.07-.1.23-.21.35-.21,1.12-.02,2.24-.03,3.36,0,.48,0,.56.16.52.65-.01.13-.02.26-.02.4,0,.98.17,1.16,1.12,1.15.15,0,.29,0,.44,0,.52.03.63.14.65.67.02.38.05.76.05,1.14,0,.3.12.41.42.49.8.19,1.59.08,2.39,0,.44-.04.88,0,1.32-.02.48-.03.62-.24.6-.72-.02-.58.03-1.17.02-1.76-.01-.71-.04-1.43-.09-2.14-.02-.29-.57-.64-.89-.62-.2.01-.41.05-.61.05-.56,0-.66.08-.8.65-.12.49-.11,1.02-.5,1.43-.31.33-.77.45-1.32.27-.41-.14-.44-.5-.44-.83,0-.92.03-1.83.08-2.75.04-.71-.08-1.04-1.03-1.13-.15-.01-.29-.01-.44,0-.52.02-.66-.12-.63-.66.04-.75.43-1.05,1.17-1.02.67.03,1.34.08,2.01-.05.16-.03.34.06.51.12.37.11.66-.04.71-.38.1-.76.14-1.54.15-2.31,0-.33-.54-.59-.94-.55-.61.06-1.22.12-1.83.15-.77.04-1.55.09-2.32.08-.43,0-.87-.07-1.28-.2-.52-.17-.49-.7-.52-1.11-.06-.67-.14-.81-.83-.91-.22-.03-.44-.07-.65-.08-.31-.02-.52-.13-.62-.45-.11-.37-.07-.69.19-.98.22-.25.47-.19.76-.14.35.06.72.04,1.08.03.72-.02,1.43-.08,2.15-.1.61-.02,1.23-.02,1.85,0,.5.01.6.14.63.64.01.2.05.41.07.61.05.84.27,1.02,1.12.92.17-.02.35-.07.52-.09.73-.06.76-.1.77-.82.01-1.01.05-2.01.08-3.02,0-.32.35-.6.72-.64.4-.04.82-.07,1.2-.19.17-.05.36-.32.37-.51.05-.62.03-1.24.02-1.86,0-.7,0-1.4-.01-2.1-.01-.5-.3-.73-.8-.69-1.24.12-1.34.04-1.39-1.17-.03-.78-.19-.96-.96-1.04-.21-.02-.44-.02-.65.02-.61.13-1.03.78-.93,1.4.04.24.06.49.06.74,0,.56.21.73.78.71.4-.02.81.03,1.21.09.11.02.26.17.28.28.19,1.01.17,2.03-.04,3.04-.02.11-.08.23-.16.3-.26.25-1.46.31-1.77.12-.28-.17-.38-.43-.39-.74,0-.23.02-.47,0-.7-.03-.45-.25-.64-.69-.62-.85.03-1.69.06-2.54.08-.62.01-1.13-.36-1.17-.83-.04-.49.45-.97.94-.93.88.08,1.22-.05,1.37-.66.1-.4.06-.84.07-1.26.02-.64.04-1.28.06-1.92.03-1.03-.25-1.14-1.25-1.27-.42-.06-.82-.11-.97-.53-.1-.28-.09-.63-.04-.93.12-.69-.02-.9-.69-.9-1.05,0-2.09,0-3.14,0-.56,0-.76-.22-.75-.79,0-.26.04-.53,0-.79-.1-.59-.35-.78-.94-.72-.36.04-.65-.07-.82-.37-.33-.57-.11-.93.54-.96.28-.01.56,0,.83-.06.14-.03.34-.17.36-.29.08-.38.09-.78.12-1.17.04-.59.1-1.18.11-1.77.01-.52-.03-1.05-.05-1.57-.01-.3-.21-.43-.48-.48-.24-.04-.48-.1-.73-.12-.46-.04-.8-.36-.79-.78,0-.49.23-.69.79-.69.09,0,.18-.02.26-.02.89.02,1.35-.47,1.31-1.38-.03-.77.41-1.1,1.15-.86.08.03.17.05.26.05.44.02.55.29.56.68,0,.35.04.7.12,1.04.08.33.28.5.68.4.31-.07.65-.05.97,0,.36.06.48.38.48.7,0,.31-.07.62-.48.68-.35.04-.69.12-1.04.14-.61.05-.94.75-.96,1.2,0,.28.03.55.03.83,0,.69.37,1.03,1.05,1.01.52-.02,1.05,0,1.58-.02.52-.01,1.03-.03,1.55-.06.41-.02.8-.53.78-.98,0-.18-.03-.35-.03-.53,0-.86.69-.99,1.19-.68.39.24.58.08.65-.24.12-.55.17-1.11.22-1.67.07-.8.06-1.61.18-2.41.03-.2.43-.44.69-.48.32-.05.68.07,1.01.16.38.11.61.35.56.81-.04.33-.03.68.02,1.01.02.13.22.31.35.32.49.03.99.01,1.48-.01.79-.04,1.58-.14,2.33.16.17.07.27.49.27.75,0,.57-.1,1.14-.12,1.72-.01.41.04.82.06,1.23.01.31.16.51.45.64.74.32,1.3.22,1.76-.35.08-.1.14-.23.15-.35.03-.82.03-1.63.06-2.45.01-.34.03-.68.1-1,.08-.37.77-.56,1.2-.37.09.04.2.13.27.11.54-.2.49.19.52.51.02.34.03.67.08,1.01.04.35.24.55.61.55.95,0,1.91,0,2.86.01.19,0,.39,0,.57.06.29.1.46.26.43.64-.06.65-.02,1.31-.03,1.97,0,.25,0,.5-.02.74-.03.35-.28.53-.59.54-.7.04-1.4.03-2.11.04-.76.01-1.52.03-2.28.04-.25,0-.5.03-.75-.02-.71-.13-.89.14-1.02.9-.04.24-.02.5-.05.74-.06.49-.31.73-.81.74-.28,0-.56-.03-.83-.05-.47-.02-.58.12-.6.58-.01.36-.02.75-.16,1.06-.09.21-.39.37-.63.47-.39.17-.82.32-1.18-.07-.13-.14-.23-.33-.27-.51-.07-.36-.05-.73-.13-1.09-.03-.14-.21-.32-.36-.36-.35-.09-.72-.16-1.07-.14-.41.02-.54-.26-.57-.53-.04-.28-.02-.66.14-.84.16-.18.53-.21.82-.25.14-.02.29.13.45.16.28.05.51-.03.57-.34.08-.37.19-.74.19-1.11.01-.79-.04-1.58-.05-2.37,0-.2.04-.41.09-.6.11-.42-.19-.84-.62-.85-.31,0-.62,0-.92-.02-.55-.04-.87.34-.89.97,0,.22-.02.44-.07.65-.08.36-.25.6-.69.57-.33-.02-.68.02-1,.09-.14.03-.29.18-.36.32-.34.66-.29,1.38-.28,2.09.01,1.12-.02,2.25-.03,3.37,0,.38-.02.77.05,1.14.06.32.21.56.66.51.93-.09,1.86-.13,2.79-.14.87,0,1.11.35,1.05,1.21-.06.92-.05,1.85-.03,2.77.01.51.55.81,1.1.7.88-.17,1.01-.3,1.07.77.08,1.37.02,2.74,0,4.11-.01,1.19-.05,2.37-.08,3.56-.01.62.23.85.85.82.4-.02.82-.12,1.15.23.24.25.33.5.2.83-.06.15-.09.31-.09.47.03,1.26.07,2.51.09,3.77.01.62-.41,1.04-1.03,1.05-.86.01-1.24-.29-1.26-.99-.01-.45.05-.92-.32-1.28-.05-.05-.1-.15-.15-.15-.49,0-1.01-.06-1.47.08-.4.12-.42.58-.39.98.02.31-.02.62,0,.92.04.66.41.98,1.07.94.88-.06,1.1.12,1.2.98.04.29.08.58.1.87.01.33.19.49.49.51.29.02.59,0,.88.03.21.03.49.08.59.23.17.27.31.62.08.95-.28.4-.66.63-1.15.55-.62-.11-.98.04-1.02.88-.07,1.23-.07,2.47-.1,3.7,0,.4.19.55.58.52.15-.01.29-.02.44-.02,1.07-.01,1.05.06,1.16,1.14.08.73.08,1.49-.02,2.23-.15,1.23,0,2.44,0,3.66,0,.57-.04,1.13-.07,1.7-.03.48.41.93.9.89.23-.02.47-.02.7-.03.41-.02.67.13.71.58.06.6-.14,1.08-.56,1.14-.6.08-1.22.12-1.83.12-.43,0-.86-.1-1.29-.13-.57-.05-1.08.38-1.08.94,0,.54.03,1.08.07,1.62.02.27.15.39.46.38.6-.01,1.21.06,1.82.08.53.02,1.06.05,1.58,0,.45-.05.79-.33.85-.82.04-.32.07-.64.05-.96-.03-.46.24-.63.62-.7.3-.05.61-.07.92-.09.43-.02.78.3.75.73-.06.99-.12,1.98-.22,2.97-.08.76.3,1.21,1.06,1.19,1.02-.03,2.04-.05,3.07-.07.64-.01.7-.15.69-.78,0-.41.09-.85.25-1.23.12-.29.41-.48.8-.34.2.08.43.09.65.09.27,0,.46-.11.52-.42.18-1.03.37-2.05.13-3.09-.04-.19.02-.41.04-.61.07-.58.17-.67.75-.67.48,0,.95,0,1.44,0,.06-.54.14-.97.15-1.4.02-.93.23-1.15,1.16-1.11.06,0,.12.02.17.03.96.14,1.11.32,1.05,1.28-.05.89.3,1.24,1.19,1.2.66-.03.93.25.95.91.01.44-.11.98.43,1.18.55.21,1.14.33,1.69,0,.15-.09.27-.31.31-.48.08-.38.1-.78.15-1.18.07-.58.35-.74.91-.54.11.04.22.08.33.08.62-.01,1.18.74,1.08,1.34-.1.58-.13,1.18-.09,1.77.03.57-.24.98-.81,1-1.1.04-2.19.06-3.29.07-.62,0-1.24-.02-1.87-.01-.64,0-1.14-.24-1.08-.95.02-.23-.05-.46-.06-.7,0-.38-.22-.56-.56-.62-.16-.03-.32-.02-.48-.03-1.12-.04-1.27.11-1.27,1.24,0,.21-.03.43-.06.64-.1.57.31.98.89.95.41-.02.86-.01,1.24.14.18.07.22.5.29.78.03.15-.04.32-.04.48-.02.73.44,1.12,1.15,1.01.57-.09,1.01.2,1.05.77.05.83.08,1.66.05,2.49-.03.7-.91,1.18-1.56.89-.4-.17-.71-.4-.62-.92.03-.18-.03-.38-.05-.57-.06-.6-.08-.63-.7-.69-.39-.04-.77-.08-1.16-.05-.15.01-.36.18-.41.33-.1.32-.16.66-.16.99,0,.49-.19.84-.69.89-.81.09-1.63.14-2.45.15-1.02.02-2.03,0-3.05-.02-.4,0-.61-.27-.7-.61-.08-.31-.11-.63-.14-.96-.04-.49-.23-.68-.71-.67-.15,0-.32.02-.43-.05-.44-.29-.7.07-1,.26-.06.04-.07.18-.08.27-.02.2,0,.41-.04.61-.17,1.04-.6,1.35-1.65,1.16-.39-.07-.57-.37-.6-.76-.03-.33-.06-.67-.13-1-.08-.33-.3-.51-.67-.51-.27,0-.56-.02-.82-.1-.72-.22-.74-.87-.8-1.45-.09-.8-.3-1.01-1.09-.88-.06,0-.12.02-.17.03-.35.06-.82-.17-.96.37-.09.36-.16.73-.16,1.1,0,.44-.19.8-.61.88-.3.06-.61.07-.91.1-.1,0-.23-.05-.3,0-.17.11-.4.23-.45.4-.1.41-.12.83-.16,1.26-.03.4-.28.57-.63.59-1.27.07-2.54.13-3.81.18-.57.02-1.14.01-1.71.01-.43,0-.66-.29-.83-.62-.16-.32-.03-.57.16-.88.37-.59.92-.43,1.41-.44.78-.02,1.57.06,2.35.08.56.01.88-.28.88-.85,0-.8-.03-1.6-.04-2.4,0-.49.04-.98.02-1.47-.01-.34-.15-.57-.58-.52-.28.03-.58-.06-.87-.09-.5-.04-.77-.87-.68-1.26.1-.43.04-.78-.34-1.03-.08-.05-.19-.1-.28-.1-.54.02-1.08.09-1.62.09-.6,0-1.21-.07-1.81-.1-.38-.01-.76,0-1.14.01-.45.01-.91.03-1.36.04-.39,0-.5.32-.54.59-.07.49-.07.99-.09,1.49-.03.65-.06,1.3-.1,1.95-.03.43,0,.83.4,1.1.11.08.24.16.36.16.31.02.62.01.92,0,.39-.02.71.21.7.59-.01.51.11,1.02-.09,1.55-.11.3.01.69.01,1.03,0,.65-.42,1.07-1.07,1.06-.73-.02-1.46-.08-2.19-.08-.77,0-1.54.06-2.32.07-.32,0-.63-.05-.95-.08,0-.47,0-.94,0-1.41.34-.07.67-.16,1.01-.19.66-.05,1.08-.53,1.05-1.19-.03-.59-.03-1.19-.04-1.79-.01-.44-.1-.89-.03-1.31.16-.88-.05-1.19-.94-1.26-.4-.03-.88,0-1.06-.52v-.35Zm17.39-3.39c.65.05.85-.04.96-.6.11-.57.12-1.16.14-1.74.02-.49-.12-1.01-.01-1.48.24-.99.02-1.98.09-2.96.04-.53-.34-.82-.87-.81-1.06.02-2.12.04-3.18.05-.77.01-1.55,0-2.32.04-.14,0-.37.16-.4.29-.11.45-.17.91-.2,1.37-.03.45.01.9,0,1.35-.01.71-.04,1.42-.07,2.13,0,.16-.02.32-.03.48-.01.53-.06,1.06,0,1.58.02.17.27.42.45.44.38.06.78,0,1.17-.01,1.42-.04,2.84-.09,4.26-.13ZM6.86,31.44s0-.05,0-.07c-.17.02-.35.06-.52.05-.41-.02-.61.24-.67.56-.08.48-.11.98-.07,1.46.06.84.26.98,1.08.98.67,0,1.34.06,2,.02.4-.02.8-.15,1.19-.26.09-.03.19-.16.21-.26.1-.5.23-1,.25-1.51.03-.61-.52-1.17-1.04-1.14-.81.05-1.63.1-2.44.15Z"/>
  <path class="cls-1" d="m0,79.63c.18.51.66.49,1.06.52.89.07,1.1.37.94,1.26-.08.42.01.87.03,1.31.01.6.01,1.19.04,1.79.03.66-.4,1.14-1.05,1.19-.34.03-.68.12-1.01.19,0-2.08,0-4.17,0-6.25Z"/>
  <path class="cls-2" d="m60.34,47.51c.65-.04,1.19-.08,1.73-.12.5-.03.86-.41.84-.92-.02-.51,0-1.03-.09-1.53-.03-.17-.3-.33-.49-.44-.13-.07-.31-.06-.47-.07-.65-.01-1.05-.34-1.09-.99-.04-.74-.04-1.49,0-2.24.03-.64,1.03-1.06,1.56-.7.39.26.66.54.58,1.07-.03.22.02.49.13.68.1.18.32.39.5.41.73.06,1.46.04,2.19.05.39,0,.79,0,1.18.02.26.02.64.57.63.87,0,.37-.31.73-.65.78-.29.04-.58.08-.87.1-.44.03-.67.31-.73.69-.06.35-.03.72-.03,1.09,0,.43,0,.87.01,1.3,0,.23.07.46.07.69-.02.69-.07,1.38-.07,2.07,0,.41.03.82.11,1.22.07.35.28.61.71.54.13-.02.26-.01.4-.02.83-.06,1.05.18,1.03,1.03-.02.7,0,1.4.04,2.1.03.59-.37.97-.95.87-.23-.04-.49-.02-.68-.13-.33-.2-.59-.47-.6-.91,0-.26-.08-.52-.13-.78-.09-.39-.36-.51-.73-.47-.1.01-.2.02-.3.04-.82.09-1.16-.13-1.28-1.19,0-.03,0-.06,0-.09-.12-1.12-.13-1.12-1.26-1.09-.5.02-.84-.25-.92-.72-.05-.32-.08-.64-.11-.96-.04-.37-.27-.55-.62-.56-1.07-.04-2.15-.08-3.22-.15-.4-.03-.6-.31-.63-.72-.07-1.17-.81-1.71-1.97-1.44-.32.07-.58.51-.6.98-.03.62-.08,1.24-.09,1.86,0,.54.01,1.07.06,1.61.04.48.31.79.81.83.6.06,1.2.04,1.8.06.54.02,1.08-.01,1.6.09.2.04.46.37.49.59.08.8.14,1.61.08,2.4-.05.65-.52.86-1.42.8-.52-.04-.74-.32-.83-.95-.06-.38.06-.85-.39-1.1-.13-.07-.29-.16-.43-.16-1.14.02-2.28.04-3.42.08-.32.01-.51.17-.51.53,0,.46-.04.93-.05,1.39,0,.36.4.81.77.82.36.01.73-.02,1.1-.01.67,0,1.33.01,2,.03.34,0,.76.5.76.87,0,.49-.32.92-.73.93-1.08.03-2.16.06-3.24.07-.65,0-1.3-.04-1.95-.05-.61,0-.91-.3-.94-.93-.01-.28-.04-.55-.07-.83-.03-.36-.27-.51-.59-.53-.69-.03-1.39-.05-2.09-.07-.39,0-.79,0-1.18,0-.43,0-.66.26-.72.63-.07.4-.07.81-.07,1.22-.02.8-.03,1.59-.03,2.39,0,.89.02,1.78.03,2.67,0,.61.33,1.03,1.05.95.92-.1,1.84-.11,2.76-.14.48-.02.65.16.74.68.07.41-.13.81-.51.91-.25.07-.52.09-.78.1-.88.05-1.08.24-1,1.1.05.51-.15.83-.58,1.01-.22.1-.48.13-.73.14-.82.04-1.65.05-2.48.08-.45.01-.76-.26-.83-.72-.07-.44.04-.93-.35-1.27-.12-.1-.27-.18-.42-.21-.24-.05-.5-.02-.74-.06-.5-.09-.7-.4-.65-1.02.03-.39.33-.66.76-.67.2,0,.41.02.62.02.53,0,.84-.32.83-.85-.01-.57-.02-1.14-.04-1.71-.01-.29-.16-.44-.47-.45-.36-.01-.72-.06-1.08-.11-.4-.06-.57-.33-.61-.7-.04-.33-.06-.67-.09-1.01-.05-.47-.23-.59-.69-.57-.95.05-1.9.09-2.85.09-.45,0-.8-.25-1.02-.65-.25-.47.27-1.17.88-1.17.27,0,.55.11.82.1,1.24-.02,2.48-.06,3.71-.09.14,0,.29.01.43.05.46.14.69.07.9-.36.38-.77.37-1.59.12-2.39-.06-.18-.46-.29-.73-.36-.19-.05-.41.03-.61.03-.41,0-.66-.22-.68-.59-.02-.43.28-.52.6-.54.48-.03.96-.02,1.44-.01.8,0,1.6.04,2.4.03.26,0,.52-.09.77-.13.94-.15,1.27.1,1.41,1.05.08.51.34.73.89.74.09,0,.17.02.26.04.79.23,1.23-.04,1.34-.83.09-.63.33-1.18,1.21-1.09.25.03.5.01.75,0,.56-.04.89-.33.89-.89.02-1.68,0-3.36,0-5.05,0-.73.45-1.39,1.12-1.54.84-.19.68-.23.78-.94.08-.62,0-1.25,0-1.88,0-.29-.02-.59.02-.87.1-.69.38-.89,1.08-.84.93.07,1.29-.27,1.26-1.23-.01-.4-.06-.8-.18-1.18-.12-.4-.5-.52-.88-.53-.35,0-.7.03-1.05.11-.32.07-.47.33-.48.65,0,.19.02.38.02.57,0,.67-.15.83-.8.88-.48.04-.82-.41-.75-.89.05-.33,0-.68-.03-1.02-.06-.5-.18-.98.08-1.48.19-.38.45-.58.88-.61.63-.04.65-.1.8-.72.13-.55.17-1.05-.18-1.55-.21-.3-.46-.44-.8-.45-1.02-.01-2.04-.02-3.06-.03-.49,0-.65.14-.7.63,0,.06,0,.12,0,.18-.02.79-.11.91-.66.97-.8.08-1.27-.2-1.42-.84-.21-.92-.49-1.1-1.44-.95-.56.09-.86-.16-.91-.72-.03-.33-.07-.68-.19-.99-.06-.15-.27-.28-.44-.34-.23-.08-.48-.1-.72-.11-.8-.02-.94-.55-.97-1.34-.03-.83-.03-1.66-.09-2.49-.04-.55-.28-.75-.83-.75-.7,0-1.4.07-2.1.07-.37,0-.75-.06-1.12-.13-.1-.02-.22-.16-.27-.27-.22-.55.15-1.22.74-1.25,1.4-.06,2.81-.09,4.21-.1.38,0,.75.1,1.13.19.43.09.53.36.55.78.02.41.16.82.28,1.22.02.08.18.14.28.16.16.03.32,0,.48.03.27.03.67-.01.77.14.24.36.38.8.48,1.23.06.27-.05.58-.05.87,0,.57-.04,1.14.03,1.7.04.38.38.54.75.53,1.05-.04,2.1-.12,3.16-.14.59-.01,1.19.07,1.78.06.51,0,1.07-.01,1.33-.56.13-.29.12-.64.16-.97.06-.56.18-.73.75-.75.93-.03,1.87,0,2.81.03.39.02.68.35.66.65-.03.43-.31.72-.73.76-.23.02-.47.05-.69.1-.63.15-.87.65-.75,1.53.02.14.06.29.06.43.05.86.14.92.98.95.37.01.83.06,1.06.29.21.2.19.67.24,1.02.04.27.02.56.02.83,0,.47-.01.93,0,1.4,0,1.81.02,3.62.02,5.43,0,1.08-.06,2.15-.07,3.23,0,.36.04.73.08,1.09.03.31.24.47.53.5.52.05,1.05.09,1.47.12Z"/>
  <path class="cls-2" d="m62.85,64.71c.05.37.1.75.16,1.12.04.22.13.36.41.33.33-.03.67,0,1,.03.42.03.54.36.62.69.07.3.08.61.08.92,0,.68-.03,1.36-.05,2.03,0,.09-.07.23-.13.25-.41.13-.82.31-1.24.33-.56.02-.91.37-.85.94.03.29-.02.61-.09.9-.08.31-.33.46-.67.46-1.05-.02-2.1-.03-3.15-.06-.4,0-.67.34-.66.74.01.61-.05,1.23-.07,1.84-.02.45-.04.91-.03,1.36.01.55-.26.92-.84.96-.83.06-1.66.07-2.49.08-.27,0-.59-.02-.82-.15-.51-.29-.61-1.08-.19-1.5.14-.14.4-.23.6-.22.47.03.88-.02,1.17-.42.1-.14.2-.31.2-.46.03-.93.04-1.86.03-2.79,0-.36-.07-.72-.14-1.08-.08-.42-.41-.53-.78-.56-.13,0-.26.02-.39.03-.24,0-.62-.08-.69.03-.18.29-.3.67-.31,1.01-.02.5-.31,1.08-.78,1.28-.07.03-.15.06-.21.04-1.01-.3-2.03.11-3.04-.02-.43-.05-.87.07-1.3.04-.38-.03-.77-.14-1.13-.28-.3-.12-.56-.79-.48-1.06.08-.28.69-.66,1.04-.61,1.04.16,1.27.03,1.36-1.23.04-.63.4-1.03,1.04-1.09.38-.03.77.03,1.16.04.52,0,1.05,0,1.57,0,1.33-.03,2.66-.06,3.99-.09.22,0,.44.02.66,0,.47-.04.79-.39.84-.86.04-.39.12-.77.17-1.16.03-.3.22-.39.48-.4.37-.02.73-.05,1.1-.04.33,0,.52-.18.55-.45.06-.52.09-1.04.08-1.56,0-.34-.44-.74-.78-.79-.22-.03-.44-.05-.66-.07-.73-.08-1.15-.93-.71-1.5.14-.17.49-.23.76-.24.82-.04,1.65-.14,2.44,0,.92.16,1.82.04,2.73.05.66.01,1.01-.42.92-1.08-.09-.66.13-1.27.57-1.37.39-.08.81-.06,1.21,0,.13.02.25.27.31.44.1.3.18.62.22.93.07.54.32.79.83.94.79.24,1.57.03,2.36.04.36,0,.73-.04,1.09-.06.3-.01.42-.17.41-.45-.03-.69-.03-1.38-.1-2.06-.04-.43-.43-.46-.74-.46-.55,0-1.11.1-1.66.11-.62.02-1.26.17-1.81-.29-.39-.33-.5-.92-.2-1.34.05-.08.15-.17.23-.17.65-.02,1.31-.02,1.96-.03.69,0,1.41.15,2.04-.28.12-.08.23-.23.26-.37.08-.34.15-.68.16-1.03.02-.41.29-.55.61-.63.23-.05.46-.06.7-.07.63,0,.98-.43.91-1.06-.03-.22-.04-.48.04-.68.27-.67.66-.75,1.44-.68.56.05,1.13.07,1.69.1.01,0,.03,0,.04,0,.94-.14,1.24.08,1.35,1.01.14,1.2.39,1.42,1.63,1.39.71-.02,1.43-.03,2.14-.12.65-.08,1.12.59,1.01,1.03-.06.24-.36.47-.61.59-.25.12-.57.09-.87.11-.66.05-.9.32-.88,1,.02.85.06,1.69.06,2.54,0,.8-.4,1.41-1.34,1.23-.56-.11-.92.15-1.05.71-.06.25-.05.52-.05.79.02,1.52.04,3.04.06,4.56,0,.57-.41,1.04-1.05,1.08-.85.05-1.7.14-2.54.06-.37-.03-.79-.37-1.04-.69-.25-.32-.04-.74.26-.97.22-.17.55-.26.84-.26.8-.01,1.33-.54,1.29-1.36-.05-.96-.08-1.92-.12-2.88-.03-.73-.32-1-1.04-.95-.23.02-.47-.01-.7,0-.39.02-.64.32-.65.71,0,.33-.06.67-.09,1-.04.41-.29.61-.67.63-.9.05-1.81.1-2.72.1-.3,0-.6-.13-.83.17-.25.31-.46.62-.4,1.07.05.33,0,.67.04,1,.06.38.27.62.72.62.34,0,.71,0,1.01.14.23.1.45.38.53.62.14.43-.21.94-.68,1-.8.09-1.61.29-2.43.04-.35-.1-.75-.12-1.06-.28-.19-.1-.36-.41-.38-.63-.06-.87-.07-1.75-.06-2.63,0-.78-.09-.93-.84-1.03-.29-.04-.58-.03-.87-.03-.64-.01-1.29.04-1.93-.05-.69-.09-1.16.5-1.1,1.08.01.13.02.26.04.39-.02,0-.03,0-.05,0Zm13.08-8.78s0,.02,0,.04c-.23.02-.49,0-.69.09-.23.11-.55.29-.6.49-.11.47-.09.98-.09,1.47,0,.48.51.94.99.94,1.02,0,2.04-.02,3.06-.03.4,0,.75-.28.74-.6-.02-.54-.05-1.08-.13-1.61-.07-.45-.47-.78-.92-.78-.79,0-1.58,0-2.36,0Z"/>
  <path class="cls-2" d="m58.23,9.01c.04,1.01.08,2.06.11,3.1.02.68.19.92.87.94.81.02,1.63-.07,2.44-.07.96,0,1.93,0,2.89.07.52.04.61.29.57,1.03-.02.29-.4.55-.81.61-.4.06-.79.16-1.18.26-.09.02-.21.16-.21.24.02.65.04,1.31.13,1.95.04.29.27.46.62.4.26-.04.54.01.8-.02.61-.08.83-.38.85-1.01.01-.35.11-.71.21-1.05.02-.08.17-.17.27-.18.36-.05.73-.11,1.09-.09.12,0,.25.2.34.34.26.35.27.71.18,1.15-.11.53-.06,1.1-.05,1.65,0,.41-.37.84-.79.85-1.17.03-2.33.07-3.5.09-1.21.03-2.42.05-3.63.07-.58,0-1.08-.51-1.04-1.06.04-.49.58-.8,1.16-.75.31.02.65-.06.94-.17.1-.04.18-.29.18-.45-.01-.55-.06-1.11-.11-1.66,0-.1-.09-.21-.17-.28-.4-.35-1.36-.36-1.75,0-.1.09-.16.24-.19.37-.07.35-.16.7-.15,1.05,0,.42-.25.6-.57.66-.33.06-.69.07-1.03.02-.32-.05-.49-.3-.49-.64,0-.83-.02-1.66-.01-2.5,0-.79-.38-1.53-1.45-1.37-.88.13-1.06.35-1.02,1.27.02.49-.07.98-.07,1.47,0,.76.08,1.52.03,2.28-.03.47.15.99-.2,1.43-.19.23-1.1.45-1.48.31-.41-.15-.56-.48-.55-.91.02-1.26.04-2.52.06-3.78,0-.39-.02-.79,0-1.18.03-.47-.18-.72-.61-.89-.6-.23-1.59.11-1.69.63-.08.38-.09.78-.11,1.17-.02.49-.03.99-.02,1.48,0,.83.06,1.67.03,2.5,0,.31-.16.61-.26.91-.02.06-.1.15-.15.15-.44-.04-.94.01-1.31-.17-.31-.16-.43-.57-.4-1.02.05-.92-.02-1.84-.04-2.76,0-.26-.15-.41-.4-.44-.26-.03-.53-.06-.79-.03-.83.1-1.27-.41-1.17-1.26.07-.61.02-1.24.03-1.86,0-.29,0-.58.02-.88.01-.31-.11-.47-.44-.44-.23.03-.47.07-.7.05-.22-.02-.46-.06-.64-.18-.25-.17-.57-.34-.42-.76.16-.48.41-.68.93-.7.94-.04,1.87-.08,2.81-.12.31-.01.63.34.64.69,0,.29,0,.59.05.87.1.58.48.81,1.05.69.13-.03.28-.01.41.03.52.19.86.01.96-.54.07-.36.09-.73.14-1.09.08-.64.31-.78.93-.76.65.02,1.31-.07,1.96-.07.62,0,1.24.07,1.86.07.48,0,.97,0,1.44-.06.87-.12,1.71.01,2.61.32Z"/>
  <path class="cls-2" d="m70.79,70.66c.99,0,1.97,0,2.96,0,.42,0,.85,0,1.27,0,.77-.01,1.55-.05,2.32-.03,1.02.01,2.03.08,3.04.09,1.29,0,2.57-.03,3.86-.05.38,0,.77.05,1.14,0,1.1-.14,1.32.51,1.33,1.31.01,1.31-.04,2.63-.02,3.94.02,1.49.12,2.98.15,4.47.02.76-.06,1.52-.05,2.28.01,1.11.07,2.22.09,3.33,0,.57-.4,1.19-1.06,1.1-.46-.06-.93.02-1.4.03-.63,0-1.26-.01-1.9,0-1.01.01-2.01.05-3.02.06-.39,0-.77-.06-1.16-.06-.9,0-1.81,0-2.71,0-1.48,0-2.96,0-4.43.01-.56,0-1.14-.46-1.18-1.03-.04-.58-.05-1.16-.08-1.74-.03-.64-.07-1.29-.07-1.93,0-.65.07-1.3.06-1.95-.02-1.07-.1-2.13-.12-3.2,0-.59.07-1.18.09-1.78.02-.47,0-.93,0-1.4.01-.89.02-1.77.06-2.66.03-.59.27-.78.83-.78Zm13.48,5.58s.04,0,.07,0c-.05-.86-.07-1.73-.14-2.58-.08-.91-.51-1.22-1.42-1.13-.55.06-1.1.12-1.66.12-1.29,0-2.58-.05-3.87-.06-.57,0-1.14.05-1.71.05-.72,0-1.45-.04-2.17-.03-.19,0-.42.05-.56.17-.52.42-.46,1.07-.42,1.62.1,1.49-.06,2.99.08,4.48.02.21-.09.43-.09.64,0,.67,0,1.35.03,2.02.04,1.04.1,2.07.16,3.11.03.48.32.67.76.65.79-.02,1.58-.08,2.37-.08,1.7-.01,3.39,0,5.09,0,.92,0,1.84-.05,2.76-.09.41-.02.69-.17.72-.65.02-.53.13-1.06.13-1.59-.01-1.2-.08-2.39-.1-3.59,0-.36.08-.72.08-1.08-.01-.66-.06-1.32-.09-1.97Z"/>
  <path class="cls-2" d="m78.34,24.16c1,0,2,0,3,0,.61,0,1.22-.03,1.83-.04.39,0,.59-.24.67-.58.04-.17.03-.35.02-.52-.07-1.02.86-1.66,1.82-1.27.28.11.43.29.45.59.04.83.07,1.67.1,2.5.02.46-.22.71-.67.77-.36.04-.73.07-1.09.11-.11.01-.27.03-.31.1-.14.25-.33.52-.35.79-.06.8-.06,1.61-.05,2.41,0,.45.06.9.08,1.36.02.4.26.58.62.61.27.03.56.03.83-.03.39-.07.71.12.87.37.13.2.08.58-.02.83-.13.35-.44.52-.85.45-.23-.04-.48-.05-.7,0-.19.05-.38.17-.51.32-.44.47-.29,1.08-.29,1.63,0,.79.07,1.58.05,2.37-.02.86.65,1.17,1.31,1.02.76-.17,1.08.12,1.1.9.02.64.09,1.28.13,1.93.02.34,0,.67,0,1.01-.02.57-.02,1.14-.07,1.71-.05.57-.62.94-1.16.78-.32-.09-.74.02-.87-.43-.09-.31-.19-.63-.28-.94-.03-.11-.04-.23-.06-.35-.08-.54-.33-.73-.86-.66-1.09.14-2.18.17-3.26,0-.22-.03-.5-.33-.58-.57-.1-.29-.06-.64.3-.83.31-.16.61-.26.99-.23.82.08,1.3-.43,1.18-1.26-.08-.59-.04-1.19-.07-1.79-.02-.54-.05-1.08-.11-1.62-.04-.35-.41-.53-.9-.51-.2,0-.4-.02-.59-.06-.43-.1-.83.17-.85.63-.04.97-.06,1.94-.11,2.91-.01.23-.09.45-.16.67-.1.33-.32.42-.66.42-1.07.01-1.08.03-1.33-1.06-.05-.21-.06-.44-.06-.66.01-.34-.28-.57-.68-.55-.95.04-1.9.07-2.85.07-.2,0-.41-.06-.58-.16-.46-.27-.61-.67-.46-1.07.15-.38.74-.63,1.16-.62.93.03,1.86.02,2.8-.03.41-.02.61-.37.55-.79-.14-.94.39-1.52,1.33-1.47.71.04,1.42.08,2.12.13.87.06,1.39-.52,1.34-1.53-.01-.31-.05-.61-.06-.92-.01-.36-.19-.53-.55-.55-.42-.02-.9.03-1.24-.16-.3-.17-.48-.6-.66-.95-.08-.15-.01-.38-.03-.57-.04-.48-.37-.73-.84-.66-.92.13-1.32-.2-1.35-1.12-.02-.47-.07-.93-.06-1.4,0-1.15.35-1.48,1.51-1.44Z"/>
  <path class="cls-2" d="m69.65,15.41c0-1.12,0-2.25,0-3.37,0-1.37,0-2.74.01-4.1.01-1.35.05-2.7.07-4.06.01-.5.03-1.01.04-1.51.02-.51.42-.87,1.01-.88.82,0,1.65.01,2.47-.01,1.49-.04,2.98-.1,4.47-.15.26,0,.53.01.79,0,.86-.01,1.72-.04,2.58-.04,1.39,0,2.77,0,4.16.05.62.02.78.25.78.88,0,.61-.07,1.23-.06,1.84.01,1.01.06,2.01.09,3.02,0,.29-.01.58-.01.88,0,1,0,2.01,0,3.01,0,.74-.05,1.49-.05,2.23,0,.73.04,1.46.07,2.19,0,.16,0,.32-.01.48-.06.57-.34.82-.91.84-1.55.06-3.1.12-4.64.18-.29.01-.59-.02-.88-.02-1.27.02-2.54.05-3.8.08-.88.02-1.75.09-2.63.1-.84,0-1.68,0-2.52-.05-.68-.04-.85-.25-.89-.94,0-.22-.02-.44-.04-.66-.03,0-.07,0-.1,0Zm2.58-1.78h.01c0,.21-.02.41,0,.61.1.71.32.91,1.04.91.33,0,.67-.07,1-.07,1.56-.03,3.13-.03,4.69-.06,1.43-.03,2.86-.07,4.29-.12.12,0,.32-.06.34-.14.1-.36.21-.73.22-1.09.02-.66-.09-1.32-.05-1.97.08-1.24-.16-2.46.02-3.71.13-.9-.05-1.84-.1-2.76-.03-.56-.08-1.13-.16-1.69-.02-.13-.15-.32-.27-.34-.41-.08-.83-.14-1.24-.14-.58,0-1.17.06-1.75.08-1.11.05-2.22.08-3.33.13-.61.02-1.23.08-1.84.07-.75-.01-1.51-.08-2.26-.11-.08,0-.18.04-.23.1-.36.34-.65.72-.52,1.27.03.14,0,.29,0,.43.02.72.03,1.43.05,2.15.02.53.07,1.05.06,1.58-.01.56-.13,1.12-.12,1.68.01,1.07.08,2.13.13,3.2Z"/>
  <path class="cls-2" d="m16.49,17.85c-1.4,0-2.8,0-4.2,0-1.29,0-2.57-.04-3.86-.03-1.11.01-2.22.09-3.33.11-.65,0-1.31-.06-1.96-.08-.25,0-.5.04-.74.03-.81-.05-1.09-.49-.94-1.28.09-.45.07-.92.07-1.39,0-.55-.03-1.11-.02-1.66,0-.46.06-.92.09-1.38.04-.92.1-1.85.11-2.77.01-1.05-.03-2.1-.03-3.15,0-.88.02-1.75.06-2.63.03-.57.26-.8.8-.82,1.14-.04,2.28-.07,3.42-.09,1.26-.02,2.53,0,3.79-.04,1.37-.04,2.74-.16,4.11-.18,1.07-.02,2.14.03,3.22.07.44.02.61.3.61.71,0,.77,0,1.54-.01,2.31-.01.74.04,1.5-.1,2.21-.27,1.38.07,2.75-.09,4.12-.06.53.06,1.08.06,1.62,0,.52-.08,1.04-.1,1.56-.02.57-.02,1.14,0,1.71.01.76-.2.98-.96,1.05Zm-12.76-2.49c-.07.02-.13.03-.2.05.11.19.2.4.33.57.37.52.93.32,1.42.31,1.35-.02,2.69-.08,4.04-.11.29,0,.59.04.88.03,1.4-.04,2.79-.16,4.19-.12.57.02.66-.27.74-.62.07-.31,0-.64.02-.96.03-.66.09-1.31.09-1.97,0-.95-.05-1.9-.05-2.85,0-.86.05-1.71.08-2.57.02-.7.05-1.41.08-2.11.02-.43-.25-.64-.61-.67-.51-.04-1.02,0-1.53.03-.57.02-1.14.07-1.71.07-.61,0-1.21-.07-1.82-.06-1.1,0-2.19.05-3.29.07-.58.01-1.17-.01-1.75.01-.49.02-.72.26-.74.74-.04,1.09-.07,2.18-.11,3.26-.02.44-.05.87-.06,1.31-.02.61-.04,1.22-.06,1.83,0,.16-.07.32-.06.48.04,1.09.09,2.17.14,3.26Z"/>
  <path class="cls-2" d="m29.39,63.5c-.07,0-.15,0-.22,0-.93.08-1.27-.32-1.22-1.36.02-.32.12-.66-.24-.86-.12-.07-.27-.12-.4-.11-1.04.03-2.08.09-3.11.11-.31,0-.56-.16-.61-.51-.04-.27-.1-.55-.11-.83-.02-.41.36-.66.93-.63.2.01.41.05.61.04.53-.03.79-.35.74-.88,0-.04-.02-.09-.02-.13-.08-1.1.11-1.29,1.19-1.27.41,0,.86-.09.99.46.06.25.08.52.09.78.04.93.16,1.05,1.11,1.04,1.03-.02,1.19.14,1.19,1.2,0,.83.45,1.21,1.26,1.16.86-.05,1.72-.04,2.59-.05.34,0,.49.2.56.51.09.47.16.96.33,1.4.07.2.34.35.55.46.13.07.32.02.48.05.82.15,1.04.43,1.13,1.27.02.23.12.47.24.67.19.29.5.36.82.25.48-.17.78.14,1.01.43.24.3.36.69.09,1.09-.24.35-.54.48-.94.33-.54-.2-.9-.03-1.01.52-.08.37-.1.75-.14,1.12-.05.42-.28.66-.69.71-.11.01-.23.03-.34.07-.45.13-.88.2-1.37.07-.44-.11-.93-.04-1.39-.01-.5.03-.89-.27-.88-.79,0-.49.1-.98.09-1.47-.02-.73-.07-1.46-.18-2.18-.06-.42-.45-.37-.78-.36-.29,0-.59.01-.86-.07-.36-.1-.52-.37-.46-.78.05-.31,0-.64,0-.96.01-.41-.17-.56-.57-.5-.14.02-.29,0-.44,0Z"/>
  <path class="cls-2" d="m26.75,71.1s.06,0,.09,0c.88-.03,1.14-.33,1.06-1.22-.03-.32-.05-.64-.06-.96-.03-.48-.28-.64-.75-.63-1.07.01-2.14,0-3.2-.06-.52-.03-.77-.51-.6-1.02.26-.8.51-.98,1.33-.87,1.05.14,2.1.1,3.15-.01.61-.06,1.23-.04,1.85-.04.31,0,.55.18.58.49.04.38,0,.77,0,1.16,0,.17.01.35.02.52,0,.51,0,1.02,0,1.54,0,.78.56,1.28,1.35,1.17.6-.08.83.14.82.73,0,.67.08,1.34.04,2.01-.05.84-.3,1.47-1.21,1.41-.5-.03-.77-.33-.91-.75-.1-.32-.15-.66-.18-.99-.05-.52-.45-.83-.96-.76-.26.04-.52.06-.78.04-.3-.02-.48.08-.55.37-.03.11-.06.23-.06.35-.03,1.01-.11,2.03-.07,3.04.02.43-.11.68-.41.93-.45.37-.97.24-1.38.07-.26-.11-.48-.56-.52-.88-.06-.48.09-.97.11-1.46.02-.49-.05-.99-.03-1.48.04-.81.11-1.62.21-2.43.01-.11.24-.23.39-.27.21-.05.44-.01.66-.01,0,0,0,0,0,.01Z"/>
  <path class="cls-2" d="m33.26,14.7c.05-.87.08-1.75.14-2.62.04-.57.25-.76.82-.81.15-.01.29-.02.44-.02.47,0,.78.32.82.79.03.43-.11.9.25,1.25.12.12.33.2.5.22.23.03.47-.03.7-.02.47,0,.82.34.85.78.02.37-.42.87-.81.9-.22.01-.44,0-.66-.03-.56-.05-.86.22-.85.77.01.53.04,1.05.06,1.57.01.37.21.56.58.58.2,0,.41.02.62.02.93-.02,1.2-.46,1.12-1.34-.08-.82.22-1.17,1.02-1.05.19.03.38.06.56.09.46.08.7.38.7.86-.01,1.18.04,1.25,1.21,1.4.04,0,.09.01.13.01.7.05.86.22.8.85-.05.6-.38.85-1.03.77-.09-.01-.17-.02-.26-.03-.8-.05-1.18.38-1.02,1.17.12.62-.17,1.01-.79,1.06-.13.01-.26.02-.39.03-.53.05-1.01-.37-1.04-.91,0-.16,0-.32,0-.48-.02-.66-.23-.83-.88-.82-.56,0-1.13-.09-1.69-.1-.27,0-.53.13-.8.13-.5.02-1-.02-1.5-.02-.26,0-.52-.03-.78,0-.39.06-.73-.09-.93-.37-.22-.31-.23-.7.04-1.02.08-.1.24-.18.37-.19.36-.04.73-.02,1.09-.06.32-.04.56-.23.57-.57.02-.93,0-1.86,0-2.79.02,0,.04,0,.06,0Z"/>
  <path class="cls-2" d="m63.89,32.95c-.66,0-1.31,0-1.97,0-.69,0-1.23-.3-1.15-1.09.04-.48,0-.96,0-1.44-.01-.83-.02-1.66-.06-2.49-.03-.8.4-1.24,1.2-1.18.16.01.32.02.48.01.29-.02.45-.14.53-.46.28-1.07.14-2.15.13-3.23,0-.44.52-.94.96-.93.13,0,.26,0,.39-.02.44-.05.85.38.76.81-.12.53.21.92.46,1.32.05.08.23.09.36.11.31.04.62.07.94.1.43.04.55.33.57.7.03.68.06,1.37.07,2.05.01.64-.26.92-.9.99-.32.03-.64.08-.95.16-.11.03-.25.18-.27.29-.09.67-.18,1.35-.21,2.03-.03.48.04.96.03,1.44,0,.31-.56.78-.94.82-.15.01-.29,0-.44,0,0,0,0,0,0,.01Z"/>
  <path class="cls-2" d="m29.95,6.24c-1.04-.06-1.31.26-1.25,1.31.04.85,0,1.72-.08,2.57-.03.29-.21.62-.61.64-.22.02-.44.06-.65.05-.63-.02-.95-.53-.9-1.16.07-.97.06-1.94.04-2.92,0-.38-.25-.54-.64-.44-.03,0-.06.01-.09.02-1.14.15-1.32.01-1.35-1.12-.03-.89-.08-1.09-1.25-1.13-.64-.02-1.29.1-1.93.06-.43-.02-.98.03-1.18-.53-.08-.24-.12-.55-.04-.78.07-.23.26-.35.62-.35,1.77,0,3.55-.11,5.32-.17.33-.01.66.08.99.07,1.08-.03,2.16-.12,3.24-.13.7-.01.91.25.9.93,0,.67-.01,1.35-.01,2.02,0,.79-.32,1.1-1.14,1.05Z"/>
  <path class="cls-2" d="m48.77,78.97c.03-.72.07-1.49.11-2.25.03-.56.43-.89.99-.95.51-.06.95-.04,1.16.48.11.29.13.62.15.94.03.74.21.93.96.93.15,0,.29,0,.44,0,.51.03.88.39.9.9,0,.19,0,.38-.02.57-.04.66.32,1.03.96.89.43-.1.75.07,1.07.26.33.2.37.54.23.9-.14.37-.36.73-.81.66-.52-.07-.93.04-1.32.4-.21.2-.26.36-.24.64.06.92.14,1.84.1,2.75-.02.59-.66,1.26-1.48.84-.55-.28-.82-.67-.81-1.28.02-.6.05-1.2.03-1.79-.05-1.46-.35-1.63-1.81-1.55-.71.04-1.42.12-2.12-.06-.57-.15-.95-.94-.64-1.43.1-.16.34-.26.54-.31.16-.05.35,0,.52.02.74.08,1.11-.24,1.12-1,0-.18-.02-.35-.03-.57Z"/>
  <path class="cls-2" d="m30.77,22.09c0,1.23,0,2.47,0,3.7,0,.56-.13.71-.7.73-.35.02-.74.03-1.05-.1-.41-.17-.71-1.22-.51-1.71.23-.55.09-1.09.08-1.64,0-.14-.05-.29-.06-.43-.04-.36-.35-.62-.72-.6-1.33.07-2.65.18-3.98.21-.51.01-1.02-.09-1.52-.22-.17-.04-.38-.31-.38-.49-.01-.31.07-.65.21-.92.06-.12.39-.18.57-.14,1.02.23,1.59-.3,1.43-1.31-.05-.32.02-.66.03-.99.01-.44.04-.88.02-1.31-.02-.46.24-.91.69-.98.28-.04.59-.04.87.03.63.16.73.34.7,1.02-.04.82-.06,1.64-.09,2.46,0,.15,0,.3.02.44.07.37.19.65.68.61.7-.06,1.4-.06,2.1-.08.98-.04,1.85.43,1.69,1.48-.01.09,0,.18,0,.26-.02,0-.05,0-.07,0Z"/>
  <path class="cls-2" d="m30.71,31.25c.09-.48.19-.96.28-1.43.07-.36.34-.45.65-.46.23-.01.47,0,.7-.02.6-.02.88-.32.86-.92-.03-.95-.17-1.91-.04-2.83.11-.8-.03-1.56,0-2.34.02-.43.3-.76.74-.77.88-.01,1.75,0,2.63,0,.32,0,.63-.08.96.13.41.27.31.6.25.93-.06.35-.25.63-.65.67-.39.04-.79.07-1.18.09-.38.02-.57.22-.57.58,0,.51,0,1.02,0,1.53,0,.55-.04,1.1-.04,1.65,0,.7.01,1.4.03,2.1,0,.54-.26.82-.8.87-.38.03-.75.09-1.13.14-.3.04-.43.23-.45.51-.01.19-.03.38,0,.57.13.84-.85,1.32-1.54,1-.2-.1-.4-.36-.45-.58-.11-.45-.12-.93-.18-1.39-.02,0-.05-.01-.07-.02Z"/>
  <path class="cls-2" d="m44.84,42.41c.57-.22.68.09.8.4.12.31.33.4.63.25.04-.02.08-.04.12-.06.25-.13.69-.16.6-.51-.06-.24-.4-.45-.66-.58-.67-.32-.74-.47-.37-1.1.11-.18.2-.41.36-.52.54-.36,1.3-.1,1.41.55.11.63.03,1.3.02,1.95,0,.23-.09.46-.08.69.03.69.11,1.37.14,2.06.01.22-.04.44-.07.65-.06.38-.28.55-.68.5-.39-.05-.58-.25-.56-.64,0-.16.01-.32.04-.48.11-.53.03-1.02-.24-1.48-.05-.08-.09-.19-.09-.29,0-.31-.2-.38-.58-.44,0,.57.04,1.1-.01,1.62-.03.33-.09.78-.31.94-.22.16-.65.06-.99.02-.15-.02-.29-.17-.47-.29-.08.15-.12.28-.21.37-.13.14-.28.31-.44.34-.13.02-.28-.15-.44-.22-.07-.03-.16-.03-.24-.05-.17-.03-.35-.11-.52-.09-.24.03-.55.06-.68.22-.3.37-.67.34-1.04.29-.35-.04-.54-.23-.53-.66,0-.84-.07-1.69-.13-2.53-.01-.16-.12-.33-.22-.46-.29-.38-.23-.9.15-1.16.04-.03.14-.06.16-.04.37.41,1.14.18,1.35.83.04.13.08.27.12.4.1.31.2.62.31.93.07.19.2.37.2.55,0,.29.02.61.31.64.3.03.63-.11.93-.21.1-.03.17-.18.24-.28.25.19.46.38.71.51.21.11.45.02.43-.24-.05-.69.12-1.39-.19-2.06-.03-.06-.02-.14,0-.21.09-.33.08-.34-.3-.5-.02.04-.05.07-.05.11-.01.18-.02.35-.03.53-.2-.04-.42-.02-.58-.12-.53-.33-.83-.83-.93-1.44-.04-.26.37-.62.71-.59.46.04.92.14,1.37.21.16.02.33-.02.48.03.23.08.55.15.65.33.09.16-.04.47-.13.69-.08.19-.25.34-.46.63Z"/>
  <path class="cls-2" d="m26.15,38.83c0-.68,0-1.36,0-2.04,0-.65-.29-.97-.93-.97-.83,0-1.67,0-2.5.03-.65.01-1.1-.4-1.12-1.04-.01-.47.41-.81.91-.77.61.04,1.21.06,1.82.05.98-.02,1.96-.08,2.94-.1.9-.02,1.21.38,1.12,1.29-.08.78-.1,1.56-.1,2.34,0,.6.33.87.91.89.37,0,.77.03,1.1.17.19.08.43.45.38.61-.1.34-.33.68-.6.9-.15.13-.49.03-.75.04-.61,0-1.23,0-1.84,0-.15,0-.29,0-.44,0-.73-.05-.99-.33-.98-1.06,0-.12,0-.23,0-.35.02,0,.05,0,.07,0Z"/>
  <path class="cls-2" d="m86.59,52.14c-.09.32-.17.65-.29.96-.11.31-.38.4-.68.36-.49-.06-1.05.09-1.38-.45-.1-.16-.17-.35-.21-.54-.04-.17,0-.35-.04-.52-.11-.58-.29-.71-.87-.69-.53.02-1.05.08-1.58.07-.46,0-.93-.08-1.38-.15-.57-.08-.73-.26-.73-.8,0-.44.34-.91.76-.93.53-.02,1.07.07,1.6.07.6,0,1.19-.02,1.78-.09.14-.02.3-.29.36-.47.07-.2.03-.44.04-.66.04-.79.47-1.12,1.26-1.15.42-.01.73.12.93.42.15.24.2.57.22.86.05.61.05,1.22.06,1.83,0,.61,0,1.23,0,1.84l.13.02Z"/>
  <path class="cls-2" d="m56.51,65.68c-.55-.04-1.1-.11-1.64-.12-.57,0-1.14.07-1.71.08-.47.01-.94.04-1.39-.05-.22-.04-.46-.32-.55-.54-.11-.27-.09-.6-.1-.91-.01-.65-.22-.85-.87-.75-.5.08-.84-.07-1.1-.51-.34-.56.01-1.34.66-1.38.77-.05,1.55-.09,2.32-.09,1.03,0,1.34.32,1.35,1.33,0,.59.48,1.02,1.07,1.03,1,0,2.01.03,3.01.06.47.02.74.36.73.9,0,.43-.37.85-.78.86-.34.02-.67,0-1.01,0,0,.02,0,.05,0,.07Z"/>
  <path class="cls-2" d="m67.38,10.39c.02.3.06.68.07,1.06.02.54-.5.98-1.05.99-.77,0-1.2-.43-1.14-1.21.07-.91-.38-1.02-1.14-1.01-.82.02-1.63.06-2.45.04-.69-.01-1.04-.44-.98-1.11.03-.31.18-.49.49-.5.26-.01.53,0,.79-.01.76,0,1.05-.32.99-1.11-.01-.13-.02-.26-.02-.39.02-.74.45-1.06,1.17-.86.25.07.55.13.72.3.18.19.33.49.34.75.07,1.1.08,1.14,1.2,1.13.75,0,1.04.32.99,1.07-.02.26,0,.53,0,.87Z"/>
  <path class="cls-2" d="m42.37,6.53c0,.26-.01.53,0,.79.05.82-.47,1.21-1.26.95-.07-.02-.14-.05-.21-.06-.45-.06-.7-.31-.74-.76-.03-.32-.03-.65-.1-.96-.03-.12-.17-.29-.28-.31-.37-.07-.75-.11-1.13-.11-.72,0-1.43.04-2.15.08-.45.02-.86-.4-.88-.91-.01-.37.29-.64.77-.65.27,0,.55.02.82.05.38.04.8-.4.82-.9.02-.35,0-.7-.03-1.06-.03-.39.12-.6.5-.59.4.01.8.06,1.18.16.14.04.28.28.31.44.03.25-.02.52-.06.77-.06.4.41,1,.82,1.01.28,0,.56.03.83-.03.36-.07.58.08.63.38.11.55.14,1.12.21,1.68h-.06Z"/>
  <path class="cls-2" d="m67.56,79.59c0,.63,0,1.27,0,1.9,0,.39-.45.77-.88.8-.29.02-.61.05-.87.18-.41.2-.4.64-.45,1.03-.03.22-.05.44-.13.64-.18.48-.43.58-.96.57-.4,0-.79-.01-1.1-.3-.12-.11-.27-.27-.27-.41-.02-.96-.02-1.93.01-2.89.01-.39.27-.64.68-.67.25-.02.5-.04.74-.03.62.04.98-.29,1.02-.92.02-.41.08-.82.13-1.23,0-.06.07-.13.13-.16.87-.46,1.89.11,1.95,1.1,0,.13,0,.26,0,.4,0,0-.01,0-.02,0Z"/>
  <path class="cls-2" d="m84.49,63.1c-.66-.05-1.32-.09-1.99-.14-.29-.02-.75-.54-.75-.81.02-.57.26-.83.76-.86.25-.02.5-.05.74-.06.62-.02.94-.34.92-.97-.02-.77-.06-1.55-.06-2.32,0-.31,0-.64.11-.92.16-.42.53-.62.99-.56.26.03.52.07.78.11.21.04.5.7.5.98,0,.73.06,1.45.05,2.18-.02.92-.05,1.85-.15,2.77-.05.42-.4.61-.84.59-.35-.02-.7,0-1.05,0v.03Z"/>
  <path class="cls-2" d="m55.81,84.78c.05-.47.12-.95.15-1.42.02-.38.26-.5.58-.53.29-.02.58-.01.87-.02.46-.01.58.1.65.57.07.47.19.94.28,1.41.06.3.26.48.54.48.7,0,1.4-.03,2.1-.04.45,0,.9-.02,1.35.02.14.01.33.19.37.33.07.27.06.57.07.85.01.41-.33.34-.57.45-.76.36-1.51.26-2.3.12-.38-.07-.78,0-1.18.02-.54.01-1.08.02-1.61.03-.76.01-1.17-.39-1.19-1.14,0-.38-.05-.76-.08-1.14-.01,0-.02,0-.03,0Z"/>
  <path class="cls-2" d="m29.58,17.54c-.76-.01-.95-.23-.85-1.11.09-.79-.33-1.21-1.12-1.13-.62.07-.95-.21-1.01-.85-.07-.79.26-1.06,1.01-.83.59.18.85.04.98-.57.06-.3.1-.6.12-.9.04-.51.3-.77.8-.79.06,0,.12,0,.18,0,.98-.1,1.36.37,1.29,1.35-.07.96,0,1.92,0,2.88,0,.37.03.74-.01,1.1-.09.72-.24.84-.97.85-.1,0-.21,0-.43,0Z"/>
  <path class="cls-2" d="m24.73,52.39c.81.07,1.2-.33,1.17-1.15-.01-.26,0-.53.07-.78.08-.32.22-.47.66-.41.64.09,1.31-.03,1.96-.05.39,0,.79-.02,1.18.03.52.07.73.64.55,1.14-.25.68-.8.6-1.3.61-.68,0-.69-.02-.87.64-.06.21-.09.43-.1.65-.04.7-.43,1.07-1.13,1.08-.67,0-1.34.04-2.01.08-.77.05-1.41-.47-1.33-1.11.07-.58.4-.79,1.17-.72Z"/>
  <path class="cls-2" d="m55.68,19.99c.61,0,1.22-.02,1.83,0,.53.02.75.23.78.76.04.77.05,1.55.05,2.32,0,.63.03,1.27-.05,1.89-.05.37-.19.84-.46,1.03-.37.25-.95.29-1.3-.11-.23-.25-.36-.66-.38-1.01-.07-.89-.04-1.78-.07-2.67-.02-.39-.29-.55-.71-.53-.23.01-.46.02-.69,0-.54-.06-.8-.34-.8-.83,0-.33.55-.83.94-.84.29,0,.59,0,.88,0,0,0,0,0,0,0Z"/>
  <path class="cls-2" d="m2.97,41.34c0,.39.03.76,0,1.11-.08.79.29,1.17,1.09,1.1.29-.02.61-.03.88.06.47.17.31.65.33.99.05.62.01,1.26-.01,1.89-.02.49-.46.94-.91.96-.59.02-1.08-.35-1.16-.89-.04-.25-.07-.49-.11-.74-.08-.53-.19-.62-.74-.66-.43-.03-.9.03-1.14-.46-.1-.2-.22-.43-.21-.65.03-.75.09-1.5.19-2.25.05-.37.47-.59.89-.53.14.02.29.07.43.08.14,0,.29-.01.48-.02Z"/>
  <path class="cls-2" d="m6.26,70.74c-.97,0-1.8,0-2.64,0-.83,0-1.66,0-2.49-.06-.83-.06-1.16-.58-1.01-1.4.1-.56.17-1.13.19-1.69.03-.64.6-1.09,1.24-.91.11.03.22.09.33.1.37.05.38.2.35.57-.05.47.11.96.22,1.42.03.1.25.2.4.21.65.08,1.31.15,1.96.17.44.01.89-.07,1.34-.12.41-.04.62.27.78.54.09.16.06.48-.04.63-.17.24-.45.4-.63.54Z"/>
  <path class="cls-2" d="m60.69,78.43c0-.64,0-1.28,0-1.92.01-.72.26-.91.99-.87.97.05,1.94.06,2.91.08.47,0,.96.73.78,1.2-.17.45-.68.73-1.15.65-.01,0-.03,0-.04-.01-1.02-.18-1.32.08-1.28,1.12.02.57-.28,1.01-.83,1.24-.35.15-.91.03-1.14-.35-.19-.32-.22-.73-.33-1.1.03,0,.05-.02.08-.02Z"/>
  <path class="cls-2" d="m74.55,45.28c.03-.61.06-1.21.08-1.82.02-.55.7-1.04,1.29-.96.36.04.72.02,1.08.04.46.02.92,0,1.37.08.61.09,1.01.9.65,1.39-.16.22-.56.26-.86.37-.06.02-.15,0-.22,0-.72-.04-1.11.37-1.03,1.1.1.94-.42,1.38-1.33,1.13-.85-.23-.99-.42-1.04-1.33Z"/>
  <path class="cls-2" d="m75.03,32.86c-.39.03-.79.09-1.17.07-.39-.02-.8-.06-1.15-.21-.35-.15-.51-.56-.37-.89.12-.29.4-.57.68-.71.27-.13.63-.08.95-.1.47-.03.63-.21.57-.66,0-.01,0-.03,0-.04-.19-1.41.57-2,1.89-1.45.1.04.21.18.23.29.06.46.11.92.13,1.39.02.51,0,1.01,0,1.52,0,.4-.22.72-.61.77-.38.04-.76.05-1.14.07,0-.01,0-.03,0-.04Z"/>
  <path class="cls-2" d="m69.29,47.29c.33.03.81.08,1.29.12.2.01.41.01.61-.01.5-.06.85.22.89.74.05.63-.14.84-.73.87-.31.01-.61.04-.92.08-.35.04-.62.52-.57.96.02.13.07.26.07.39-.02.77-.36,1.05-1.25,1.08-.5.01-1.07-.57-1.08-1.12-.01-.52-.02-1.05-.02-1.57,0-1.33.23-1.55,1.72-1.53Z"/>
  <path class="cls-2" d="m28.98,47.09c-.37.02-.97.04-1.57.1-.77.08-1.1-.1-1.29-.76-.13-.46.2-.94.68-.95.15,0,.3-.02.44.02.67.19,1.31-.54,1.2-1.29-.12-.83.25-1.19,1.08-1.11,1.02.1,1.26.46,1.07,1.48-.08.41-.06.84-.06,1.27,0,1.13-.19,1.33-1.55,1.25Z"/>
  <path class="cls-2" d="m60.78,3.82c-.01-.2-.01-.41-.04-.61-.15-.99.33-1.51,1.34-1.52.77,0,1.54-.05,2.32-.09.54-.03.87.28.91.88.03.51-.33.94-.79.96-.22,0-.44,0-.66.04-.76.11-.75.12-.89.87-.06.33-.13.67-.28.95-.23.43-.69.41-1.09.39-.46-.03-.61-.43-.71-.79-.1-.34-.11-.71-.17-1.07.02,0,.05,0,.07,0Z"/>
  <path class="cls-2" d="m32.7,6.71c.67,0,1.34-.01,2.02,0,.48,0,.77.32.83.91.04.38-.19.62-.58.69-.38.07-.75.15-1.13.22-.45.08-.59.27-.54.73.03.29,0,.59.04.88.05.42-.15.6-.54.61-.41.01-.83.05-1.22-.03-.32-.06-.46-.36-.45-.71.02-.88.02-1.75.03-2.63,0-.37.23-.53.55-.56.33-.03.67,0,1.01,0,0-.03,0-.07,0-.1Z"/>
  <path class="cls-2" d="m24.27,8.01c-.03.67-.06,1.34-.11,2.01-.02.23-.08.46-.14.68-.02.08-.09.2-.14.2-.45.03-.9.09-1.34.04-.29-.04-.48-.31-.5-.64-.02-.35-.06-.7-.1-1.05-.03-.33-.2-.48-.55-.49-.38,0-.75-.09-1.12-.15-.07-.01-.14-.06-.19-.11-.31-.33-.18-.71-.04-1.03.1-.22.38-.36.59-.53,0,0,.03-.01.04,0,.87.46,1.77.04,2.66.12.75.06.94.2.94.96Z"/>
  <path class="cls-2" d="m20.94,11.52c.14,0,.25.02.34,0,.37-.07.53.13.55.45.03.44.03.88.02,1.31-.02.93-.04,1.87-.08,2.8-.02.39-.07.77-.14,1.15-.02.09-.17.2-.27.23-1.19.34-1.58-.15-1.62-1.33-.02-.48.06-.96.07-1.44.02-.67.04-1.35.02-2.02-.02-.89.17-1.3,1.12-1.14Z"/>
  <path class="cls-2" d="m33.2,42.51c-.57,0-1.18,0-1.79,0-.27,0-.71-.4-.76-.7-.07-.4.14-.78.49-.86.31-.07.64-.12.95-.13.55-.02.91-.38.95-.94.03-.32.14-.64.23-.96.11-.38.45-.48.73-.39.26.08.6.33.65.56.18.94.08,1.88-.09,2.82-.06.31-.22.51-.59.5-.24,0-.49.05-.78.09Z"/>
  <path class="cls-2" d="m23.34,62.98c0,.67.03,1.34-.01,2.01-.04.61-.3.8-.91.83-.28.01-.55.07-.82.04-.35-.04-.59-.26-.62-.63-.03-.3-.03-.61-.03-.92,0-.59.02-1.17.02-1.76,0-.5.16-.69.66-.7.2,0,.41-.01.61-.01.81,0,1.14.33,1.1,1.15Z"/>
  <path class="cls-2" d="m60.73,57.11c0-.57,0-1.14,0-1.71,0-.9.98-1.37,1.65-.95.24.15.41.49.48.78.08.36.02.74.01,1.12,0,.26-.05.53-.01.78.07.47.06.92-.36,1.23-.37.28-.79.28-1.16.05-.43-.27-.7-.67-.58-1.22,0-.03,0-.06,0-.09,0,0-.02,0-.03,0Z"/>
  <path class="cls-2" d="m40.27,72.81c-.63.03-1.26.04-1.88.09-.88.07-1.45-.61-1.18-1.46.11-.35.38-.48.75-.47.67.02,1.36.06,2.02-.01.41-.05.78.03,1.16.1.42.09.52.28.55,1.04.01.34-.13.56-.47.63-.14.03-.28.09-.43.1-.17.02-.35,0-.53,0,0-.01,0-.02,0-.04Z"/>
  <path class="cls-2" d="m79.93,21.34c-.61.03-1.23.04-1.84.09-.56.04-1.26-.48-1.34-1.02-.05-.37.42-.85.88-.86.9-.01,1.8,0,2.7,0,.03,0,.06,0,.09,0,.93,0,1.21.4.85,1.28-.08.19-.32.37-.53.44-.25.09-.55.06-.83.08,0,0,0,0,0-.01Z"/>
  <path class="cls-2" d="m51.4,23.94c.02-.34.04-.56.03-.78-.01-.46.16-.75.63-.85.72-.16,1.15-.08,1.4.36.1.17.1.41.11.62.02.74.02,1.48.02,2.23,0,.13-.06.35-.13.37-.44.11-.9.26-1.33.21-.39-.04-.59-.41-.6-.85-.02-.48-.09-.96-.12-1.31Z"/>
  <path class="cls-2" d="m81.02,44.89c.62,0,1.24-.01,1.86,0,.59.01.94.29,1.02.76.07.45-.18.86-.63.88-.88.04-1.76,0-2.64,0-.18,0-.35,0-.53,0-.41,0-.86-.39-.88-.77-.03-.56.19-.81.75-.85.35-.03.7-.07,1.04-.11,0,.02,0,.05,0,.07Z"/>
  <path class="cls-2" d="m35.21,54.21c-.6-.04-1.29-.05-1.96-.16-.21-.04-.49-.34-.53-.56-.05-.33-.02-.76.15-1.03.24-.37.88-.44,1.29-.22.78.43,1.64.51,2.5.55.31.01.64-.06.69.39.04.44-.22.83-.66.89-.46.07-.93.08-1.48.12Z"/>
  <path class="cls-2" d="m40.34,11.17c.27,0,.8-.02,1.32,0,.39.02.84.79.61,1.07-.2.25-.56.49-.86.51-.84.05-1.68-.02-2.52-.03-.17,0-.35.06-.51.03-.32-.06-.66-.53-.53-.85.1-.25.38-.53.62-.59.52-.12,1.07-.1,1.87-.15Z"/>
  <path class="cls-2" d="m17.46,22.19c-.63,0-1.26,0-1.89,0-.1,0-.23-.07-.29-.16-.26-.38-.14-.81.08-1.12.14-.2.51-.32.79-.33.72-.04,1.45,0,2.17.02.18,0,.36-.02.53,0,.59.1.76.5.45.98-.44.69-.6.74-1.85.6Z"/>
  <path class="cls-2" d="m50.51,4.31c.84,0,1.68,0,2.52,0,.45,0,.76.3.76.68,0,.41-.24.64-.72.71-.2.03-.39.15-.59.15-.88,0-1.76,0-2.64-.05-.45-.02-.66-.58-.42-.96.26-.4.59-.64,1.08-.54Z"/>
  <path class="cls-2" d="m10.39,20.77c.51,0,.98-.03,1.45,0,.6.04.82.29.76.77-.05.47-.5.85-.99.81-.24-.02-.48-.06-.72-.07-.61-.01-1.23.03-1.84-.02-.64-.05-.96-.52-.71-1.01.08-.16.3-.34.48-.36.53-.08,1.08-.09,1.57-.12Z"/>
  <path class="cls-2" d="m32.34,47.73c.54,0,1.08-.02,1.62.01.18.01.45.13.51.27.1.23.19.61.07.77-.27.38-.62.7-1.19.65-.58-.05-1.17.05-1.74-.02-.27-.03-.61-.24-.75-.48-.19-.31-.19-.75.18-.98.25-.15.58-.17.87-.23.14-.03.29,0,.44,0,0,0,0,0,0,0Z"/>
  <path class="cls-2" d="m60.53,36.82c.1-.82.36-1.06,1.13-1.03.19,0,.38,0,.57.03.39.06.65.26.69.67.02.19.09.4.02.56-.1.24-.27.61-.46.64-.53.09-1.13.3-1.58-.23-.16-.19-.25-.42-.37-.63Z"/>
  <path class="cls-2" d="m7.33,58.3c0,.52-.22.74-.83.87-.69.14-1.39-.2-1.51-.79-.04-.18.07-.4.15-.59.23-.5.7-.65,1.44-.48.6.14.75.34.75.99Z"/>
  <path class="cls-2" d="m42.7,85.26c.19.02.38.02.57.06.53.1.85.56.78,1.12-.06.5-.45.75-1.03.75-.41,0-.72-.09-1-.41-.26-.29-.46-.58-.29-.98.18-.43.51-.62.99-.54Z"/>
  <path class="cls-2" d="m59.56,82.28c-.27-.04-.58-.06-.87-.14-.43-.12-.64-.69-.43-1.07.11-.2.16-.54.3-.58.37-.1.78-.11,1.17-.09.54.04.82.47.78,1.1-.03.4-.47.77-.95.77Z"/>
  <path class="cls-2" d="m66.37,37.61c-.53,0-1.04-.41-1.16-.92-.09-.37.12-.65.43-.77.28-.11.6-.12.9-.14,1.03-.07,1.24.37.87,1.36-.25.67-.79.23-1.04.48Z"/>
  <path class="cls-2" d="m47.94,60.99c-.23-.03-.47-.01-.68-.1-.54-.22-.68-.55-.54-1.12.09-.39.49-.66.96-.65.24,0,.49-.03.73-.02.09,0,.21.07.25.14.26.46.37.99.13,1.45-.11.21-.53.25-.81.36-.01-.02-.03-.04-.04-.06Z"/>
  <path class="cls-2" d="m70.93,42.57c.79,0,1.19.28,1.19.85,0,.7-.42,1.07-1.19,1.07-.55,0-1.1-.44-1.07-.91.04-.69.36-1.01,1.08-1.01Z"/>
  <path class="cls-2" d="m71.23,39.84c-.46,0-.89,0-1.09-.42-.21-.43-.14-.88.19-1.22.12-.13.38-.22.55-.2.4.05.83.1,1.17.3.32.19.36.6.2.95-.21.45-.59.63-1.02.58Z"/>
  <path class="cls-2" d="m1.52,52.23c-.56,0-.82-.29-.78-.83,0-.14-.01-.29,0-.44.02-.4.29-.63.69-.59.3.03.61.05.91.1.53.08.71.39.53.89-.23.65-.57.87-1.35.87Z"/>
  <path class="cls-2" d="m43.09,3.87c-.17-.13-.44-.23-.49-.4-.12-.35-.3-.75,0-1.12.44-.52,1.58-.54,1.96.01.13.19.12.55.05.8-.07.26-.16.6-.6.56-.29-.03-.58.04-.87.06l-.06.08Z"/>
  <path class="cls-2" d="m28.49,78.24c.31,0,.66-.1.9.02.31.15.67.44.75.74.05.22-.25.68-.51.8-.5.24-1.06.31-1.55-.14-.34-.31-.41-1.02-.08-1.34.11-.11.31-.12.46-.18,0,.03.01.07.02.1Z"/>
  <path class="cls-2" d="m71.26,24.19c.36.04.7.03.86.47.16.43.15.8-.21,1.11-.03.03-.06.07-.09.09-.47.3-1.68-.03-1.93-.52-.18-.35.13-.93.55-1.02.27-.06.55-.08.82-.13Z"/>
  <path class="cls-2" d="m45.48,75.15c-.81,0-1.16-.26-1.15-.85,0-.54.37-1.09.71-1.09.95.02,1.46.37,1.45.99,0,.53-.45.94-1.01.94Z"/>
  <path class="cls-2" d="m26.01,44.08c0,.7-.14.84-.85.84-.4,0-.84.21-1.2-.17-.18-.19-.35-.86-.14-1.1.18-.2.52-.29.8-.39.16-.05.34-.01.52-.02.67-.02.87.18.86.84Z"/>
  <path class="cls-2" d="m71.09,33.36c.34.15.69.28,1.02.46.09.05.16.2.18.31.06.52-.38,1.02-.9,1-.38-.01-.78-.04-1.12-.19-.33-.14-.51-.5-.38-.89.14-.4.41-.66.89-.59.09.01.17,0,.26,0,.02-.04.04-.07.05-.11Z"/>
  <path class="cls-2" d="m21.9,58.83c-.51,0-.82-.37-.79-.99.02-.45.46-.79.95-.72.35.05.71.08,1.04.2.34.13.51.49.36.79-.13.26-.42.49-.69.62-.23.11-.54.07-.86.09Z"/>
  <path class="cls-2" d="m71.11,21.47c-.11-.01-.35-.02-.58-.07-.48-.09-.76-.56-.68-1.09.05-.32.48-.62.87-.59.23.02.47.04.69.09.56.11.79.38.73.85-.07.55-.38.83-1.04.82Z"/>
  <path class="cls-2" d="m23.71,48.67c-.13-.64.85-1.1,1.45-.9.15.05.31.08.45.14.08.04.22.12.21.18-.02.38.03.81-.13,1.13-.14.28-.5.48-.91.34-.18-.06-.42.02-.58-.06-.34-.16-.52-.46-.49-.84Z"/>
  <path class="cls-2" d="m43.39,15.56c.45.02.81.13,1.08.51.29.42.13,1.03-.37,1.16-.28.07-.58.09-.87.11-.35.03-.66-.09-.77-.44-.14-.41-.14-.85.2-1.15.17-.15.48-.14.72-.2Z"/>
  <path class="cls-2" d="m42.38,20.95c.02-.63.15-.74.8-.72.13,0,.26,0,.39-.03.5-.07.93.26,1,.75.06.46-.19.95-.8.89-.11-.01-.23.02-.35.03-.78.1-1.06-.15-1.04-.93Z"/>
  <path class="cls-2" d="m3.8,66.04c-.2-.02-.41-.02-.61-.06-.49-.08-.78-.57-.64-1.05.07-.26.07-.55.39-.67.05-.02.1-.09.15-.08.47.06.93.13,1.4.2.01,0,.03.01.04.02.04.37.17.77.09,1.11-.08.32-.41.56-.81.52Z"/>
  <path class="cls-2" d="m71.02,30.58c-.55,0-.85-.22-.94-.64-.09-.43.13-1.07.52-1.13.39-.06.86.04,1.23.21.4.2.45.68.36,1.08-.04.16-.28.33-.46.4-.22.08-.49.06-.7.08Z"/>
  <path class="cls-2" d="m54.92,3.61c-.82-.02-1-.18-.99-.86.01-.69.38-.99,1.18-.98.53,0,.92.46.91,1.06-.01.51-.43.81-1.1.79Z"/>
  <path class="cls-2" d="m9.07,81.49c0,.55-.42,1.03-.85,1.03-.4,0-.83.25-1.2-.16-.26-.3-.26-.61-.1-.93.16-.33.37-.66.81-.58.37.07.75.15,1.1.29.13.05.19.29.23.35Z"/>
  <path class="cls-2" d="m68.78,42.03c-.33.06-.66,0-.94-.32-.38-.44-.33-.95.28-1.28.48-.26,1.35-.05,1.67.39.3.41-.02,1.15-.53,1.21-.15.02-.29,0-.49,0Z"/>
  <path class="cls-2" d="m59.46,6.22c.2.05.39.11.59.14.64.11.64.58.51,1.08-.1.41-.73.73-1.13.6-.12-.04-.25-.09-.37-.11-.5-.07-.73-.39-.6-.88.14-.51.51-.82,1-.84Z"/>
  <path class="cls-2" d="m68.6,23.78c-.55-.01-.88-.29-.98-.81-.09-.48.13-.87.63-1.06.11-.04.25,0,.37.02.16.02.32.1.47.09.4-.04.55.15.6.51.11.74-.34,1.27-1.1,1.25Z"/>
  <path class="cls-2" d="m73.56,42.01c-.52.02-1.07-.34-1.22-.74-.16-.43.13-.89.58-.93.3-.03.61-.07.91-.07.12,0,.31.07.36.17.15.33.41.71.34,1.02-.1.47-.59.58-.97.56Z"/>
  <path class="cls-2" d="m22.87,47.17c-.51.19-.94-.04-1.25-.53-.36-.59-.08-1.09.61-1.1.22,0,.44,0,.66,0,.49-.03.78.24.8.75.02.61-.21.89-.81.89Z"/>
  <path class="cls-2" d="m23.87,39.4c-.17.27-.28.65-.51.74-.44.18-1,.37-1.42,0-.28-.24-.4-.64-.27-1.05.11-.32.3-.55.67-.52.4.04.87-.19,1.19.23.12.15.2.34.34.59Z"/>
  <path class="cls-2" d="m50.49,19.95c.82-.01,1.22.76.8,1.42-.15.24-.61.35-.95.39-.36.04-.83-.03-.97-.43-.13-.36-.13-.82.24-1.07.25-.17.58-.21.88-.3Z"/>
  <path class="cls-2" d="m50.1,26.79c.78,0,1.26.27,1.26.72,0,.57-.53,1.12-1.09,1.12-.62,0-1.09-.46-1.09-1.07,0-.36.49-.77.92-.77Z"/>
  <path class="cls-2" d="m36.5,33.27c-.19-.02-.42.01-.55-.09-.24-.18-.53-.42-.58-.68-.07-.35.07-.78.53-.83.39-.05.82-.06,1.19.05.35.1.56.44.48.84-.08.39-.33.64-.75.68-.1,0-.2.02-.31.03Z"/>
  <path class="cls-2" d="m71.23,51.95c.79.03.91.11.91.68,0,.69-.31,1.04-.96,1.02-.29-.01-.61-.1-.84-.26-.37-.25-.38-.7-.26-1.08.05-.15.38-.24.59-.31.18-.06.37-.04.56-.06Z"/>
  <path class="cls-2" d="m20.47,38.13c-.74,0-1.15-.28-1.16-.81-.01-.62.42-1.01,1.1-1.02.51,0,.99.47.99.97,0,.54-.35.86-.93.86Z"/>
  <path class="cls-2" d="m73.4,26.43c.31.12.7.17.9.39.38.4.16,1.07-.36,1.34-.53.27-1.42-.05-1.59-.58-.18-.58.14-1.03.74-1.05.09,0,.18,0,.26,0,.01-.03.03-.06.04-.1Z"/>
  <path class="cls-2" d="m45.1,84.64c-.43.08-.67-.31-.89-.66-.25-.39.02-.87.52-.98.2-.04.41-.06.61-.09.56-.09.97.2,1.02.7.04.45-.45,1.01-.89,1.04-.09,0-.18,0-.37,0Z"/>
  <path class="cls-2" d="m68.79,31.11c.22.09.49.16.72.3.29.19.38.83.19,1.14-.2.33-.61.45-1,.31-.08-.03-.16-.07-.25-.08-.55-.1-.8-.36-.76-.78.05-.47.59-.93,1.09-.89Z"/>
  <path class="cls-2" d="m57.31,5.72c-.37.16-.67-.06-.97-.36-.24-.24-.27-.49-.12-.75.16-.27.32-.58.74-.45.14.04.28.06.42.05.79-.02,1.17.52.85,1.24q-.13.28-.93.27Z"/>
  <path class="cls-2" d="m31.48,58.82c-.44,0-.97-.34-.99-.6-.05-.61.27-1.03.83-1.07.4-.03.84-.21,1.13.29.21.35.1,1.02-.28,1.19-.24.1-.5.14-.69.19Z"/>
  <path class="cls-2" d="m48.39,6.49c.28.17.68.27.8.52.11.22-.03.64-.19.88-.16.24-.47.39-.82.22-.06-.03-.14-.03-.21-.02-.16.02-.39.14-.46.08-.19-.17-.38-.39-.43-.63-.1-.43.32-.87.79-.91.16-.02.32-.04.48-.06.02-.03.03-.05.05-.08Z"/>
  <path class="cls-2" d="m34,33.93c.69-.04,1.09.19,1.13.64.03.37-.63,1.06-1.05,1.08-.5.02-1.01-.41-1.04-.87-.03-.5.33-.81.96-.85Z"/>
  <path class="cls-2" d="m72.31,22.96c0-.56.3-.86.86-.85.74,0,1.14.28,1.15.78,0,.53-.45.89-1.11.89-.68,0-.89-.2-.89-.82Z"/>
  <path class="cls-2" d="m4.29,40.5c-.89-.02-1.21-.41-.98-1.12.13-.41.47-.56.87-.42.17.06.37.13.54.1.28-.05.47-.03.62.25.15.29.1.54-.1.77-.26.3-.59.49-.95.42Z"/>
  <path class="cls-2" d="m48.05,26.24c-.73-.02-1.09-.33-1.01-.9.01-.11.06-.23.13-.31.36-.37,1.31-.46,1.67-.11.16.16.23.5.19.73-.04.26-.16.59-.55.58-.15,0-.29,0-.44,0Z"/>
  <path class="cls-2" d="m38.79,31.08c-.49,0-.81-.32-.84-.77-.04-.67.14-.93.73-1.02.42-.06,1.12.37,1.17.79.03.21-.05.52-.2.63-.26.19-.6.27-.86.37Z"/>
  <path class="cls-2" d="m1.3,63.61c-.42.03-.64-.14-.74-.46-.1-.32-.07-.59.24-.84.39-.31.78-.25,1.18-.13.37.11.55.38.49.77-.06.35-.24.58-.64.59-.2,0-.41.05-.53.07Z"/>
  <path class="cls-2" d="m2.13,38.24c-.67.05-1.14-.5-.96-1.12.08-.29.6-.55,1-.4.3.11.6.33.78.59.28.41.03.82-.47.91-.11.02-.23.02-.35.03Z"/>
  <path class="cls-2" d="m40.24,40.07c.51-.02.55.37.71.63.02.03-.21.3-.27.29-.21-.07-.42-.19-.58-.34-.08-.08-.11-.27-.08-.39.02-.09.18-.15.22-.18Z"/>
  <path class="cls-1" d="m17.39,75.89c-1.42.04-2.84.09-4.26.13-.39.01-.79.07-1.17.01-.18-.03-.43-.28-.45-.44-.05-.52,0-1.05,0-1.58,0-.16.02-.32.03-.48.02-.71.05-1.42.07-2.13,0-.45-.03-.91,0-1.35.03-.46.09-.92.2-1.37.03-.13.26-.28.4-.29.77-.04,1.55-.03,2.32-.04,1.06-.02,2.12-.03,3.18-.05.54-.01.92.27.87.81-.08.99.14,1.97-.09,2.96-.11.47.03.99.01,1.48-.02.58-.03,1.17-.14,1.74-.11.57-.31.66-.96.6Zm-2.56-2.72c.25-.02.5-.03.74-.06.48-.06.85-.54.83-1.08-.02-.53-.34-.86-.89-.87-.36,0-.73.02-1.09.05-.33.03-.48.27-.54.55-.03.16.03.35.04.52.05.55.37.85.91.88Z"/>
  <path class="cls-1" d="m6.86,31.44c.81-.05,1.63-.1,2.44-.15.51-.03,1.06.52,1.04,1.14-.02.51-.15,1.01-.25,1.51-.02.1-.12.23-.21.26-.39.11-.79.24-1.19.26-.66.03-1.33-.03-2-.02-.82,0-1.02-.14-1.08-.98-.03-.48,0-.98.07-1.46.05-.32.26-.59.67-.56.17,0,.35-.03.52-.05,0,.02,0,.05,0,.07Z"/>
  <path class="cls-1" d="m75.93,55.93c.79,0,1.58,0,2.36,0,.45,0,.86.32.92.78.08.53.11,1.07.13,1.61.01.33-.35.6-.74.6-1.02.01-2.04.02-3.06.03-.48,0-.99-.46-.99-.94,0-.49-.02-1,.09-1.47.05-.2.36-.39.6-.49.2-.09.46-.06.69-.09,0-.01,0-.02,0-.04Z"/>
  <path class="cls-1" d="m84.27,76.23c.03.66.08,1.32.09,1.97,0,.36-.08.72-.08,1.08.02,1.2.09,2.39.1,3.59,0,.53-.11,1.06-.13,1.59-.02.48-.31.63-.72.65-.92.04-1.84.08-2.76.09-1.7.01-3.39,0-5.09,0-.79,0-1.58.06-2.37.08-.45.01-.74-.17-.76-.65-.05-1.04-.12-2.07-.16-3.11-.03-.67-.03-1.35-.03-2.02,0-.21.11-.43.09-.64-.15-1.49.02-2.98-.08-4.48-.04-.54-.1-1.19.42-1.62.14-.11.37-.17.56-.17.72,0,1.45.03,2.17.03.57,0,1.14-.06,1.71-.05,1.29.01,2.58.06,3.87.06.55,0,1.11-.06,1.66-.12.91-.09,1.34.22,1.42,1.13.08.86.1,1.72.14,2.58-.02,0-.04,0-.07,0Zm-3.6,6.05c.93,0,1.23-.24,1.23-1.12,0-1.33-.03-2.66-.05-3.99,0-.26.04-.52-.02-.77-.07-.28-.15-.66-.35-.77-.33-.19-.76-.26-1.15-.27-.52-.02-1.04.08-1.56.09-1.02.02-2.04,0-3.06.04-.83.03-1.08.35-1.08,1.06,0,.62,0,1.24,0,1.86.01.95.03,1.9.06,2.85.01.43.13.9.59.98.75.13,1.53.19,2.29.19,1.05,0,2.1-.09,3.1-.13Z"/>
  <path class="cls-1" d="m72.22,13.63c-.05-1.07-.12-2.13-.13-3.2,0-.56.11-1.12.12-1.68.01-.52-.05-1.05-.06-1.58-.02-.72-.04-1.43-.05-2.15,0-.15.03-.3,0-.43-.13-.55.16-.93.52-1.27.06-.06.16-.1.23-.1.75.03,1.51.1,2.26.11.61,0,1.23-.04,1.84-.07,1.11-.04,2.22-.08,3.33-.13.58-.02,1.17-.09,1.75-.08.41,0,.83.06,1.24.14.11.02.25.21.27.34.07.56.12,1.13.16,1.69.06.92.23,1.86.1,2.76-.18,1.25.06,2.48-.02,3.71-.04.65.07,1.31.05,1.97,0,.37-.11.74-.22,1.09-.02.07-.22.13-.34.14-1.43.05-2.86.09-4.29.12-1.56.03-3.13.04-4.69.06-.33,0-.67.07-1,.07-.72,0-.94-.2-1.04-.91-.03-.2,0-.41,0-.61h-.01Zm9.19-2.49c-.04-.61-.09-1.01-.09-1.42.02-.88.06-1.75.1-2.63.02-.42-.26-1.07-.53-1.13-.39-.07-.8-.12-1.2-.12-.73.02-1.46.09-2.18.13-.79.04-1.58.03-2.36.11-.33.03-.72.17-.76.57-.06.56-.04,1.12-.04,1.69,0,.93.01,1.87.02,2.8,0,.62.3,1.14.73,1.15.85.03,1.69,0,2.54,0,.66,0,1.33.03,1.99.01.4,0,.84,0,1.2-.14.5-.2.64-.68.58-1.02Z"/>
  <path class="cls-1" d="m3.73,15.36c-.05-1.09-.1-2.17-.14-3.26,0-.16.05-.32.06-.48.03-.61.04-1.22.06-1.83.02-.44.05-.87.06-1.31.04-1.09.06-2.18.11-3.26.02-.48.25-.72.74-.74.58-.02,1.17,0,1.75-.01,1.1-.02,2.19-.06,3.29-.07.61,0,1.21.06,1.82.06.57,0,1.14-.05,1.71-.07.51-.02,1.02-.06,1.53-.03.36.03.63.24.61.67-.03.7-.05,1.41-.08,2.11-.03.86-.08,1.71-.08,2.57,0,.95.05,1.9.05,2.85,0,.66-.06,1.31-.09,1.97-.01.32.05.65-.02.96-.08.35-.17.64-.74.62-1.39-.04-2.79.08-4.19.12-.29,0-.59-.04-.88-.03-1.35.03-2.69.09-4.04.11-.49,0-1.05.21-1.42-.31-.13-.18-.22-.38-.33-.57.07-.02.13-.03.2-.05Zm3.97-8.24s0,.04,0,.06c-.26.02-.54,0-.79.07-.2.06-.48.21-.52.37-.15.61-.26,1.23-.3,1.86-.05.81-.02,1.63-.03,2.44,0,.26-.05.53-.06.79-.01.37.2.67.52.73.42.08.87.03,1.31.01.6-.02,1.2-.08,1.79-.08.78,0,1.57.03,2.35.02.56,0,.86-.31.88-.88.02-.57-.05-1.15.03-1.71.07-.52.2-1.03-.07-1.53-.04-.07-.01-.17,0-.26.02-.4.04-.8.08-1.19.05-.45-.26-.56-.58-.6-.82-.1-1.64.12-2.48-.07-.68-.15-1.41-.03-2.12-.03Z"/>
  <path class="cls-2" d="m14.83,73.18c-.54-.03-.86-.33-.91-.88-.01-.17-.08-.36-.04-.52.06-.28.21-.53.54-.55.36-.03.73-.06,1.09-.05.55,0,.88.34.89.87.02.53-.35,1.02-.83,1.08-.25.03-.5.04-.74.06Z"/>
  <path class="cls-2" d="m80.67,82.28c-1,.05-2.05.13-3.1.13-.76,0-1.54-.05-2.29-.19-.45-.08-.57-.55-.59-.98-.03-.95-.05-1.9-.06-2.85,0-.62,0-1.24,0-1.86,0-.71.26-1.03,1.08-1.06,1.02-.03,2.04-.02,3.06-.04.52-.01,1.04-.11,1.56-.09.39.02.82.08,1.15.27.2.12.29.5.35.77.06.24.01.51.02.77.02,1.33.06,2.66.05,3.99,0,.88-.3,1.12-1.23,1.12Z"/>
  <path class="cls-2" d="m81.41,11.14c.06.33-.08.81-.58,1.02-.36.15-.8.13-1.2.14-.66.02-1.33-.01-1.99-.01-.85,0-1.69.04-2.54,0-.43-.02-.72-.53-.73-1.15-.01-.93-.02-1.87-.02-2.8,0-.56-.02-1.13.04-1.69.04-.4.43-.54.76-.57.78-.07,1.57-.07,2.36-.11.73-.04,1.46-.11,2.18-.13.4,0,.81.04,1.2.12.28.05.55.7.53,1.13-.04.88-.09,1.75-.1,2.63,0,.41.05.82.09,1.42Z"/>
  <path class="cls-2" d="m7.7,7.13c.71,0,1.45-.12,2.12.03.84.19,1.66-.03,2.48.07.32.04.63.14.58.6-.05.4-.06.8-.08,1.19,0,.09-.03.19,0,.26.27.5.14,1,.07,1.53-.08.56,0,1.14-.03,1.71-.02.57-.31.87-.88.88-.78,0-1.57-.03-2.35-.02-.6,0-1.2.06-1.79.08-.44.01-.89.07-1.31-.01-.32-.06-.53-.36-.52-.73,0-.26.05-.53.06-.79.01-.81-.02-1.63.03-2.44.04-.62.15-1.25.3-1.86.04-.16.32-.31.52-.37.25-.07.52-.05.79-.07,0-.02,0-.04,0-.06Z"/>
</svg>