<?xml version="1.0" encoding="UTF-8"?>
<svg id="Layer_1" data-name="Layer 1" xmlns="http://www.w3.org/2000/svg" viewBox="0 0 278.66 239.55">
  <defs>
    <style>
      .cls-1 {
        fill: #221f20;
        stroke: #221f20;
        stroke-miterlimit: 10;
      }

      .cls-2 {
        fill: #fff;
        stroke-width: 0px;
      }
    </style>
  </defs>
  <path class="cls-1" d="m100.82.66l-40.83,9.22L.72,67.83l33.58,31.61,28.32-27-.66,166.61h152.12V71.78l31.61,30.29,32.27-34.24-53.34-54L178.52.66s0,7.9-5.27,16.46-11.85,16.46-17.12,18.44-14.85,7.24-26.85,1.32-17.78-13.17-17.78-13.17l-8.71-17.12-1.98-5.93Z"/>
  <path class="cls-2" d="m120.45,54.84c.22.14.39.23.54.33.98.66,2.05,1.11,3.18,1.46,1.46.45,2.95.85,4.34,1.52,1.25.61,2.58,1.03,3.86,1.6.96.43,1.89.94,2.83,1.42.31.16.37.44.34.73-.04.58-.09,1.15-.17,1.72-.12.93-.25,1.86-.37,2.78-.02.14-.02.29-.06.43-.13.44-.37.59-.82.49-.28-.06-.55-.17-.82-.28-1.42-.63-2.84-1.28-4.27-1.9-1.25-.54-2.51-1.07-3.78-1.58-.22-.09-.48-.05-.87-.09,1.79,4.76,4.06,9.14,6.08,13.68.03-.17.09-.34.08-.51-.12-1.36-.24-2.73-.38-4.09-.1-1.03-.22-2.05-.33-3.08-.02-.19-.04-.38-.03-.58.02-.59.12-.68.69-.58.68.12,1.45.11,2.01.45.96.57,2.15.56,2.99,1.35.09.08.2.13.32.17.87.31,1.75.61,2.71.94.07-.41.18-.82.19-1.24.04-1.47.03-2.93.06-4.4.04-1.97.09-3.94.15-5.91.02-.62.1-.67.71-.71.03-.04.08-.07.09-.11.2-.87.21-.9,1.08-.89.77.01,1.52-.09,2.27-.3.61-.17,1.22.09,1.79.36.11.05.18.22.23.34.75,1.92,1.5,3.85,2.23,5.78.26.67.43,1.38.71,2.04.35.81.81,1.58,1.17,2.39.62,1.38,1.2,2.77,1.8,4.16.07.16.14.3.21.46.43,1.01.88,2.02,1.27,3.05.3.79.72,1.4,1.72,1.56-.03-.49-.02-.96-.1-1.42-.25-1.44-.53-2.88-.82-4.32-.22-1.06-.46-2.11-.7-3.16-.17-.75-.35-1.5-.53-2.24-.12-.48.05-.75.56-.75.5,0,1,.07,1.5.16.99.16,1.98.37,2.97.53.39.06.68.24.87.56.3.49.58.99.86,1.5.4.74.71,1.54,1.19,2.22.71,1.02,1.07,2.19,1.67,3.26.96,1.72,1.89,3.45,2.82,5.19.3.57.58,1.15.92,1.81.05-.19.12-.3.11-.41-.15-.93-.31-1.85-.46-2.77-.29-1.73-.62-3.45-.85-5.19-.16-1.21-.28-2.43-.6-3.62-.16-.58.08-.84.68-.74,1.37.23,2.75.41,4.07.86.5.17.8.47.87,1.02.15,1.19.33,2.38.5,3.57.29,2.04.48,4.11.91,6.12.4,1.89.63,3.79.85,5.69.06.5.22.98.29,1.48.21,1.43.37,2.86.59,4.29.26,1.63.55,3.27.85,4.89.09.47.28.92.42,1.38.23.76-.09,1.18-.86,1.12-.62-.05-1.24-.12-1.86-.2-.57-.07-.7,0-.77.55-.07.59-.13,1.2-.11,1.8.07,1.94.17,3.89.28,5.83.11,1.94.24,3.87.36,5.81,0,.05-.06.12-.11.2-.26-.14-.21-.36-.22-.56-.07-1.46-.12-2.92-.22-4.38-.1-1.37-.25-2.73-.4-4.09-.17-1.53-.34-3.05-.54-4.58-.05-.34-.17-.72-.38-.99-.54-.68-.62-1.49-.77-2.29-.1-.54-.24-1.08-.48-1.56-.58-1.16-1.22-2.29-1.86-3.42-.86-1.53-1.73-3.04-2.59-4.57-.39-.69-.75-1.39-1.13-2.09-.02-.04-.03-.1-.06-.13-.65-.79-.97-1.75-1.48-2.62-.16-.27-.29-.55-.44-.82-.11-.19-.25-.37-.46-.53-.14,1.01.36,1.89.46,2.84.1.98.33,1.94.5,2.91s.32,1.94.47,2.91c.16.97.28,1.95.47,2.92.19.95.45,1.89.69,2.89-.26.03-.42.07-.58.07-.82,0-1.63-.05-2.45-.02-1.49.05-1.72-.09-2.19-1.5-.05-.16-.09-.33-.13-.49-.15-.52-.6-.69-1.06-.4-.14.09-.25.23-.38.33-.56.47-.83.42-1.17-.23-.17-.32-.29-.66-.44-.99-.35-.79-.65-1.61-1.07-2.35-.82-1.43-1.28-3-1.96-4.48-.1-.22-.21-.44-.27-.67-.25-.94-.92-1.38-1.78-1.69-.87-.32-1.7-.76-2.56-1.12-.73-.3-1.48-.55-2.27-.84-.06.18-.15.3-.15.43,0,1.49.02,2.98.05,4.47,0,.34.09.68-.25.92-.33.24-.58-.01-.86-.15-.06-.03-.14-.04-.27-.07-.39.42-.65.92-.61,1.52.09,1.27.21,2.54.31,3.81.03.39.25.63.6.72.55.15,1.12.26,1.67.41.46.12.93.23,1.36.44.51.25.88.67,1,1.25.17.85.36,1.69.5,2.54.11.73.14,1.48.24,2.22.05.4.18.79.28,1.18.07.28.18.55.22.83.26,1.56.51,3.13.74,4.7.3,2.02.5,4.05.87,6.06.28,1.52.35,3.05.59,4.56.19,1.18.47,2.36.72,3.53.11.52.24,1.03.35,1.55.17.82-.03,1.09-.85,1.07-.91-.02-1.82-.07-2.7-.37-.17-.06-.38-.04-.57-.05-.8-.03-1.31-.44-1.53-1.19-.13-.44-.22-.89-.27-1.34-.07-.56-.27-1.05-.58-1.53-.73-1.16-1.42-2.34-2.09-3.53-.96-1.69-1.89-3.4-2.87-5.08-.61-1.03-1.33-2-1.96-3.01-.38-.61-.7-1.25-1.04-1.88-.11-.21-.22-.42-.34-.65-.28.15-.23.37-.2.57.17,1.02.33,2.04.51,3.06.19,1.16.4,2.32.59,3.48.3,1.82.57,3.65.87,5.47.05.3.19.59.28.89.1.33.19.67.29,1.07-.25.02-.42.08-.57.05-.83-.16-1.67-.05-2.5-.04-.5,0-1-.06-1.51-.1-.38-.03-.6-.25-.74-.59-.32-.81-.52-1.64-.63-2.5-.28-2.24-.52-4.49-.97-6.7-.57-2.78-1.01-5.58-1.51-8.37-.5-2.77-1-5.53-1.51-8.29-.09-.5-.27-.97-.38-1.47-.13-.61.03-.83.66-.77.76.07,1.52.24,2.27.36.78.13,1.57.23,2.34.39.26.05.55.19.74.38.29.28.54.61.75.96.59,1.02,1.14,2.06,1.72,3.08.19.33.42.64.62.97.17.29.33.58.49.87.43.78.87,1.55,1.28,2.33.71,1.34,1.39,2.68,2.09,4.02.3.59.63,1.16,1.03,1.68.06-.01.12-.02.18-.04.01-.27.07-.54.03-.8-.21-1.38-.44-2.75-.68-4.13-.28-1.58-.59-3.16-.9-4.74-.1-.49-.24-.98-.35-1.47-.04-.19-.09-.38-.09-.57,0-.55.05-.62.58-.85.13-.05.26-.12.4-.19,0-1.33.02-2.66-.43-3.9-.28-.78-.75-1.5-1.18-2.22-.12-.2-.41-.32-.65-.41-.87-.34-1.2-.73-1.19-1.67.02-1.44.08-2.88.13-4.32.03-.96-.4-1.63-1.29-2.02-.2-.09-.37-.22-.56-.32-.3-.14-.53-.04-.58.3-.04.26-.03.53,0,.79.22,1.93.45,3.86.95,5.75.23.87.23,1.8.33,2.71.03.3-.16.44-.44.45-.43,0-.86,0-1.3,0-.92,0-1.77.25-2.61.64-.55.26-1.18.37-1.79.5-.15.03-.38-.1-.49-.23-.22-.25-.42-.53-.56-.83-.6-1.25-1.19-2.52-1.77-3.78-.7-1.52-1.4-3.05-2.09-4.58-.78-1.73-1.55-3.47-2.3-5.2-.54-1.23-1.04-2.48-1.57-3.71-.35-.81-.73-1.62-1.1-2.42-.47-1-.95-1.99-1.4-2.99-.17-.37-.26-.77-.4-1.15-.05-.13-.13-.24-.25-.46-.2.3-.35.52-.51.76-.71.05-1.24-.42-1.84-.68-.4-.17-.77-.38-1.16-.58-2.14-1.08-4.29-2.15-6.43-3.23-.16-.08-.35-.13-.61-.22,0,.24-.02.4,0,.54.08.4.21.79.27,1.2.08.56.43.81.89,1.11.99.66,2.11,1,3.16,1.53.09.04.2.06.25.13.47.67,1.28.82,1.88,1.29.18.14.43.2.65.3.28.13.56.26.84.4.36.18.72.37,1.08.56.28.15.56.28.82.45.32.22.47.53.42.93-.18,1.38-.36,2.76-.52,4.14-.04.35,0,.71,0,1.11-.38.29-.82.24-1.26.07-.33-.13-.65-.3-.97-.47-1.4-.74-2.8-1.49-4.2-2.22-.22-.12-.48-.16-.75-.26-.04.17-.09.26-.08.35.09.81.19,1.62.28,2.43.05.44.29.65.69.82,1.01.43,2.01.9,2.99,1.39s1.91,1.08,2.97,1.44c.51.17.98.5,1.45.79,1.1.68,2.2,1.36,3.28,2.07.38.25.42.55.3,1.02-.33,1.2-.67,2.4-.97,3.62-.1.41-.09.86-.13,1.29-.05.48-.27.63-.73.48-.16-.05-.31-.14-.44-.23-1.56-1.09-3.17-2.08-4.92-2.84-1.43-.62-2.87-1.23-4.29-1.86-.68-.3-1.34-.66-2.01-.98-1.03-.5-2.08-.99-3.11-1.5-.51-.26-1.01-.55-1.52-.82-.12-.07-.25-.14-.38-.19-.75-.29-.81-.37-.76-1.17.1-1.49.19-2.98.35-4.46.08-.68.33-1.35.52-2.01.03-.11.08-.26.16-.31.62-.38.47-.92.34-1.47-.05-.19-.08-.37-.12-.56-.07-.33-.26-.55-.58-.67-.25-.09-.47-.26-.73-.3-.55-.11-.68-.47-.65-.95.04-.67.1-1.34.14-2.01.05-.84,0-1.68.23-2.5.16-.58.11-1.19-.12-1.77-.12-.31-.12-.66-.21-.99-.22-.76-.48-1.5-.7-2.26-.1-.34-.16-.7-.21-1.05-.1-.59-.16-1.18-.27-1.77-.09-.51-.19-.97.26-1.4.2-.19.25-.56.35-.85.16-.49.23-1.03.66-1.47.35.21.69.42,1.05.61.75.41,1.49.88,2.28,1.21.77.32,1.4.83,2.1,1.24,1,.58,2,1.14,3,1.71.08.05.18.08.27.09,1.15.23,2.18.71,3.04,1.51.12.11.28.18.44.24,1.24.46,2.43,1.03,3.57,1.71.08.05.17.09.26.13.52.23.67.13.76-.44.09-.54.21-1.08.33-1.62.02-.1.13-.19.25-.34h0Zm25.81,19.73c.05-.05.11-.11.16-.16-.33-.81-.64-1.63-1-2.43-.37-.81-.66-1.65-1.17-2.56-.09.27-.14.37-.16.48-.08.37-.15.74-.22,1.11-.14.8,0,1.56.26,2.32.19.55.71.59,1.1.82.12.07.25.15.38.2.21.08.43.15.65.22h0Z"/>
  <path class="cls-2" d="m165.37,100.24c.29.19.54.33.76.51.14.12.28.26.37.43.51.95,1.01,1.91,1.5,2.87.05.11.13.22.14.33.06.68.35,1.24.84,1.71.07.07.09.21.13.33-.33.3-.69.38-1.08.28-.55-.13-1,.05-1.5.28-1,.45-1.92,1.07-3.02,1.32-.47.11-.91.41-1.34.67-.59.36-1.15.76-1.73,1.15.23.74.93,1.05,1.53,1.48.34.25.66.54,1,.81.34.26.69.51,1.03.78,1.17.92,2.32,1.85,3.49,2.77.94.74,1.89,1.47,2.84,2.2.36.27.44.58.27,1.01-.41,1.02-.75,2.08-1.21,3.08-.66,1.44-.62,2.93-.47,4.45.17,1.65.29,3.3.44,4.95.06.66.02,1.35.44,1.94.03.04.04.1.07.12.8.69,1.17,1.68,1.8,2.5.42.54.7,1.19,1.07,1.78.51.82.91,1.69,1.13,2.64.08.34.31.65.4,1,.23.9.53,1.81.61,2.73.13,1.62.22,3.27-.16,4.88-.18.77-.4,1.53-.88,2.19-.17.23-.28.5-.41.76-.42.83-.97,1.52-1.82,1.97-.69.37-1.3.89-1.97,1.28-.41.24-.87.39-1.31.56-.51.19-1.05.33-1.55.53-.92.37-1.87.64-2.84.72-.6.05-1.23-.2-1.84-.29-.61-.09-1.24-.13-1.85-.26-.8-.16-1.59-.35-2.37-.58-.37-.11-.68-.35-.78-.78-.42-1.8-.63-3.63-.68-5.54.48.02.79-.23,1.02-.62.19-.31.53-.27.85-.27.35,0,.71,0,1.09,0,.16-.68.03-1.32-.02-1.95-.05-.65-.15-1.29-.21-1.93-.12-1.27-.22-2.53-.37-3.8-.2-1.74-.43-3.48-.65-5.22-.07-.56-.14-.66-.73-.66-.78,0-1.56.05-2.38.09.03.23.02.43.09.6.54,1.47.57,3,.7,4.54.13,1.55.06,3.07-.14,4.6-.2,1.52-.68,2.96-1.31,4.33-.61,1.31-1.54,2.43-2.81,3.21-.29.18-.56.38-.82.59-.68.57-1.47.9-2.36.97-.3.02-.61-.03-.91-.09-.33-.06-.64-.2-.97-.27-.57-.11-1.07-.26-1.47-.78-.24-.32-.72-.45-1.08-.67-1.24-.75-2.25-1.74-3.14-2.89-.95-1.22-1.66-2.57-2.44-3.89-.11-.18-.18-.39-.3-.66-.12.15-.21.23-.26.34-.03.08,0,.19,0,.29.07.7-.1,1.31-.58,1.86-.6.71-1.15,1.46-1.7,2.21-.19.25-.4.4-.72.4-.14,0-.28.05-.42.09-1.42.41-2.86.3-4.28.02-.85-.16-1.67-.44-2.5-.7-.22-.07-.43-.21-.63-.34-.34-.22-.66-.48-1.02-.67-1.63-.84-2.95-2.04-4.11-3.43-.35-.42-.65-.9-.87-1.4-.5-1.14-.93-2.31-1.39-3.47-.05-.13-.09-.28-.18-.39-.61-.88-.79-1.89-.96-2.91-.15-.92-.41-1.83-.49-2.76-.16-1.99-.23-3.99.09-5.97.15-.92.47-1.8.72-2.71.04-.16.13-.32.14-.48.03-.4.18-.74.45-1.03.41-.44.55-1,.7-1.56.02-.09.04-.2.02-.28-.38-1.19-.24-2.43-.37-3.64-.1-.96-.26-1.9-.33-2.86-.06-.81-.51-1.37-1-1.94-.64-.75-1.33-1.47-1.83-2.3-.6-.98-1.08-2.03-1.51-3.1-.62-1.56-1.19-3.14-1.71-4.74-.29-.89-.43-1.82-.63-2.74-.23-1.06-.47-2.11-.68-3.17-.24-1.2-.46-2.41-.68-3.61-.26-1.49-.51-2.99-.76-4.48-.17-1.02-.32-2.04-.48-3.06-.03-.19-.04-.38-.03-.58.03-.43.25-.66.69-.68,1.41-.05,2.83-.09,4.24-.11.6,0,1.38.64,1.53,1.31.19.82.35,1.65.44,2.48.23,2.1.47,4.19.79,6.28.27,1.81.7,3.58,1,5.38.16.92.46,1.82.74,2.71.33,1.03.66,2.06,1.07,3.05.59,1.41,1.19,2.82,2.11,4.08.43-.13.5-.46.52-.8.06-.79.15-1.58.14-2.37-.02-1.78-.08-3.56-.13-5.33-.04-1.17,0-2.36-.16-3.52-.29-1.99-.71-3.97-1.1-5.94-.26-1.32-.58-2.63-.89-3.93-.08-.32-.2-.64-.33-.94-.28-.66-.09-1.03.63-1.09,1.16-.09,2.32-.13,3.49-.2.58-.03.99.25,1.37.66.57.61.8,1.3.88,2.13.09,1,.41,1.97.63,2.96.85,3.79,1.36,7.62,1.62,11.48.04.6.17,1.19.19,1.79.05,1.35.06,2.69.07,4.04,0,.23-.06.47-.12.7-.14.53-.33,1.06-.44,1.6-.17.88-.56,1.66-1.2,2.26-.37.34-.88.62-1.37.72-1.31.26-2.65.46-3.98.59-.53.05-1.1-.06-1.62-.21-1.12-.31-1.22-.24-1.1.88.19,1.74.35,3.49.54,5.23.03.32.11.64.2,1.13.27-.24.45-.35.56-.51.26-.35.51-.69.96-.83.11-.03.19-.14.28-.22,1.54-1.31,3.24-1.89,5.17-.98,1.76.83,3.48,1.79,4.77,3.27,1.21,1.38,2.4,2.82,3.13,4.56.29.7.68,1.36,1.06,2.11.14-.13.31-.22.35-.35.2-.64.54-1.24.44-1.95-.05-.37.06-.66.35-.89.13-.1.29-.22.34-.36.35-1.07,1.33-1.51,2.16-2.01.48-.29,1.22-.29,1.83-.24,1.54.11,3.03.51,4.46,1.09.87.35,1.61.92,2.36,1.48.73.54,1.51,1.03,2.17,1.65.62.58,1.13,1.28,1.73,1.98.06-.13.14-.24.15-.36.02-.38-.02-.77,0-1.15.02-.51.13-.65.61-.75,2.04-.4,4.09-.6,6.13,0,.66.19,1.31.44,1.98.64.97.28,1.95.51,2.91.8.38.12.75.33,1.06.57.7.55,1.33,1.18,2.04,1.72.42.32.9.58,1.54.76-.14-1.17-.26-2.21-.38-3.25-.03-.26-.06-.53-.09-.79-.09-.91-.19-1.81-.25-2.72-.06-.96-.56-1.74-1.03-2.5-.27-.44-.84-.69-1.27-1.03-.77-.62-1.51-1.26-2.29-1.85-.63-.48-1.33-.87-1.95-1.35-.74-.57-1.44-1.19-2.17-1.78-.18-.15-.38-.26-.6-.41-.28.39-.2.75-.12,1.09.42,1.95.85,3.9,1.27,5.85.05.24,0,.51,0,.82-.97.09-1.9.17-2.82.25-.43.04-.86.07-1.3.07-.64-.01-.84-.23-.94-.85-.09-.54-.25-1.07-.36-1.61-.21-1.03-.44-2.07-.61-3.11-.25-1.49-.47-2.99-.67-4.49-.12-.86-.4-1.66-.61-2.54-.26.08-.44.15-.62.18-.33.05-.66.1-.99.12-.28.02-.42-.15-.47-.43-.26-1.44-.52-2.88-.8-4.32-.06-.33-.15-.65-.28-.96-.31-.72-.05-1.36.68-1.61.09-.03.19-.04.28-.07.51-.16.73-.43.63-.97-.39-2.1-.48-4.25-1.03-6.33-.19-.71-.2-1.48-.23-2.22-.02-.6.12-.75.72-.87,1.33-.26,2.66-.37,4-.12.63.12.72.24.84.89.09.52.25,1.03.34,1.55.31,1.87.6,3.74.9,5.61.02.14.06.28.08.43.05.35.27.52.6.48.38-.05.77-.1,1.11-.24,1.28-.53,2.55-1.11,3.83-1.66.09-.04.2-.04.27-.1.76-.68,1.8-.73,2.68-1.2h0Zm-41.98,33.39c.07.82.09,1.62.23,2.39.12.65.35,1.29.59,1.92.3.78.61,1.57,1.03,2.29.3.5.72,1,1.21,1.3.73.44,1.55.75,2.36,1.04.49.18,1.03.27,1.55.3.88.04,1.54-.38,1.85-1.21.17-.44.26-.92.33-1.38.1-.69.12-1.39.2-2.08.21-1.61-.13-3.16-.54-4.69-.11-.41-.38-.78-.49-1.2-.5-1.8-1.49-3.25-2.92-4.42-1.06-.86-2.1-.95-3.21-.22-.16.11-.32.21-.48.31-.8.54-1.27,1.36-1.44,2.24-.21,1.12-.19,2.29-.27,3.42h0Zm27.18,6.28c0-1.58-.28-3.08-1.01-4.47-.34-.65-.52-1.38-1.06-1.95-1.2-1.28-2.73-1.84-4.39-2.11-.85-.14-1.42.24-1.77,1.03-.33.75-.51,1.53-.61,2.36-.25,2.19-.28,4.35.48,6.46.03.09.06.18.08.28.37,1.86,1.42,3.34,2.67,4.69,1.18,1.27,2.97.77,3.97-.08.44-.38.72-1.02.92-1.6.21-.6.26-1.26.36-1.9.13-.9.23-1.8.35-2.71h0Zm14.07,9.03c1.96-.21,2.03-.23,3.43-1.33.44-.34.74-.86,1.1-1.3.49-2.49.15-4.77-1.67-6.67-.32-.34-.75-.57-1.14-.86-.81-.6-1.57-1.27-2.57-1.55-.17-.05-.42-.12-.52-.03-.1.09-.1.34-.08.52.14,1.17.38,2.32.45,3.49.16,2.59.46,5.15.98,7.74h0Zm-3.94-40.59c.03.05.05.11.08.16.19-.08.4-.12.56-.24.44-.33.92-.47,1.47-.5.25-.01.49-.16.73-.25.64-.25,1.27-.53,1.93-.74.46-.15,1.22-.59,1.52-1.03-.18-.02-.36-.09-.49-.05-.56.21-1.16.37-1.63.72-.86.63-1.84.91-2.82,1.2-.52.16-.95.41-1.35.73h0Z"/>
  <path class="cls-2" d="m136.74,171.57c-.17-1.26-.36-2.48-.51-3.71-.13-1.11,0-1.23,1.12-1.04.33.06.65.17.98.23.42.06.59-.07.61-.5.02-.36,0-.72-.04-1.08-.15-1.02-.34-2.04-.48-3.06-.14-.95-.23-1.9-.36-2.86-.05-.38-.13-.75-.19-1.13-.02-.09-.06-.19-.05-.28.05-1.05.1-2.1.15-3.23.27.03.48.02.68.08.55.16,1.09.36,1.64.51.76.21,1.53.41,2.3.59,1.16.28,2.28.76,3.49.82.02,0,.05,0,.07.02,1,.68,2.2.58,3.3.88.74.21,1.49.37,2.23.54.23.05.47.08.71.09.73.02,1.42.19,2.11.43,1.06.36,1.6,1.1,1.71,2.17.09.84.13,1.68.17,2.51.1,1.99.19,3.98.28,5.98,0,.05,0,.1.01.14.23,1.26.08,1.11,1.3,1.29.14.02.29.02.43.05.61.1.77.26.85.88.23,1.76.45,3.52.68,5.28,0,.07.02.14.02.22.03.5-.14.64-.65.55-.4-.07-.8-.14-1.21-.18-.16-.02-.32.04-.57.09.11,1.25.2,2.47.32,3.68.11,1.15.26,2.29.39,3.43.17,1.6.32,3.2.51,4.8.14,1.16-.11,1.41-1.24,1.19-.89-.18-1.8-.31-2.7-.46-.26-.04-.53-.06-.78-.14-.57-.17-.99-.5-1.1-1.12-.07-.4-.11-.81-.15-1.21-.09-1.05-.15-2.1-.26-3.15-.1-.98-.25-1.95-.37-2.92-.19-1.57-.38-3.14-.58-4.71-.1-.79-.38-.97-1.19-1.01-.49-.02-.98-.17-1.46-.28-.83-.2-1.66-.41-2.61-.65,0,.36-.04.61-.02.85.11,1.56.21,3.12.36,4.67.15,1.53.36,3.05.53,4.58.03.26.02.53.05.79.04.4.04.82.17,1.2.13.4-.1.65-.27.91-.05.09-.31.1-.45.06-.34-.1-.67-.24-1.05-.39-.37.51-.84.32-1.31.19-.58-.16-1.16-.28-1.74-.43-.35-.09-.68-.21-1.03-.29-.48-.11-.63-.4-.66-.87-.1-1.56-.23-3.12-.36-4.67-.19-2.2-.37-4.41-.59-6.6-.13-1.34-.31-1.48-1.64-1.61-.09,0-.18,0-.35.02.03.19.03.35.09.49.19.44.41.87.61,1.31.09.19.18.4.19.61.09,1.58.43,3.15.11,4.74-.06.31.02.67.11.98.1.35.02.59-.24.83-.42.4-.82.81-1.2,1.24-1.15,1.29-2.61,1.71-4.29,1.52-.5-.05-1-.09-1.51-.15-.74-.1-1.47-.22-2.21-.32-1.24-.17-2.47-.33-3.71-.5-.86-.12-1.72-.18-2.57-.35-1.1-.23-2.18-.57-3.27-.82-.47-.11-.71-.42-.78-.84-.23-1.28-.48-2.55-.4-3.86.01-.21.08-.44-.27-.56-.32.34-.65.71-.98,1.07-1.03,1.14-2.36,1.01-3.2.45-.39-.26-.69-.66-1.03-.99-.87-.85-1.45-1.88-1.99-2.96-.27-.53-.7-.97-1.02-1.47-.26-.4-.47-.84-.7-1.25-.07-.12-.12-.26-.22-.37-.89-1.07-1.37-2.35-1.95-3.59-.13-.28-.33-.53-.48-.81-.17-.32-.3-.65-.46-.97-.25-.49-.48-.99-.79-1.45-.25-.38-.69-.41-.99-.06-.8.93-1.57,1.87-1.65,3.2-.03.52-.21,1.03-.34,1.54-.15.58-.33,1.15-.48,1.73-.21.83-.41,1.66-.6,2.5-.06.26-.06.53-.1.79-.12.69-.28,1.33-.91,1.8-.41.31-.69.79-1.03,1.2-.45.53-.63.54-1.07,0-.53-.65-.98-1.34-1.38-2.09-.4-.74-.68-1.59-1.38-2.16-.14-.12-.17-.38-.23-.59-.26-.94-.16-1.91-.17-2.87,0-.76-.09-1.53-.16-2.29-.09-1.1-.2-2.2-.31-3.3-.07-.67-.12-1.35-.26-2-.24-1.1-.83-1.58-1.97-1.62-.87-.03-1.16-.71-1.47-1.3-.38-.72-.66-1.49-.97-2.24-.1-.24-.17-.5-.19-.75-.03-.58-.03-1.15-.03-1.73,0-.84.61-1.34,1.39-1,1.36.59,2.81.57,4.24.68,1.21.1,2.45,0,3.67-.02.63-.02.73-.16.73-.79,0-.51.02-1.01.03-1.51.06-1.58-.26-3.1-.66-4.62-.31-1.18-.54-2.39-.81-3.58-.03-.14-.06-.28-.07-.43-.02-.43.1-.61.52-.74.71-.22,1.42-.44,2.13-.61.46-.11.94-.17,1.42-.2.17-.01.37.08.52.18.41.27.56.7.65,1.16.38,1.9.75,3.81,1.16,5.71.18.84.43,1.67.65,2.5.09.35.23.7.23,1.05,0,.91.4.92,1.24.83,1.08-.12,2.03-.54,3.02-.89.18-.06.35-.16.51-.26,1.1-.65,2.08-.38,2.62.77.35.75.82,1.45.81,2.36,0,.35.24.72.43,1.05.33.59.41,1.18.29,1.87-.14.79-.25,1.59-.06,2.42.15.65.08,1.34.14,2.01.16,1.67.33,3.34.5,5.02.07.72.15,1.43.22,2.15.02.25-.04.47-.36.64-.04-.23-.08-.4-.09-.58-.1-1.46-.09-2.94-.31-4.38-.26-1.66-.15-3.36-.57-5.01-.14-.54-.42-.96-.71-1.39-.09-.14-.48-.16-.72-.13-.85.13-1.57.59-2.28,1.03-.29.18-.54.4-.83.57-.32.19-.41.45-.33.79.05.19.08.38.16.55.37.75.75,1.5,1.15,2.24.48.89.98,1.76,1.47,2.64.19.33.4.65.58.99.28.53.58,1.04.8,1.59.59,1.46,1.71,2.53,2.7,3.7.43.51.74,1.12,1.14,1.66.32.43.68.83,1.08,1.31.38-.95-.23-1.68-.24-2.49.81,0,1.3.78,2.13.66.02-.19.05-.38.04-.55-.09-.81-.2-1.62-.29-2.43-.21-1.91-.4-3.82-.62-5.72-.07-.64-.24-1.28-.32-1.92-.19-1.48-.37-2.95-.54-4.43-.12-1.02-.23-2.04-.34-3.16-.46,0-.88.02-1.31,0-.62-.03-.83-.27-.79-.86.08-1.44.15-2.88.24-4.32.04-.6.12-1.2.2-1.79.08-.51.29-.66.78-.62.45.04.9.1,1.35.09,1.38-.04,2.63.47,3.94.77,1.74.38,3.3,1.16,4.82,2.03.5.29,1.02.54,1.47.89.58.45,1.13.95,1.63,1.49,1.33,1.4,2.31,3.06,3.3,4.7.9,1.49,1.55,3.09,1.47,4.89-.02.4.13.82.11,1.22-.08,1.12-.22,2.24-.34,3.37-.02.14-.06.3-.15.4-.4.49-.19.92.14,1.29.4.44.86.84,1.29,1.24.05.04.12.05.22.08h0Zm8.55-2.95c.38.08.86.1,1.25.29,1.11.53,2.31.6,3.48.82.71.13.91-.24.85-.83-.11-.95-.16-1.91-.19-2.88-.05-1.22-.07-1.28-1.27-1.61-.14-.04-.28-.06-.42-.09-.85-.16-1.69-.33-2.54-.48-.4-.08-.8-.17-1.21-.2-.49-.04-.61.09-.57.58.1,1.05.21,2.1.34,3.14.05.37.16.73.28,1.26h0Zm-21.05-10.5c0,.25-.03.48,0,.71.07.52.19,1.04.26,1.56.16,1.28.3,2.57.46,3.86.08.62.28.78.89.82.33.02.67.03,1,.07.99.1,1.9-.07,2.71-.69.73-.55.87-1.14.38-1.92-1.04-1.66-2.47-2.92-4.14-3.92-.44-.26-.92-.52-1.57-.48h0Zm6.13,19.11c.91-.05,1.66-.04,2.39-.15.65-.09.9-.9.47-1.4-.61-.72-1.3-1.34-2.24-1.61-.48-.14-.96-.28-1.44-.42-.87-.26-1.73-.55-2.6-.79-.42-.12-.89-.01-.82.65.1.88.19,1.76.32,2.64.1.7.14.73.85.81,1.07.11,2.15.19,3.06.27h0Z"/>
  <path class="cls-2" d="m182.46,204.96c-.28-.23-.54-.4-.75-.62-.39-.43-.74-.89-1.1-1.33-.05-.05-.1-.12-.12-.18-.2-1.2-1.21-1.93-1.72-2.95-.49-.96-1.17-1.8-1.62-2.79-.44-.95-1.07-1.81-1.63-2.71-.34-.55-.69-1.1-1.04-1.64-.59-.9-1.2-1.79-1.78-2.7-.59-.93-1.15-1.88-1.73-2.81-.24-.38-.52-.74-.78-1.11-.51-.73-1-1.47-1.53-2.18-.31-.4-.52-.42-.83-.12-.12.11-.19.33-.19.49.02.4.12.81.17,1.21.18,1.31.34,2.61.52,3.92.07.55.15,1.1.23,1.64.05.33-.07.48-.41.52-1,.1-2.01.2-3,.35-.32.05-.63.22-.93.37-.31.16-.54.1-.77-.14-.26-.27-.42-.57-.47-.95-.14-1.27-.3-2.53-.44-3.79-.18-1.62-.4-3.24-.51-4.87-.1-1.64-.36-3.24-.61-4.86-.19-1.21-.24-2.43-.4-3.64-.25-1.88-.54-3.76-.8-5.63-.06-.46-.29-.75-.73-.87-.26-.07-.51-.17-.76-.2-.36-.04-.51-.25-.51-.58-.03-1.46-.07-2.93-.08-4.39,0-.48.08-.96.1-1.44.02-.36.17-.53.54-.52.52.01,1.03-.04,1.55.18.38.16.85.11,1.28.16.21.02.44.01.64.08,1.13.39,2.24.81,3.37,1.21.34.12.7.17,1.03.3.89.34,1.78.7,2.66,1.07.24.1.43.3.64.46.25.18.48.41.76.54.76.35,1.36.9,1.94,1.47.29.28.47.65.71.99.56.78,1.13,1.55,1.67,2.34.48.71.96,1.43,1.38,2.18.23.41.4.88.49,1.35.22,1.25.4,2.51.54,3.78.12,1.21-.41,2.23-1.04,3.21-.46.71-.92,1.4-1.56,1.96-.19.17-.17.37-.05.58.28.5.52,1.03.81,1.52.68,1.18,1.31,2.4,2.1,3.5.63.88,1.14,1.82,1.69,2.74.7,1.14,1.4,2.29,2.11,3.43.67,1.08,1.36,2.15,2.04,3.22.74,1.17,1.49,2.34,2.23,3.51.39.62.46,1.32.36,2.02-.09.62-.63,1.02-1.13,1.1-.77.12-1.17.69-1.75,1.04-.24.15-.45.35-.77.6h0Zm-15.13-28.6c.61-.09,1.23-.24,1.85-.25.71,0,1.25-.28,1.71-.78.23-.25.49-.47.68-.75.11-.15.19-.42.13-.57-.58-1.45-1.37-2.77-2.71-3.63-.65-.42-1.43-.65-2.17-.92-.38-.14-.63.16-.6.64.13,1.87.26,3.74.39,5.61.04.55.15.65.72.65h0Z"/>
  <path class="cls-2" d="m107.61,121.5c.23.85.4,1.73.71,2.55.44,1.14.48,1.13,1.69,1.47,1.27.36,2.53.72,3.79,1.08.57.17,1.14.36,1.71.54.32.1.56.25.58.64.09,1.82.2,3.65.29,5.47.02.29,0,.58-.03.86-.05.45-.16.51-.62.43-.14-.03-.29-.05-.42-.1-1.19-.56-2.5-.68-3.74-1.04-.32-.09-.64-.18-1.04-.3-.03.22-.09.4-.06.57.05.33.13.66.21.99.31,1.21.64,2.41.93,3.62.26,1.07.44,2.16.7,3.23.12.49.32.96.49,1.43.07.18.16.35.23.53.34.91.18,1.19-.77,1.38-.42.09-.84.19-1.25.3-1.2.34-2.42.32-3.65.29-.39,0-.56-.24-.66-.55-.15-.51-.3-1.01-.41-1.53-.23-1.08-.41-2.17-.65-3.25-.17-.77-.41-1.53-.6-2.3-.35-1.37-.69-2.75-1.02-4.13-.06-.26-.05-.53-.09-.79-.11-.69-.33-.87-1-1.01-.92-.19-1.82-.44-2.73-.66-.54-.13-.79-.46-.82-1.02-.07-1.37-.19-2.73-.27-4.1-.05-.77-.05-1.54-.06-2.3,0-.26.03-.51.05-.82.87.18,1.58.8,2.45.54.03-.09.08-.16.07-.22-.26-1.19-.53-2.39-.79-3.58-.1-.44-.19-.89-.31-1.33-.15-.58-.56-.95-1.07-1.2-.52-.25-1.05-.47-1.58-.7-.85-.38-1.7-.76-2.56-1.14-.32-.14-.4-.36-.38-.69.04-.74.03-1.49.05-2.23,0-.19-.04-.4.03-.57.29-.7.21-1.4.18-2.13-.03-.67.06-1.34.14-2.01.07-.63.34-.78.94-.58.23.08.47.15.66.29,1.12.85,2.38,1.42,3.7,1.87.22.07.42.22.62.34.1.06.19.16.29.21.88.44,1.75.86,2.63,1.29.44.22.82.56,1.36.62.32.04.59.37.9.54.78.41,1.56.83,2.36,1.19.59.26,1.22.43,1.82.67.31.12.59.3.89.45.21.11.42.23.64.31.59.21,1.18.39,1.77.59.09.03.19.06.26.12.61.58,1.43.63,2.17.88.43.15.86.3,1.27.49.43.2.52.41.4.87-.12.44-.11.84.03,1.27.08.27.06.57.08.86.03.5.06,1,.08,1.51.01.22.03.43.02.65-.04.65-.09,1.29-.14,1.94-.02.22-.03.43-.06.65-.11.69-.24.78-.9.61-.14-.04-.28-.08-.4-.15-1.71-1.04-3.6-1.69-5.45-2.41-1-.39-1.99-.83-2.99-1.24-.17-.07-.35-.12-.52-.17-.05.05-.1.09-.15.13h0Zm-1.73-8.51l-.09.2c.14.11.26.26.42.33.49.24.98.47,1.48.68.74.33,1.48.68,2.24.96.44.16.93.18,1.38.32.44.14.86.35,1.3.53-.1-.18-.28-.23-.37-.35-.5-.7-1.33-.81-2.01-1.17-.78-.41-1.62-.68-2.45-1-.61-.23-1.24-.45-1.89-.52h0Z"/>
  <path class="cls-2" d="m100.36,92.37c-.06-.16-.17-.31-.18-.47-.04-.72-.02-1.45-.07-2.18-.06-.83-.18-1.66-.27-2.49-.15-1.42-.3-2.85-.44-4.27-.1-1.01-.24-2.01-.96-2.81-.08-.09-.14-.2-.24-.27-.84-.6-1.4-1.4-1.81-2.36-.33-.77-.79-1.48-1.21-2.2-1.32-2.2-2.67-4.39-3.97-6.59-.76-1.28-1.44-2.6-2.18-3.9-.2-.35-.47-.66-.69-1.01-.89-1.42-1.87-2.81-2.64-4.29-.79-1.52-1.83-2.87-2.67-4.34-.76-1.33-1.47-2.7-2.21-4.04-.47-.86-.98-1.7-1.45-2.57-.33-.61-.59-1.26-.92-1.87-.29-.52-.65-1.01-.97-1.51-.08-.12-.16-.24-.23-.37-.3-.57-.19-.84.42-.87.47-.03.81-.23,1.17-.49.43-.31.88-.58,1.32-.87.41-.27.82-.48,1.34-.41.19.03.4-.11.65-.18.12.22.23.42.35.62.52.89,1.08,1.76,1.55,2.67.35.67.59,1.4.87,2.11.26.65.5,1.3.75,1.95.03.09.08.19.15.24.89.61,1.14,1.65,1.63,2.51.54.93,1.01,1.9,1.52,2.85.24.44.53.86.75,1.31.17.34.28.71.42,1.07.22.55.37,1.15.68,1.65.53.88,1.16,1.71,1.73,2.56.31.46.59.93.88,1.4.55.9,1.08,1.81,1.64,2.7.12.19.34.31.53.47.12-.12.23-.19.24-.26.05-.63.46-1.17.4-1.83-.14-1.56-.26-3.11-.39-4.67,0-.12-.02-.24-.02-.36-.09-2.47-.4-4.92-.66-7.38-.06-.57-.14-1.14-.14-1.72,0-.6.2-.76.8-.75.79,0,1.58.02,2.34.3.47.17.99.17,1.47.31.44.12.85.32,1.27.5.26.11.37.32.31.58-.23,1.09.11,2.15.16,3.22.09,1.85.28,3.69.41,5.54.16,2.21.27,4.41.46,6.62.25,3.04.55,6.07.83,9.11.02.26.09.52.11.79.05.98-.44,1.76-1.06,2.43-.23.25-.68.31-1.03.45-.27.1-.54.22-.82.26-.63.1-.72.55-.74,1.06,0,.29.03.58.06.86.09.88.18,1.76.26,2.65.08.84.15,1.67.22,2.51.08.98.06,1.98.26,2.94.2.95-.01,1.91.24,2.85.02.05-.05.12-.07.19-.06.02-.12.04-.18.05h0Z"/>
  <path class="cls-2" d="m108.24,111.91c-.44-.54-.86-1.06-1.27-1.58-.09-.11-.16-.25-.26-.34-1.77-1.56-3.38-3.26-4.77-5.17-.65-.89-1.26-1.81-1.94-2.67-.86-1.09-1.79-2.13-2.67-3.21-.5-.61-.99-1.24-1.45-1.88-.41-.56-.31-.89.28-1.21.73-.4,1.43-.87,2.19-1.23.51-.24,1.08-.4,1.65-.48.21-.03.56.2.7.4.48.74.91,1.52,1.33,2.29.61,1.12,1.27,2.2,2.14,3.14.23.25.44.51.68.74.16.14.37.22.68.4.02-.76-.09-1.34-.23-1.91-.13-.54-.28-1.07-.39-1.61-.26-1.2-.48-2.4-.75-3.59-.43-1.9-.9-3.78-1.34-5.67-.37-1.59-.72-3.18-1.08-4.78-.28-1.28-.13-1.49,1.17-1.57,1.13-.08,2.25-.15,3.38-.18.79-.02,1.21.32,1.36,1.09.32,1.57.62,3.15.94,4.72.07.35.19.69.27,1.04.45,1.94.91,3.88,1.34,5.82.24,1.1.43,2.22.64,3.32.17.9.32,1.8.49,2.69.13.66.28,1.32.42,1.97.28,1.31.51,2.64.86,3.94.24.86.39,1.73.47,2.61,0,.02,0,.05.01.07.15,1-.08,1.35-1.06,1.62-.94.26-1.89.52-2.82.81-.32.1-.62.25-.98.41Z"/>
  <path class="cls-2" d="m170.65,113.21c.28.89.38,2.97.13,3.57-.11-.24-.23-.39-.24-.54-.04-.93-.05-1.86-.06-2.78,0-.05.07-.11.16-.25Z"/>
</svg>