<?xml version="1.0" encoding="UTF-8"?>
<svg id="Layer_1" data-name="Layer 1" xmlns="http://www.w3.org/2000/svg" viewBox="0 0 349.35 66.19">
  <defs>
    <style>
      .cls-1 {
        fill: #fec44b;
      }

      .cls-1, .cls-2 {
        stroke-width: 0px;
      }

      .cls-2 {
        fill: #fff;
      }
    </style>
  </defs>
  <path class="cls-1" d="m4.21,66.19h342.48s23.89-53.49-71.68-62.29c-95.58-8.79-193.81,0-193.81,0,0,0-32.74,2.2-62.83,18.32-30.09,16.12-14.16,43.97-14.16,43.97Z"/>
  <path class="cls-2" d="m258.7,2.59s-3.01,6.43-4.73,3.07c-.49-.95-.06-2.14.82-3.36"/>
  <path class="cls-2" d="m299.48,7.62l-2.18,4.35s-3.01,6.43-4.73,3.07c-1.12-2.18,2.6-5.61,5.36-7.76"/>
  <path class="cls-2" d="m237.5,43.83l-3.32,6.63s-3.01,6.43-4.73,3.07,8.05-9.7,8.05-9.7Z"/>
  <path class="cls-2" d="m64.77,45.13l-3.32,6.63s-3.01,6.43-4.73,3.07,8.05-9.7,8.05-9.7Z"/>
  <path class="cls-2" d="m29.29,39.79l-3.32,6.63s-3.01,6.43-4.73,3.07,8.05-9.7,8.05-9.7Z"/>
  <path class="cls-2" d="m33.22,16.53l-3.32,6.63s-3.01,6.43-4.73,3.07,8.05-9.7,8.05-9.7Z"/>
  <path class="cls-2" d="m152.48,1.3l-3.32,6.63s-3.01,6.43-4.73,3.07,8.05-9.7,8.05-9.7Z"/>
  <path class="cls-2" d="m198.78,48.18l-3.32,6.63s-3.01,6.43-4.73,3.07,8.05-9.7,8.05-9.7Z"/>
  <path class="cls-2" d="m160.5,39.79l-3.32,6.63s-3.01,6.43-4.73,3.07,8.05-9.7,8.05-9.7Z"/>
  <path class="cls-2" d="m297.3,36.64l-3.32,6.63s-3.01,6.43-4.73,3.07,8.05-9.7,8.05-9.7Z"/>
  <path class="cls-2" d="m274.2,43.81l-3.32,6.63s-3.01,6.43-4.73,3.07,8.05-9.7,8.05-9.7Z"/>
  <path class="cls-2" d="m192.61.04l-1.28,2.55s-3.01,6.43-4.73,3.07c-.8-1.56.87-3.75,2.89-5.66"/>
  <path class="cls-2" d="m220.62,14.71l-3.32,6.63s-3.01,6.43-4.73,3.07,8.05-9.7,8.05-9.7Z"/>
  <path class="cls-2" d="m202.71,21.86l-3.32,6.63s-3.01,6.43-4.73,3.07,8.05-9.7,8.05-9.7Z"/>
  <path class="cls-2" d="m237.29,24.6l-3.32,6.63s-3.01,6.43-4.73,3.07,8.05-9.7,8.05-9.7Z"/>
  <path class="cls-2" d="m229.68.99s-3.63,6.51-5.18,3.36c-.47-.95.18-2.24,1.3-3.58"/>
  <path class="cls-2" d="m124.46,48.18l-3.32,6.63s-3.01,6.43-4.73,3.07,8.05-9.7,8.05-9.7Z"/>
  <path class="cls-2" d="m110.92,19.59l-3.32,6.63s-3.01,6.43-4.73,3.07,8.05-9.7,8.05-9.7Z"/>
  <path class="cls-2" d="m136.64,21.86l-3.32,6.63s-3.01,6.43-4.73,3.07,8.05-9.7,8.05-9.7Z"/>
  <path class="cls-2" d="m97.8,39.47l-3.32,6.63s-3.01,6.43-4.73,3.07,8.05-9.7,8.05-9.7Z"/>
  <path class="cls-2" d="m332.55,45.13l-3.32,6.63s-3.01,6.43-4.73,3.07,8.05-9.7,8.05-9.7Z"/>
  <path class="cls-2" d="m327.61,22.34l-3.32,6.63s-3.01,6.43-4.73,3.07,8.05-9.7,8.05-9.7Z"/>
  <path class="cls-2" d="m178.8,20.89l-3.32,6.63s-3.01,6.43-4.73,3.07,8.05-9.7,8.05-9.7Z"/>
  <path class="cls-2" d="m59.83,10.67l-3.32,6.63s-3.01,6.43-4.73,3.07,8.05-9.7,8.05-9.7Z"/>
  <path class="cls-2" d="m73.41,23.63l-3.32,6.63s-3.01,6.43-4.73,3.07,8.05-9.7,8.05-9.7Z"/>
  <path class="cls-2" d="m266.15,20.05l-3.32,6.63s-3.01,6.43-4.73,3.07,8.05-9.7,8.05-9.7Z"/>
  <path class="cls-2" d="m93.88,5.34l-3.32,6.63s-3.01,6.43-4.73,3.07,8.05-9.7,8.05-9.7Z"/>
</svg>