<?xml version="1.0" encoding="UTF-8"?>
<svg id="Layer_1" data-name="Layer 1" xmlns="http://www.w3.org/2000/svg" viewBox="0 0 446.38 569.44">
  <defs>
    <style>
      .cls-1 {
        fill: #fff;
        stroke-width: 0px;
      }
    </style>
  </defs>
  <path class="cls-1" d="m142.51,75.3c.73.45,1.28.75,1.79,1.1,3.23,2.16,6.74,3.65,10.46,4.8,4.81,1.49,9.69,2.78,14.27,5.01,4.1,2,8.49,3.4,12.67,5.25,3.17,1.4,6.21,3.1,9.31,4.67,1.01.51,1.2,1.44,1.13,2.41-.14,1.89-.31,3.78-.55,5.66-.38,3.05-.81,6.1-1.23,9.15-.06.47-.07.95-.2,1.4-.43,1.43-1.23,1.93-2.69,1.6-.92-.21-1.82-.55-2.68-.93-4.68-2.07-9.33-4.21-14.03-6.25-4.11-1.79-8.26-3.52-12.42-5.19-.71-.29-1.58-.18-2.87-.3,5.89,15.65,13.34,30.03,19.98,44.95.09-.55.29-1.12.25-1.66-.38-4.48-.8-8.96-1.24-13.44-.33-3.38-.73-6.75-1.09-10.13-.07-.63-.12-1.26-.09-1.89.08-1.93.39-2.23,2.27-1.9,2.24.39,4.77.37,6.62,1.47,3.14,1.87,7.07,1.83,9.82,4.43.28.26.67.43,1.04.56,2.87,1.01,5.74,2,8.91,3.1.22-1.36.59-2.71.62-4.07.13-4.82.11-9.63.21-14.45.13-6.47.28-12.95.48-19.42.06-2.03.32-2.21,2.33-2.32.1-.12.25-.22.28-.36.66-2.86.7-2.96,3.56-2.92,2.54.04,4.98-.28,7.45-.98,1.99-.56,4.02.3,5.88,1.18.36.17.6.71.77,1.13,2.46,6.32,4.93,12.64,7.34,18.98.84,2.21,1.4,4.53,2.33,6.69,1.16,2.67,2.66,5.19,3.86,7.84,2.04,4.52,3.95,9.1,5.91,13.66.22.51.47,1,.69,1.5,1.4,3.33,2.88,6.64,4.18,10.01.99,2.58,2.37,4.61,5.66,5.13-.11-1.6-.07-3.15-.33-4.65-.83-4.74-1.74-9.46-2.7-14.18-.71-3.48-1.52-6.94-2.31-10.4-.56-2.46-1.15-4.92-1.75-7.37-.39-1.57.18-2.48,1.84-2.46,1.65.02,3.3.24,4.93.51,3.26.54,6.5,1.22,9.77,1.75,1.28.21,2.23.79,2.87,1.85.98,1.62,1.92,3.26,2.82,4.93,1.31,2.43,2.33,5.05,3.9,7.28,2.34,3.34,3.52,7.21,5.48,10.72,3.16,5.64,6.2,11.35,9.26,17.05,1,1.86,1.91,3.77,3.01,5.96.17-.61.4-1,.35-1.34-.48-3.04-1.01-6.07-1.51-9.1-.95-5.69-2.04-11.35-2.8-17.06-.53-3.99-.92-7.99-1.98-11.9-.51-1.89.25-2.76,2.23-2.43,4.5.76,9.04,1.35,13.39,2.83,1.65.56,2.64,1.54,2.87,3.36.49,3.91,1.08,7.81,1.64,11.72.96,6.71,1.57,13.5,2.99,20.12,1.33,6.2,2.07,12.44,2.8,18.71.19,1.64.73,3.23.96,4.87.68,4.69,1.21,9.4,1.94,14.09.84,5.37,1.8,10.73,2.8,16.07.29,1.54.91,3.02,1.37,4.53.75,2.5-.31,3.89-2.84,3.68-2.04-.17-4.08-.41-6.12-.65-1.86-.22-2.29-.02-2.52,1.82-.24,1.95-.44,3.94-.37,5.91.23,6.39.57,12.78.93,19.17.36,6.37.8,12.73,1.19,19.09.01.18-.19.38-.35.67-.84-.46-.69-1.18-.72-1.85-.22-4.8-.38-9.61-.73-14.4-.33-4.49-.82-8.96-1.31-13.43-.55-5.02-1.11-10.03-1.79-15.04-.15-1.13-.57-2.37-1.25-3.25-1.76-2.24-2.03-4.88-2.53-7.51-.33-1.76-.8-3.56-1.59-5.14-1.91-3.81-4.02-7.51-6.1-11.23-2.81-5.02-5.7-10-8.52-15.01-1.27-2.27-2.47-4.57-3.71-6.87-.07-.14-.09-.32-.19-.43-2.13-2.58-3.2-5.75-4.85-8.6-.51-.89-.94-1.82-1.46-2.7-.37-.64-.83-1.23-1.51-1.73-.46,3.31,1.18,6.21,1.5,9.33.33,3.21,1.1,6.38,1.64,9.57.54,3.19,1.04,6.38,1.56,9.57.51,3.19.92,6.41,1.55,9.58.62,3.13,1.47,6.21,2.26,9.49-.86.1-1.38.22-1.91.22-2.68,0-5.36-.15-8.04-.06-4.88.16-5.65-.31-7.19-4.94-.17-.52-.29-1.07-.44-1.6-.49-1.71-1.96-2.28-3.47-1.32-.46.29-.82.74-1.24,1.09-1.83,1.54-2.72,1.39-3.84-.76-.55-1.05-.96-2.17-1.44-3.25-1.16-2.59-2.12-5.29-3.53-7.73-2.7-4.69-4.21-9.86-6.45-14.73-.33-.72-.68-1.44-.88-2.2-.82-3.08-3.02-4.54-5.86-5.57-2.87-1.04-5.59-2.5-8.42-3.67-2.4-.99-4.87-1.81-7.45-2.76-.21.58-.5.99-.49,1.4.03,4.9.08,9.8.17,14.69.02,1.11.29,2.24-.81,3.02-1.09.78-1.92-.04-2.81-.49-.2-.1-.45-.12-.88-.23-1.27,1.39-2.13,3.02-1.99,5.01.3,4.18.69,8.34,1.03,12.52.1,1.28.82,2.06,1.98,2.38,1.82.5,3.68.86,5.5,1.35,1.51.41,3.06.76,4.46,1.44,1.68.81,2.9,2.19,3.29,4.12.56,2.78,1.19,5.55,1.63,8.36.37,2.41.46,4.87.78,7.3.18,1.32.59,2.6.92,3.89.23.92.58,1.81.73,2.74.84,5.14,1.67,10.28,2.43,15.44.97,6.63,1.64,13.32,2.87,19.91.93,4.98,1.14,10.03,1.95,15,.64,3.89,1.54,7.75,2.36,11.61.36,1.7.8,3.38,1.16,5.08.57,2.69-.11,3.57-2.79,3.53-3-.05-5.98-.22-8.86-1.21-.57-.2-1.25-.13-1.87-.15-2.62-.09-4.3-1.46-5.04-3.9-.43-1.43-.73-2.91-.9-4.39-.22-1.85-.9-3.44-1.89-5.03-2.39-3.81-4.65-7.7-6.88-11.6-3.17-5.55-6.2-11.18-9.44-16.68-2-3.39-4.36-6.56-6.45-9.9-1.25-1.99-2.29-4.12-3.42-6.18-.37-.68-.72-1.37-1.13-2.15-.92.5-.77,1.2-.66,1.87.55,3.35,1.1,6.7,1.66,10.06.64,3.81,1.31,7.61,1.93,11.42.97,5.99,1.87,12,2.86,17.98.16,1,.63,1.95.92,2.93.32,1.1.61,2.21.96,3.51-.83.08-1.38.26-1.88.16-2.74-.53-5.48-.17-8.22-.12-1.65.03-3.3-.21-4.95-.34-1.25-.1-1.97-.81-2.42-1.95-1.04-2.66-1.72-5.38-2.07-8.23-.91-7.36-1.71-14.74-3.2-22.03-1.87-9.12-3.31-18.33-4.95-27.5-1.63-9.09-3.27-18.17-4.95-27.25-.3-1.63-.89-3.2-1.24-4.82-.43-2.01.1-2.72,2.17-2.52,2.5.24,4.98.78,7.47,1.19,2.57.42,5.15.77,7.7,1.29.87.18,1.8.64,2.43,1.26.95.92,1.78,2.02,2.45,3.17,1.94,3.34,3.75,6.76,5.66,10.12.62,1.1,1.39,2.1,2.04,3.18.57.94,1.07,1.91,1.6,2.87,1.41,2.55,2.86,5.09,4.22,7.67,2.32,4.39,4.58,8.8,6.86,13.21,1,1.93,2.08,3.8,3.38,5.52.2-.04.39-.08.59-.13.04-.88.24-1.78.11-2.63-.7-4.53-1.44-9.05-2.25-13.56-.93-5.2-1.94-10.39-2.95-15.58-.32-1.62-.78-3.21-1.15-4.82-.14-.61-.28-1.24-.29-1.86-.03-1.81.16-2.04,1.91-2.79.43-.18.84-.4,1.33-.63.01-4.37.06-8.73-1.42-12.82-.93-2.56-2.45-4.93-3.88-7.28-.39-.65-1.36-1.04-2.14-1.34-2.86-1.11-3.93-2.4-3.9-5.5.05-4.74.27-9.48.44-14.21q.17-4.71-4.24-6.64c-.65-.28-1.22-.73-1.85-1.04-1-.47-1.74-.13-1.9.97-.13.85-.1,1.74,0,2.6.73,6.34,1.49,12.67,3.13,18.88.75,2.86.76,5.92,1.07,8.89.1.99-.51,1.46-1.43,1.47-1.42.02-2.84-.01-4.26-.02-3.03,0-5.83.81-8.59,2.11-1.82.86-3.89,1.23-5.88,1.65-.48.1-1.24-.33-1.61-.75-.72-.82-1.38-1.74-1.85-2.72-1.98-4.12-3.9-8.27-5.81-12.43-2.3-5.01-4.6-10.03-6.86-15.06-2.55-5.69-5.08-11.39-7.57-17.1-1.76-4.05-3.41-8.15-5.17-12.2-1.16-2.67-2.39-5.31-3.62-7.94-1.53-3.28-3.12-6.53-4.61-9.83-.55-1.22-.87-2.53-1.33-3.79-.16-.42-.43-.8-.82-1.52-.66.97-1.15,1.7-1.69,2.51-2.33.17-4.08-1.38-6.06-2.25-1.3-.57-2.54-1.26-3.81-1.9-7.04-3.54-14.09-7.08-21.14-10.61-.54-.27-1.14-.42-2.01-.73,0,.78-.08,1.3.02,1.79.26,1.32.68,2.6.88,3.93.27,1.83,1.42,2.65,2.91,3.64,3.25,2.16,6.94,3.3,10.37,5.03.28.14.67.2.83.43,1.54,2.19,4.21,2.71,6.19,4.25.6.47,1.42.67,2.13,1,.93.43,1.85.87,2.77,1.33,1.19.6,2.37,1.22,3.55,1.84.91.48,1.84.91,2.69,1.49,1.05.71,1.56,1.73,1.39,3.06-.59,4.53-1.19,9.06-1.72,13.6-.13,1.16-.02,2.34-.02,3.66-1.25.96-2.71.78-4.14.23-1.1-.42-2.15-.99-3.2-1.54-4.6-2.43-9.19-4.89-13.8-7.3-.73-.38-1.57-.54-2.47-.84-.14.56-.3.86-.27,1.14.29,2.67.64,5.33.92,8,.15,1.44.95,2.14,2.26,2.69,3.33,1.42,6.6,2.97,9.84,4.58,3.24,1.61,6.29,3.56,9.77,4.72,1.69.56,3.22,1.63,4.75,2.58,3.62,2.23,7.22,4.48,10.78,6.8,1.25.82,1.39,1.8.97,3.35-1.09,3.95-2.2,7.9-3.18,11.88-.33,1.36-.29,2.82-.42,4.23-.15,1.57-.89,2.08-2.39,1.59-.52-.17-1.01-.45-1.46-.76-5.11-3.59-10.42-6.84-16.16-9.34-4.7-2.05-9.42-4.03-14.1-6.11-2.23-.99-4.39-2.16-6.59-3.23-3.4-1.65-6.83-3.25-10.22-4.94-1.69-.84-3.32-1.81-4.98-2.71-.41-.22-.82-.46-1.25-.63-2.46-.96-2.67-1.2-2.49-3.83.34-4.89.61-9.78,1.16-14.64.25-2.24,1.1-4.42,1.7-6.61.1-.37.25-.85.54-1.03,2.03-1.25,1.55-3.02,1.12-4.82-.15-.61-.27-1.23-.4-1.85-.22-1.1-.85-1.82-1.92-2.21-.81-.3-1.56-.84-2.39-1-1.81-.36-2.23-1.55-2.12-3.13.14-2.2.33-4.4.45-6.6.15-2.75.02-5.51.77-8.23.53-1.91.35-3.9-.38-5.82-.39-1.02-.38-2.18-.69-3.24-.73-2.49-1.58-4.94-2.31-7.43-.33-1.12-.51-2.29-.7-3.45-.32-1.94-.54-3.89-.9-5.83-.31-1.66-.61-3.18.86-4.6.66-.64.83-1.83,1.14-2.8.53-1.62.75-3.39,2.18-4.84,1.16.68,2.28,1.37,3.44,2,2.48,1.36,4.89,2.9,7.5,3.97,2.53,1.04,4.59,2.74,6.89,4.09,3.27,1.91,6.58,3.75,9.87,5.61.27.15.58.25.89.31,3.78.75,7.15,2.33,10,4.97.39.36.93.6,1.43.78,4.09,1.5,7.99,3.38,11.73,5.61.27.16.55.31.84.44,1.7.76,2.2.42,2.49-1.43.28-1.79.69-3.55,1.1-5.31.08-.34.44-.61.83-1.12Zm84.8,64.84c.17-.18.35-.36.52-.53-1.09-2.67-2.11-5.37-3.3-7.99-1.2-2.65-2.17-5.41-3.85-8.41-.3.88-.45,1.22-.52,1.57-.25,1.21-.49,2.42-.71,3.64-.47,2.63-.02,5.14.85,7.64.63,1.81,2.32,1.95,3.63,2.7.41.23.82.48,1.26.65.7.27,1.41.49,2.12.73Z"/>
  <path class="cls-1" d="m290.15,224.49c.94.63,1.76,1.1,2.49,1.69.47.38.91.87,1.2,1.4,1.68,3.13,3.31,6.28,4.94,9.43.18.35.42.71.46,1.09.21,2.23,1.16,4.07,2.75,5.62.24.24.28.69.43,1.08-1.08.99-2.26,1.25-3.56.93-1.8-.43-3.27.16-4.93.91-3.28,1.47-6.31,3.52-9.92,4.33-1.56.35-3,1.35-4.4,2.21-1.93,1.18-3.77,2.5-5.68,3.78.74,2.43,3.07,3.44,5.02,4.86,1.13.83,2.17,1.79,3.27,2.66,1.11.87,2.28,1.68,3.39,2.56,3.83,3.03,7.64,6.09,11.47,9.11,3.09,2.43,6.2,4.83,9.32,7.22,1.17.89,1.46,1.91.9,3.31-1.36,3.36-2.48,6.83-3.99,10.11-2.18,4.74-2.04,9.62-1.53,14.61.55,5.42.96,10.85,1.46,16.28.2,2.18.08,4.45,1.44,6.37.09.13.12.32.23.41,2.62,2.26,3.85,5.52,5.9,8.2,1.37,1.79,2.29,3.92,3.5,5.84,1.69,2.7,2.99,5.54,3.71,8.66.26,1.13,1.02,2.15,1.31,3.28.76,2.97,1.74,5.95,1.99,8.98.44,5.34.73,10.74-.51,16.05-.59,2.53-1.31,5.03-2.9,7.19-.55.75-.92,1.65-1.34,2.49-1.37,2.74-3.2,4.98-5.99,6.48-2.26,1.22-4.27,2.91-6.49,4.22-1.34.79-2.85,1.29-4.32,1.84-1.69.63-3.44,1.07-5.1,1.75-3.01,1.22-6.13,2.11-9.32,2.35-1.98.15-4.03-.65-6.06-.96-2.02-.31-4.08-.44-6.09-.84-2.62-.52-5.23-1.15-7.8-1.89-1.22-.35-2.22-1.15-2.55-2.56-1.39-5.93-2.08-11.94-2.25-18.22,1.59.05,2.59-.75,3.35-2.05.61-1.03,1.75-.89,2.79-.88,1.16.01,2.33,0,3.59,0,.51-2.22.09-4.33-.06-6.42-.16-2.12-.49-4.23-.7-6.35-.41-4.16-.73-8.33-1.21-12.49-.66-5.72-1.42-11.43-2.14-17.14-.23-1.85-.47-2.16-2.4-2.16-2.56,0-5.13.18-7.83.29.1.77.08,1.42.28,1.98,1.76,4.82,1.88,9.87,2.29,14.91.42,5.08.19,10.08-.46,15.1-.65,4.99-2.22,9.74-4.32,14.23-2.01,4.31-5.07,7.98-9.24,10.54-.94.58-1.83,1.24-2.68,1.95-2.25,1.88-4.84,2.97-7.74,3.19-.99.08-2.02-.09-3-.28-1.08-.21-2.11-.67-3.19-.88-1.87-.37-3.52-.87-4.82-2.56-.8-1.04-2.36-1.48-3.56-2.21-4.08-2.48-7.38-5.73-10.33-9.51-3.13-4.01-5.47-8.45-8.01-12.79-.35-.6-.58-1.27-.98-2.16-.38.48-.7.76-.86,1.12-.11.26-.02.62.01.94.22,2.3-.34,4.29-1.89,6.11-1.98,2.32-3.77,4.81-5.6,7.26-.61.82-1.32,1.3-2.37,1.31-.46,0-.93.16-1.39.29-4.68,1.36-9.39.98-14.05.07-2.78-.54-5.49-1.46-8.2-2.29-.73-.22-1.4-.69-2.06-1.11-1.13-.72-2.17-1.59-3.36-2.2-5.35-2.75-9.69-6.72-13.51-11.26-1.15-1.37-2.14-2.96-2.85-4.59-1.64-3.75-3.06-7.6-4.57-11.41-.17-.44-.31-.91-.58-1.29-2.02-2.88-2.61-6.21-3.17-9.57-.5-3.03-1.35-6.01-1.6-9.06-.54-6.54-.74-13.12.3-19.63.48-3.01,1.55-5.93,2.36-8.89.14-.53.43-1.04.47-1.57.09-1.33.58-2.42,1.49-3.39,1.35-1.44,1.82-3.3,2.31-5.13.08-.29.14-.65.05-.93-1.24-3.91-.79-7.98-1.21-11.97-.32-3.14-.85-6.26-1.09-9.4-.2-2.65-1.68-4.49-3.3-6.37-2.1-2.45-4.36-4.82-6.02-7.55-1.96-3.21-3.55-6.68-4.96-10.18-2.05-5.12-3.92-10.32-5.62-15.57-.94-2.91-1.41-5.99-2.06-8.99-.76-3.47-1.53-6.93-2.22-10.41-.78-3.95-1.52-7.91-2.22-11.87-.87-4.9-1.69-9.81-2.5-14.71-.55-3.34-1.06-6.7-1.57-10.05-.09-.62-.14-1.26-.09-1.89.1-1.41.83-2.17,2.26-2.22,4.64-.15,9.29-.29,13.94-.36,1.97-.03,4.53,2.09,5.04,4.31.61,2.69,1.15,5.41,1.45,8.15.76,6.89,1.56,13.78,2.58,20.64.88,5.94,2.29,11.76,3.3,17.67.51,3.02,1.5,5.97,2.43,8.91,1.07,3.38,2.16,6.77,3.53,10.03,1.94,4.63,3.92,9.27,6.94,13.42,1.4-.43,1.63-1.52,1.71-2.62.21-2.6.49-5.2.47-7.8-.05-5.85-.25-11.69-.43-17.53-.12-3.86.02-7.77-.54-11.57-.96-6.55-2.32-13.04-3.63-19.53-.87-4.33-1.92-8.63-2.94-12.93-.25-1.06-.65-2.1-1.07-3.1-.92-2.18-.3-3.4,2.07-3.58,3.81-.29,7.64-.44,11.46-.65,1.9-.11,3.26.83,4.51,2.16,1.88,1.99,2.64,4.26,2.9,7.01.31,3.27,1.34,6.48,2.06,9.72,2.79,12.44,4.47,25.03,5.34,37.74.13,1.97.57,3.91.64,5.88.16,4.42.2,8.84.23,13.26,0,.77-.21,1.56-.41,2.31-.46,1.75-1.1,3.47-1.44,5.25-.57,2.89-1.84,5.45-3.93,7.42-1.2,1.12-2.89,2.03-4.49,2.35-4.32.86-8.71,1.5-13.09,1.93-1.74.17-3.62-.2-5.34-.68-3.69-1.03-4.01-.8-3.6,2.9.63,5.73,1.16,11.47,1.76,17.2.11,1.06.36,2.1.65,3.7.89-.78,1.47-1.15,1.84-1.66.85-1.16,1.68-2.28,3.17-2.72.35-.1.63-.45.93-.71,5.05-4.32,10.66-6.22,16.99-3.23,5.78,2.73,11.43,5.89,15.68,10.75,3.99,4.55,7.88,9.26,10.27,14.97.96,2.3,2.25,4.47,3.49,6.92.46-.44,1.02-.73,1.15-1.14.66-2.09,1.76-4.09,1.43-6.4-.17-1.21.19-2.16,1.14-2.93.42-.34.96-.72,1.11-1.19,1.14-3.52,4.36-4.95,7.09-6.6,1.59-.96,4-.94,6-.8,5.06.36,9.95,1.69,14.65,3.57,2.85,1.14,5.3,3.03,7.76,4.86,2.4,1.78,4.95,3.4,7.13,5.41,2.05,1.89,3.7,4.22,5.67,6.51.19-.44.47-.8.49-1.18.05-1.26-.06-2.53,0-3.79.08-1.66.44-2.15,2.01-2.46,6.71-1.31,13.43-1.96,20.14.02,2.18.64,4.31,1.46,6.5,2.09,3.18.92,6.41,1.66,9.56,2.64,1.24.39,2.45,1.07,3.47,1.88,2.29,1.81,4.38,3.87,6.7,5.64,1.38,1.05,2.95,1.92,5.06,2.51-.45-3.83-.85-7.25-1.24-10.67-.1-.86-.2-1.73-.28-2.59-.28-2.98-.62-5.95-.81-8.93-.2-3.14-1.83-5.72-3.38-8.23-.89-1.44-2.75-2.27-4.16-3.4-2.52-2.03-4.96-4.14-7.54-6.09-2.07-1.57-4.36-2.86-6.42-4.43-2.44-1.86-4.74-3.91-7.12-5.85-.58-.48-1.25-.86-1.97-1.35-.92,1.29-.66,2.45-.41,3.59,1.38,6.4,2.8,12.8,4.16,19.21.17.8.02,1.67.02,2.7-3.19.28-6.23.57-9.28.82-1.42.12-2.84.24-4.26.22-2.1-.04-2.75-.76-3.1-2.79-.3-1.78-.82-3.51-1.19-5.28-.7-3.4-1.46-6.79-2.02-10.22-.81-4.9-1.53-9.82-2.19-14.74-.38-2.82-1.33-5.45-1.99-8.36-.87.25-1.44.48-2.04.58-1.08.18-2.16.34-3.25.4-.93.05-1.38-.49-1.55-1.42-.84-4.74-1.71-9.47-2.62-14.19-.21-1.07-.5-2.14-.93-3.14-1.01-2.36-.16-4.47,2.25-5.3.3-.1.62-.13.92-.22,1.69-.53,2.41-1.4,2.08-3.18-1.27-6.9-1.59-13.96-3.38-20.79-.61-2.34-.65-4.85-.74-7.29-.07-1.96.39-2.47,2.38-2.86,4.36-.84,8.75-1.22,13.16-.38,2.06.4,2.37.79,2.75,2.93.31,1.71.83,3.37,1.12,5.08,1.02,6.14,1.97,12.29,2.95,18.43.07.47.19.93.26,1.4.17,1.15.9,1.7,1.98,1.57,1.24-.15,2.52-.33,3.66-.8,4.22-1.75,8.39-3.64,12.58-5.47.29-.13.66-.14.88-.34,2.49-2.24,5.91-2.41,8.8-3.95Zm-137.96,109.72c.24,2.68.29,5.31.75,7.86.39,2.15,1.15,4.25,1.95,6.3,1,2.56,2.01,5.16,3.4,7.51.97,1.65,2.37,3.28,3.98,4.26,2.39,1.46,5.1,2.46,7.76,3.41,1.61.58,3.37.9,5.08.97,2.89.13,5.05-1.24,6.09-3.98.55-1.45.87-3.01,1.08-4.55.32-2.26.38-4.56.67-6.83.68-5.29-.43-10.37-1.79-15.41-.37-1.36-1.25-2.57-1.62-3.93-1.64-5.9-4.88-10.68-9.6-14.54-3.47-2.84-6.89-3.12-10.54-.71-.53.35-1.06.68-1.59,1.03-2.64,1.77-4.17,4.47-4.72,7.37-.7,3.69-.64,7.53-.9,11.23Zm89.32,20.65c-.01-5.18-.93-10.13-3.31-14.69-1.12-2.14-1.71-4.53-3.47-6.4-3.94-4.21-8.96-6.04-14.42-6.92-2.79-.45-4.68.8-5.82,3.38-1.09,2.47-1.69,5.03-2,7.74-.83,7.2-.92,14.3,1.59,21.23.11.3.2.6.26.91,1.21,6.12,4.65,10.96,8.78,15.41,3.88,4.17,9.76,2.54,13.04-.25,1.46-1.24,2.36-3.36,3.03-5.26.7-1.97.87-4.15,1.18-6.25.43-2.96.76-5.93,1.14-8.9Zm46.23,29.67c6.44-.7,6.68-.74,11.28-4.38,1.43-1.13,2.42-2.83,3.62-4.27,1.62-8.17.49-15.68-5.48-21.92-1.06-1.11-2.48-1.88-3.73-2.81-2.65-1.97-5.16-4.17-8.43-5.1-.56-.16-1.39-.38-1.7-.11-.34.29-.34,1.13-.27,1.7.47,3.83,1.24,7.63,1.47,11.47.52,8.5,1.52,16.93,3.22,25.43Zm-12.95-133.39c.09.17.18.35.27.52.62-.26,1.32-.41,1.84-.8,1.45-1.08,3.03-1.55,4.83-1.64.81-.04,1.61-.51,2.41-.81,2.11-.81,4.18-1.75,6.33-2.43,1.51-.48,4.02-1.94,5-3.38-.6-.07-1.19-.31-1.61-.15-1.83.7-3.82,1.23-5.36,2.35-2.82,2.06-6.05,3-9.27,3.95-1.72.51-3.11,1.34-4.43,2.4Z"/>
  <path class="cls-1" d="m196.04,458.89c-.57-4.13-1.19-8.15-1.67-12.18-.43-3.65.03-4.03,3.68-3.41,1.08.19,2.13.57,3.22.74,1.37.21,1.93-.24,1.99-1.63.05-1.18.03-2.38-.13-3.55-.49-3.36-1.11-6.69-1.59-10.05-.45-3.12-.77-6.26-1.18-9.39-.16-1.25-.42-2.48-.64-3.72-.05-.31-.2-.62-.18-.93.15-3.44.32-6.89.5-10.63.9.09,1.59.07,2.22.25,1.81.52,3.59,1.18,5.4,1.68,2.5.7,5.03,1.34,7.55,1.95,3.82.92,7.48,2.51,11.47,2.7.08,0,.17.02.23.06,3.27,2.23,7.24,1.89,10.84,2.89,2.43.68,4.89,1.23,7.34,1.79.76.17,1.56.25,2.34.28,2.39.08,4.66.63,6.93,1.4,3.47,1.18,5.27,3.6,5.63,7.13.28,2.75.42,5.51.55,8.26.33,6.55.61,13.09.92,19.64,0,.16,0,.32.04.47.77,4.15.25,3.64,4.26,4.24.47.07.95.07,1.41.15,2.02.33,2.52.84,2.78,2.9.75,5.79,1.49,11.57,2.23,17.36.03.24.06.47.07.71.09,1.65-.46,2.1-2.12,1.81-1.32-.23-2.64-.45-3.96-.58-.51-.05-1.04.14-1.88.28.35,4.11.65,8.11,1.04,12.09.37,3.77.86,7.52,1.27,11.28.57,5.26,1.05,10.52,1.68,15.77.46,3.81-.37,4.63-4.06,3.9-2.94-.58-5.91-1.01-8.86-1.51-.86-.14-1.74-.21-2.56-.46-1.86-.55-3.25-1.65-3.6-3.68-.22-1.32-.36-2.65-.48-3.98-.3-3.45-.5-6.91-.86-10.36-.33-3.21-.82-6.41-1.22-9.61-.64-5.16-1.25-10.33-1.91-15.49-.33-2.58-1.26-3.2-3.9-3.32-1.61-.07-3.22-.55-4.8-.92-2.74-.65-5.46-1.36-8.58-2.15-.03,1.17-.12,1.99-.06,2.8.37,5.12.68,10.24,1.17,15.34.49,5.03,1.17,10.03,1.75,15.05.1.86.06,1.73.15,2.6.14,1.32.14,2.7.55,3.94.44,1.32-.34,2.12-.89,3-.17.28-1.02.32-1.48.19-1.13-.32-2.21-.8-3.44-1.27-1.23,1.68-2.75,1.05-4.3.63-1.89-.52-3.81-.93-5.71-1.41-1.14-.29-2.25-.68-3.39-.94-1.57-.35-2.08-1.31-2.17-2.87-.32-5.12-.75-10.24-1.18-15.35-.62-7.24-1.22-14.48-1.95-21.7-.44-4.41-1.01-4.86-5.38-5.28-.3-.03-.6.03-1.14.06.11.62.11,1.15.3,1.6.63,1.45,1.36,2.85,1.99,4.29.28.64.58,1.33.62,2.02.3,5.19,1.4,10.35.36,15.59-.2,1.02.07,2.2.37,3.23.34,1.16.06,1.93-.79,2.73-1.37,1.3-2.68,2.67-3.94,4.08-3.79,4.24-8.58,5.62-14.09,5.01-1.65-.18-3.3-.29-4.95-.5-2.42-.32-4.83-.72-7.25-1.05-4.06-.56-8.12-1.1-12.18-1.64-2.81-.38-5.66-.58-8.44-1.16-3.62-.76-7.16-1.86-10.75-2.71-1.54-.37-2.33-1.37-2.57-2.75-.75-4.19-1.58-8.38-1.31-12.68.04-.7.27-1.45-.88-1.85-1.04,1.13-2.14,2.32-3.22,3.53-3.38,3.73-7.74,3.31-10.5,1.49-1.29-.85-2.27-2.17-3.4-3.26-2.87-2.78-4.76-6.19-6.55-9.72-.88-1.73-2.3-3.18-3.36-4.83-.85-1.32-1.55-2.75-2.31-4.12-.23-.41-.41-.87-.71-1.23-2.94-3.5-4.49-7.73-6.4-11.79-.43-.92-1.09-1.74-1.57-2.65-.55-1.04-.98-2.14-1.51-3.18-.82-1.61-1.58-3.26-2.58-4.76-.83-1.25-2.26-1.36-3.24-.21-2.63,3.05-5.17,6.15-5.42,10.5-.1,1.7-.7,3.39-1.13,5.06-.49,1.91-1.09,3.79-1.58,5.7-.7,2.73-1.36,5.47-1.98,8.22-.19.84-.19,1.73-.33,2.58-.39,2.27-.92,4.38-2.98,5.93-1.35,1.01-2.26,2.61-3.38,3.93-1.47,1.74-2.08,1.76-3.52,0-1.75-2.13-3.21-4.41-4.53-6.88-1.3-2.43-2.23-5.23-4.52-7.11-.47-.38-.56-1.26-.75-1.94-.85-3.1-.53-6.27-.57-9.42-.03-2.51-.3-5.03-.51-7.54-.31-3.62-.65-7.23-1.02-10.84-.23-2.2-.38-4.42-.85-6.57-.8-3.62-2.73-5.19-6.46-5.31-2.87-.09-3.8-2.32-4.83-4.27-1.24-2.36-2.18-4.88-3.19-7.36-.32-.78-.56-1.64-.61-2.48-.11-1.89-.1-3.79-.1-5.68,0-2.76,2.02-4.39,4.56-3.29,4.48,1.94,9.25,1.86,13.92,2.24,3.99.33,8.04.02,12.06-.08,2.06-.05,2.4-.54,2.4-2.6,0-1.66.05-3.31.11-4.97.21-5.19-.85-10.18-2.17-15.17-1.03-3.89-1.79-7.85-2.66-11.78-.1-.46-.2-.93-.22-1.4-.06-1.42.34-2.02,1.71-2.44,2.32-.71,4.65-1.44,7.01-2.01,1.52-.37,3.1-.55,4.67-.66.56-.04,1.22.27,1.72.6,1.35.89,1.84,2.3,2.15,3.81,1.25,6.26,2.48,12.53,3.81,18.77.59,2.76,1.42,5.48,2.12,8.22.29,1.15.77,2.31.76,3.46-.02,3,1.33,3.03,4.07,2.73,3.54-.39,6.68-1.77,9.94-2.91.59-.21,1.15-.53,1.69-.85,3.62-2.12,6.83-1.25,8.6,2.52,1.16,2.46,2.7,4.78,2.67,7.74-.01,1.15.79,2.37,1.4,3.46,1.08,1.95,1.34,3.88.95,6.13-.45,2.6-.82,5.23-.2,7.96.48,2.12.26,4.4.46,6.6.51,5.5,1.08,10.99,1.63,16.49.24,2.35.49,4.7.71,7.05.07.81-.13,1.53-1.19,2.09-.12-.76-.26-1.33-.3-1.91-.33-4.81-.3-9.66-1.03-14.4-.85-5.46-.48-11.04-1.86-16.45-.45-1.78-1.38-3.16-2.32-4.56-.31-.47-1.58-.54-2.35-.42-2.79.42-5.15,1.93-7.5,3.38-.94.58-1.79,1.31-2.73,1.88-1.04.63-1.35,1.49-1.07,2.61.16.61.25,1.26.53,1.82,1.22,2.47,2.46,4.93,3.77,7.35,1.57,2.91,3.21,5.78,4.84,8.66.62,1.09,1.32,2.14,1.91,3.25.92,1.73,1.91,3.43,2.64,5.24,1.95,4.81,5.61,8.31,8.86,12.16,1.41,1.67,2.43,3.67,3.73,5.44,1.04,1.42,2.23,2.72,3.55,4.3,1.24-3.12-.74-5.52-.79-8.17,2.66.02,4.26,2.57,7.01,2.18.05-.63.18-1.24.12-1.82-.29-2.67-.65-5.33-.94-7.99-.69-6.27-1.32-12.54-2.04-18.81-.24-2.11-.78-4.19-1.06-6.3-.63-4.85-1.2-9.7-1.76-14.56-.39-3.35-.74-6.72-1.13-10.38-1.5,0-2.9.06-4.29-.02-2.04-.11-2.72-.89-2.61-2.83.26-4.73.49-9.46.79-14.19.13-1.97.38-3.93.66-5.89.25-1.69.96-2.18,2.57-2.04,1.48.13,2.97.34,4.45.3,4.52-.14,8.65,1.56,12.95,2.52,5.72,1.26,10.83,3.8,15.83,6.66,1.64.94,3.36,1.79,4.84,2.94,1.9,1.48,3.71,3.13,5.36,4.88,4.36,4.61,7.58,10.06,10.83,15.43,2.95,4.88,5.1,10.14,4.83,16.08-.06,1.33.44,2.68.35,4-.27,3.69-.71,7.37-1.12,11.06-.05.46-.21.98-.49,1.32-1.33,1.6-.62,3.01.47,4.23,1.31,1.46,2.81,2.75,4.25,4.09.15.14.41.15.72.26Zm28.09-9.69c1.26.27,2.82.32,4.12.94,3.64,1.73,7.58,1.96,11.43,2.7,2.32.44,3-.78,2.78-2.73-.35-3.13-.51-6.29-.64-9.45-.16-4.01-.24-4.19-4.18-5.28-.45-.13-.92-.21-1.38-.3-2.78-.53-5.57-1.07-8.35-1.59-1.32-.25-2.63-.56-3.96-.67-1.6-.13-2.02.31-1.87,1.92.32,3.45.69,6.89,1.12,10.33.15,1.22.53,2.41.93,4.13Zm-69.18-34.49c0,.82-.09,1.59.02,2.33.24,1.71.64,3.41.86,5.12.53,4.22.97,8.45,1.5,12.67.25,2.03.91,2.56,2.91,2.68,1.1.07,2.2.1,3.3.22,3.25.34,6.24-.23,8.92-2.26,2.41-1.82,2.87-3.74,1.26-6.3-3.42-5.46-8.11-9.61-13.6-12.87-1.43-.85-3.01-1.72-5.16-1.59Zm20.14,62.8c3-.17,5.46-.14,7.87-.49,2.12-.31,2.95-2.95,1.55-4.59-2.01-2.36-4.28-4.39-7.35-5.28-1.58-.46-3.16-.91-4.74-1.38-2.85-.87-5.68-1.8-8.54-2.61-1.37-.38-2.92-.04-2.68,2.14.32,2.89.62,5.79,1.04,8.66.33,2.31.45,2.41,2.8,2.66,3.52.37,7.06.63,10.05.9Z"/>
  <path class="cls-1" d="m346.29,568.63c-.92-.76-1.79-1.31-2.46-2.04-1.27-1.4-2.42-2.91-3.61-4.38-.15-.18-.34-.38-.38-.59-.66-3.95-3.96-6.35-5.66-9.7-1.6-3.15-3.83-5.91-5.34-9.16-1.45-3.13-3.53-5.96-5.35-8.91-1.12-1.81-2.26-3.61-3.42-5.39-1.94-2.96-3.95-5.88-5.86-8.87-1.94-3.05-3.77-6.18-5.69-9.25-.79-1.26-1.71-2.43-2.57-3.65-1.68-2.39-3.28-4.83-5.04-7.15-1.01-1.33-1.72-1.37-2.74-.38-.38.37-.64,1.08-.61,1.62.08,1.33.39,2.65.57,3.98.58,4.29,1.13,8.59,1.71,12.89.24,1.8.48,3.6.75,5.39.17,1.1-.23,1.59-1.35,1.7-3.29.33-6.59.67-9.86,1.15-1.05.16-2.07.72-3.04,1.22-1.02.53-1.77.32-2.52-.47-.85-.89-1.39-1.88-1.53-3.12-.46-4.16-.99-8.31-1.45-12.46-.59-5.33-1.32-10.65-1.66-16-.34-5.38-1.17-10.66-2.02-15.96-.64-3.96-.79-7.99-1.32-11.97-.81-6.18-1.78-12.34-2.63-18.51-.21-1.52-.95-2.46-2.41-2.86-.84-.23-1.66-.56-2.51-.66-1.19-.14-1.66-.81-1.69-1.89-.1-4.81-.22-9.62-.26-14.43-.01-1.57.25-3.15.32-4.72.05-1.17.57-1.74,1.76-1.71,1.72.04,3.4-.13,5.11.58,1.26.52,2.79.36,4.21.51.7.08,1.45.04,2.1.27,3.7,1.29,7.37,2.66,11.07,3.97,1.11.39,2.31.56,3.4.97,2.94,1.12,5.86,2.29,8.75,3.52.78.33,1.41.99,2.11,1.5.83.6,1.59,1.35,2.5,1.77,2.49,1.15,4.46,2.97,6.38,4.83.94.91,1.55,2.15,2.32,3.24,1.83,2.56,3.71,5.09,5.48,7.69,1.59,2.34,3.17,4.69,4.55,7.15.76,1.36,1.33,2.9,1.6,4.43.71,4.12,1.33,8.26,1.76,12.42.4,3.96-1.34,7.32-3.43,10.55-1.5,2.32-3.03,4.6-5.14,6.44-.64.55-.56,1.21-.17,1.92.91,1.65,1.72,3.37,2.66,5,2.24,3.87,4.3,7.88,6.9,11.49,2.08,2.89,3.73,5.99,5.57,8.99,2.3,3.76,4.59,7.53,6.92,11.27,2.21,3.54,4.46,7.06,6.7,10.59,2.44,3.85,4.91,7.69,7.34,11.55,1.28,2.04,1.5,4.33,1.17,6.63-.3,2.04-2.07,3.35-3.7,3.6-2.52.39-3.86,2.27-5.76,3.41-.8.48-1.48,1.16-2.52,1.98Zm-49.73-94c2.02-.29,4.04-.79,6.07-.82,2.33-.03,4.1-.92,5.62-2.56.75-.81,1.6-1.55,2.23-2.45.35-.5.64-1.38.44-1.88-1.89-4.77-4.51-9.11-8.9-11.93-2.14-1.38-4.7-2.14-7.13-3.02-1.25-.45-2.08.53-1.98,2.09.42,6.14.85,12.28,1.28,18.42.13,1.82.48,2.12,2.37,2.14Z"/>
  <path class="cls-1" d="m100.33,294.37c.76,2.8,1.31,5.68,2.34,8.37,1.44,3.76,1.59,3.7,5.56,4.83,4.16,1.18,8.32,2.35,12.47,3.56,1.88.55,3.74,1.19,5.62,1.78,1.04.33,1.85.82,1.92,2.09.31,5.99.66,11.98.96,17.97.05.94,0,1.9-.11,2.84-.16,1.47-.52,1.69-2.04,1.4-.46-.09-.96-.15-1.38-.34-3.91-1.84-8.21-2.22-12.29-3.43-1.04-.31-2.09-.6-3.41-.99-.09.73-.29,1.32-.21,1.87.15,1.09.43,2.17.7,3.24,1.01,3.97,2.11,7.92,3.05,11.9.84,3.53,1.46,7.1,2.31,10.63.38,1.6,1.05,3.14,1.61,4.69.22.59.54,1.15.76,1.74,1.13,2.99.6,3.9-2.52,4.54-1.38.29-2.77.61-4.12,1-3.94,1.13-7.96,1.04-11.99.96-1.28-.02-1.85-.79-2.16-1.82-.5-1.66-.99-3.33-1.35-5.02-.75-3.55-1.36-7.13-2.14-10.67-.56-2.54-1.34-5.03-1.98-7.55-1.14-4.51-2.26-9.03-3.35-13.56-.2-.84-.18-1.73-.31-2.58-.36-2.28-1.08-2.85-3.29-3.32-3.01-.64-5.97-1.46-8.96-2.18-1.79-.43-2.58-1.52-2.68-3.35-.24-4.49-.63-8.97-.89-13.46-.15-2.52-.17-5.05-.21-7.57-.01-.84.11-1.68.18-2.71,2.86.58,5.18,2.62,8.06,1.77.09-.29.26-.53.22-.73-.85-3.92-1.73-7.84-2.6-11.75-.33-1.45-.63-2.92-1.01-4.36-.5-1.89-1.83-3.12-3.51-3.94-1.7-.83-3.45-1.53-5.18-2.3-2.8-1.24-5.6-2.51-8.41-3.73-1.04-.45-1.31-1.17-1.25-2.26.12-2.44.11-4.88.16-7.32.01-.63-.13-1.33.09-1.88.95-2.29.7-4.61.6-6.99-.09-2.19.2-4.41.45-6.61.23-2.06,1.11-2.56,3.09-1.91.75.25,1.55.48,2.16.95,3.68,2.8,7.81,4.67,12.16,6.13.72.24,1.37.72,2.04,1.11.34.2.61.51.96.69,2.88,1.43,5.76,2.84,8.65,4.25,1.46.72,2.68,1.83,4.47,2.03,1.04.12,1.93,1.22,2.95,1.76,2.56,1.35,5.12,2.72,7.76,3.91,1.93.87,4,1.41,5.97,2.19,1.01.4,1.94,1,2.92,1.49.7.35,1.38.76,2.11,1.02,1.93.68,3.89,1.28,5.83,1.93.3.1.64.19.85.4,1.99,1.92,4.7,2.06,7.12,2.89,1.41.49,2.83.98,4.18,1.61,1.4.65,1.71,1.34,1.3,2.87-.38,1.43-.35,2.77.09,4.18.27.88.2,1.87.26,2.81.1,1.65.19,3.3.27,4.95.04.71.09,1.42.05,2.12-.13,2.12-.3,4.25-.46,6.37-.05.71-.09,1.42-.2,2.12-.36,2.28-.79,2.57-2.96,2-.45-.12-.93-.25-1.32-.49-5.63-3.42-11.82-5.57-17.92-7.93-3.3-1.28-6.54-2.72-9.82-4.07-.56-.23-1.15-.38-1.72-.57-.17.15-.33.29-.5.44Zm-5.68-27.97l-.3.66c.45.37.85.85,1.37,1.1,1.6.8,3.23,1.53,4.86,2.25,2.44,1.08,4.86,2.23,7.36,3.16,1.44.54,3.06.59,4.54,1.05,1.46.45,2.84,1.14,4.26,1.73-.33-.58-.92-.76-1.2-1.16-1.63-2.29-4.37-2.66-6.61-3.84-2.55-1.34-5.34-2.24-8.05-3.27-2.02-.77-4.07-1.48-6.22-1.7Z"/>
  <path class="cls-1" d="m76.5,198.64c-.2-.51-.56-1.01-.58-1.53-.12-2.38-.06-4.77-.24-7.15-.2-2.73-.6-5.45-.89-8.18-.5-4.68-1-9.36-1.46-14.04-.33-3.33-.78-6.61-3.16-9.23-.26-.29-.47-.66-.78-.88-2.77-1.98-4.61-4.61-5.96-7.74-1.09-2.52-2.58-4.87-3.99-7.24-4.33-7.24-8.77-14.41-13.06-21.67-2.49-4.21-4.74-8.55-7.15-12.8-.66-1.16-1.55-2.18-2.26-3.31-2.93-4.68-6.13-9.22-8.66-14.11-2.58-5-6.01-9.42-8.78-14.26-2.51-4.37-4.82-8.86-7.25-13.28-1.56-2.83-3.22-5.6-4.75-8.45-1.08-2.01-1.93-4.14-3.03-6.14-.95-1.72-2.13-3.31-3.2-4.97-.26-.4-.53-.79-.75-1.21-.99-1.87-.64-2.76,1.39-2.87,1.54-.09,2.67-.76,3.84-1.61,1.4-1.02,2.89-1.91,4.33-2.87,1.34-.88,2.68-1.58,4.41-1.34.63.09,1.33-.35,2.15-.59.4.71.76,1.39,1.14,2.05,1.71,2.92,3.54,5.78,5.09,8.78,1.14,2.21,1.93,4.6,2.85,6.92.84,2.13,1.64,4.27,2.48,6.4.11.29.27.63.5.79,2.91,2.02,3.73,5.41,5.36,8.24,1.76,3.07,3.31,6.26,4.99,9.37.79,1.46,1.73,2.83,2.48,4.31.57,1.12.93,2.34,1.39,3.51.72,1.82,1.23,3.77,2.22,5.43,1.74,2.9,3.81,5.61,5.7,8.42,1.01,1.5,1.95,3.05,2.89,4.6,1.8,2.96,3.55,5.95,5.39,8.88.38.61,1.11,1.01,1.73,1.55.39-.41.77-.62.78-.86.15-2.07,1.5-3.86,1.31-6.01-.46-5.11-.86-10.23-1.29-15.35-.03-.39-.06-.79-.08-1.18-.31-8.12-1.31-16.17-2.16-24.24-.2-1.88-.46-3.76-.45-5.65.01-1.98.67-2.5,2.64-2.47,2.6.03,5.18.06,7.7.98,1.53.56,3.26.57,4.84,1.02,1.43.41,2.79,1.06,4.18,1.64.84.35,1.21,1.05,1.03,1.92-.75,3.58.36,7.06.52,10.59.28,6.07.93,12.12,1.36,18.19.52,7.25.9,14.5,1.5,21.74.83,9.99,1.8,19.96,2.73,29.94.08.86.31,1.72.36,2.58.18,3.23-1.43,5.78-3.48,7.98-.77.83-2.24,1.03-3.4,1.48-.88.33-1.76.72-2.68.87-2.08.33-2.38,1.82-2.42,3.48-.02.94.11,1.89.2,2.83.28,2.9.58,5.8.85,8.7.26,2.75.49,5.49.72,8.24.27,3.22.19,6.51.86,9.65.67,3.12-.04,6.29.8,9.35.05.17-.15.41-.23.62-.19.06-.39.12-.58.18Z"/>
  <path class="cls-1" d="m102.39,262.84c-1.44-1.79-2.81-3.49-4.17-5.19-.29-.37-.51-.81-.86-1.12-5.81-5.12-11.1-10.72-15.66-16.99-2.13-2.92-4.13-5.95-6.37-8.78-2.83-3.59-5.87-7.01-8.77-10.55-1.65-2.02-3.24-4.09-4.77-6.19-1.34-1.85-1.01-2.93.92-3.99,2.41-1.32,4.71-2.85,7.19-4.03,1.69-.8,3.56-1.32,5.41-1.59.7-.1,1.84.65,2.29,1.33,1.58,2.43,3,4.98,4.38,7.54,1.99,3.69,4.18,7.24,7.04,10.33.75.81,1.44,1.69,2.25,2.43.51.47,1.21.73,2.23,1.32.07-2.5-.31-4.4-.77-6.29-.43-1.76-.91-3.51-1.29-5.29-.85-3.93-1.58-7.89-2.48-11.81-1.42-6.23-2.96-12.42-4.4-18.64-1.21-5.23-2.38-10.46-3.54-15.7-.93-4.19-.43-4.88,3.85-5.17,3.7-.25,7.4-.49,11.11-.6,2.61-.08,3.96,1.05,4.47,3.57,1.05,5.17,2.05,10.35,3.1,15.52.24,1.16.64,2.28.9,3.43,1.49,6.37,3,12.74,4.41,19.13.8,3.62,1.42,7.28,2.1,10.92.55,2.95,1.04,5.9,1.6,8.85.42,2.17.92,4.33,1.38,6.49.92,4.32,1.66,8.69,2.83,12.94.78,2.84,1.29,5.68,1.56,8.59,0,.08.03.15.04.23.5,3.3-.27,4.44-3.48,5.32-3.1.85-6.2,1.72-9.27,2.65-1.04.32-2.03.83-3.23,1.34Z"/>
  <path class="cls-1" d="m413.38,12.18c.31-1.03.85-1.54,1.62-1.03,2.07,1.39,4.48,1.82,6.75,2.65.79.29,1.55.76,2.21,1.29.27.22.23.82.34,1.24-.42.09-1.01.4-1.24.23-2.88-2.11-6.52-2.56-9.67-4.38Z"/>
  <path class="cls-1" d="m307.47,267.12c.91,2.94,1.24,9.77.44,11.74-.36-.79-.76-1.27-.78-1.77-.12-3.05-.15-6.1-.19-9.15,0-.18.23-.37.53-.82Z"/>
  <path class="cls-1" d="m187.79,568.83c-.36.16-.84.5-1.37.58-.92.14-1.62-.39-1.63-1.27,0-.39.69-1.01,1.16-1.12.85-.2,1.84.7,1.84,1.81Z"/>
  <path class="cls-1" d="m386.69,2.56c-.75-.12-1.5-.2-2.24-.37-1.26-.29-1.35-.72-.41-2.2.95.71,1.9,1.41,2.84,2.12-.06.15-.13.3-.19.45Z"/>
  <path class="cls-1" d="m441.08,50.29c1.64.47,3.28.93,5.29,1.5-2.04.24-3.29-.09-5.29-1.5Z"/>
</svg>